<?xml version="1.0" standalone="no"?>
<!DOCTYPE svg PUBLIC "-//W3C//DTD SVG 20010904//EN"
 "http://www.w3.org/TR/2001/REC-SVG-20010904/DTD/svg10.dtd">
<svg version="1.0" xmlns="http://www.w3.org/2000/svg"
 width="350.000000pt" height="350.000000pt" viewBox="0 0 350.000000 350.000000"
 preserveAspectRatio="xMidYMid meet">
<metadata>
Created by potrace 1.11, written by Peter Selinger 2001-2013
</metadata>
<g transform="translate(0.000000,350.000000) scale(0.100000,-0.100000)"
fill="#000000" stroke="none">
<path d="M1689 3133 c-1 -10 -1 -21 0 -25 0 -3 3 -44 6 -90 l6 -83 -47 85
c-60 110 -67 118 -104 112 l-31 -4 7 -92 c8 -115 12 -159 13 -168 1 -5 11 -6
24 -4 21 3 22 7 19 72 -1 38 -4 85 -7 104 -6 41 -6 41 65 -85 37 -66 50 -80
70 -81 49 -1 49 -2 35 166 -4 47 -7 91 -8 98 -1 20 -47 15 -48 -5z"/>
<path d="M1895 3129 c-36 -10 -55 -37 -70 -104 -15 -64 -11 -112 11 -136 20
-22 82 -41 115 -35 13 3 29 5 35 5 35 2 71 156 51 214 -7 23 -67 69 -67 53 0
-3 -10 -2 -22 3 -13 4 -36 4 -53 0z m87 -62 c4 -7 8 -26 8 -43 0 -107 -49
-157 -108 -111 -25 20 -1 158 30 170 18 8 61 -2 70 -16z"/>
<path d="M2136 3013 c-9 -38 -18 -75 -19 -83 -2 -8 -5 -19 -8 -25 -4 -5 -9
-27 -13 -48 -7 -36 -6 -38 30 -53 20 -9 40 -11 43 -7 50 74 124 173 127 171 2
-2 -9 -50 -25 -105 -15 -56 -25 -106 -22 -111 10 -15 52 -34 65 -29 19 7 158
206 152 216 -3 5 -14 11 -24 13 -13 4 -33 -18 -81 -89 -35 -51 -65 -93 -66
-93 -2 0 10 48 26 108 16 59 29 110 29 113 0 8 -47 29 -64 29 -7 0 -42 -40
-77 -90 -34 -49 -64 -90 -65 -90 -2 0 2 15 7 33 6 17 12 43 15 55 3 13 11 43
19 65 19 54 19 73 -1 81 -27 11 -30 7 -48 -61z"/>
<path d="M1113 2990 c-29 -17 -31 -22 -23 -51 5 -18 12 -55 15 -83 7 -61 12
-92 23 -129 7 -28 8 -29 30 -10 19 16 21 22 13 51 -10 32 -9 33 34 54 l45 22
28 -27 c28 -27 62 -29 62 -4 0 10 -179 197 -190 197 -3 0 -19 -9 -37 -20z m62
-65 c42 -43 43 -52 9 -66 -32 -12 -31 -12 -39 31 -3 19 -8 43 -11 53 -8 25 1
21 41 -18z"/>
<path d="M927 2877 c-16 -11 -15 -16 15 -57 18 -25 42 -56 54 -69 12 -13 28
-34 35 -47 11 -21 10 -26 -5 -37 -14 -10 -15 -15 -4 -30 13 -17 15 -17 41 3
15 12 27 31 27 45 0 21 -126 205 -140 205 -3 0 -14 -6 -23 -13z"/>
<path d="M2467 2770 c-37 -43 -67 -87 -67 -97 1 -23 15 -40 72 -86 44 -36 47
-37 53 -17 5 17 -2 30 -37 60 l-43 39 27 27 26 27 41 -34 c33 -26 44 -30 54
-20 9 10 4 20 -27 48 -35 32 -37 37 -25 59 7 13 15 24 19 24 4 0 27 -16 53
-36 43 -33 67 -38 67 -12 0 21 -99 98 -127 98 -13 0 -44 -29 -86 -80z"/>
<path d="M773 2749 c-65 -65 -65 -102 -2 -173 39 -45 77 -66 120 -66 25 0 42
10 75 45 48 48 53 62 28 72 -11 4 -27 -6 -50 -31 -18 -20 -42 -36 -54 -36 -25
0 -106 72 -113 101 -4 14 5 33 30 60 32 35 35 42 21 55 -13 13 -19 10 -55 -27z"/>
<path d="M1645 2489 c-154 -130 -313 -315 -423 -492 -93 -148 -183 -365 -208
-497 -2 -14 -10 -50 -16 -80 -15 -72 -14 -342 2 -400 7 -25 13 -52 15 -60 2
-8 8 -28 15 -45 6 -16 12 -32 12 -35 7 -54 163 -270 195 -270 8 0 8 13 1 43
-5 23 -7 77 -4 119 9 127 54 239 164 408 146 222 210 356 214 440 1 22 4 40 8
40 7 0 103 -60 110 -69 3 -3 23 -19 44 -36 51 -37 150 -136 202 -200 184 -228
268 -501 219 -710 -7 -30 -10 -55 -6 -55 3 0 26 22 51 48 148 155 212 315 212
537 1 85 -7 196 -17 240 -3 11 -7 31 -9 45 -2 14 -10 48 -16 75 -6 28 -13 57
-15 65 -2 8 -15 62 -28 120 -14 58 -28 123 -32 145 -9 50 -13 73 -21 105 -3
14 -7 84 -10 155 -3 107 -1 143 15 199 l19 68 -32 -5 c-62 -12 -85 -17 -167
-41 -46 -14 -86 -22 -89 -19 -3 2 -5 43 -5 89 0 46 -1 84 -3 84 -6 0 -186 -92
-227 -116 -25 -14 -48 -23 -53 -20 -11 6 -41 109 -44 149 -1 15 -5 27 -8 27
-3 0 -32 -23 -65 -51z"/>
<path d="M592 2521 c-5 -3 -14 -15 -20 -27 -14 -27 -12 -31 117 -182 24 -29
47 -52 50 -52 3 0 11 8 18 18 9 16 7 24 -13 47 -13 15 -24 31 -24 34 0 4 11
23 25 43 24 35 26 36 61 26 29 -8 39 -7 45 4 9 17 7 32 -6 34 -5 1 -53 14
-105 28 -108 31 -135 36 -148 27z m83 -57 c17 -4 33 -9 37 -11 7 -4 -18 -63
-26 -63 -2 0 -21 21 -41 46 -29 35 -33 45 -19 41 10 -3 33 -9 49 -13z"/>
<path d="M2845 2520 c-3 -5 1 -25 9 -44 l15 -35 -82 -45 c-116 -64 -111 -60
-97 -85 l11 -22 67 37 c37 20 81 45 99 56 l32 19 17 -33 c9 -18 18 -34 19 -36
5 -6 35 11 35 19 0 5 -21 47 -47 94 -45 80 -64 98 -78 75z"/>
<path d="M475 2280 c-9 -10 -28 -48 -41 -84 l-23 -65 42 -15 c125 -46 211 -76
213 -73 1 1 12 26 23 55 27 67 27 116 1 142 -50 50 -183 75 -215 40z m124 -50
c56 -18 75 -45 60 -88 -6 -18 -16 -32 -22 -32 -7 0 -47 12 -90 26 -83 29 -87
35 -51 91 15 23 32 24 103 3z"/>
<path d="M2872 2227 c-55 -18 -96 -37 -102 -47 -7 -12 -4 -35 7 -71 19 -60 20
-65 22 -78 1 -10 41 -2 41 8 0 4 -7 29 -16 55 -18 53 -13 66 31 69 24 2 29 -3
44 -43 8 -25 16 -46 17 -48 1 -1 9 0 18 4 17 7 16 27 -3 78 -14 34 -13 34 26
42 29 6 30 4 44 -47 14 -54 24 -65 47 -51 9 7 8 22 -9 73 -11 35 -24 67 -28
72 -16 17 -50 13 -139 -16z"/>
<path d="M389 2008 c0 -7 -2 -21 -4 -30 -2 -14 4 -18 28 -19 18 -1 41 -2 52
-3 11 -1 45 -3 75 -5 l55 -2 -35 -15 c-19 -8 -64 -24 -100 -36 -70 -22 -90
-39 -90 -75 0 -29 3 -30 115 -38 153 -12 150 -13 153 13 2 13 -2 22 -10 23 -7
0 -22 2 -33 4 -17 3 -110 12 -155 15 -12 1 19 13 85 34 6 2 15 5 20 7 80 25
100 38 106 68 7 35 1 42 -44 46 -18 2 -70 6 -117 10 -47 4 -88 9 -92 12 -5 2
-8 -2 -9 -9z"/>
<path d="M3048 2005 c-3 -3 -148 -19 -224 -24 -6 -1 -11 -11 -10 -23 1 -21 6
-23 56 -23 54 0 55 0 55 -30 0 -26 -6 -33 -47 -53 -39 -18 -48 -27 -48 -48 0
-22 3 -24 23 -19 12 4 40 17 63 30 36 19 42 20 51 7 13 -21 77 -18 108 5 20
15 24 27 25 71 0 28 -4 52 -10 52 -5 0 -10 5 -10 11 0 5 5 7 11 3 8 -5 8 -1 0
14 -10 19 -35 35 -43 27z m0 -98 c-3 -39 -5 -42 -34 -45 -24 -2 -32 2 -40 20
-18 43 -7 63 37 65 l40 3 -3 -43z"/>
<path d="M2836 1762 c-3 -3 -6 -15 -6 -28 0 -17 9 -25 34 -34 26 -8 33 -16 31
-33 -1 -12 -3 -34 -4 -49 -1 -23 -7 -27 -41 -33 -23 -4 -40 -12 -40 -20 0 -7
-3 -20 -6 -28 -4 -12 21 -9 131 13 75 15 138 30 141 33 3 2 6 14 7 26 1 11 5
21 10 21 25 0 -17 28 -102 67 -53 24 -108 50 -123 58 -15 7 -29 10 -32 7z
m204 -142 c0 -4 -6 -7 -12 -7 -7 -1 -32 -4 -56 -8 -41 -7 -42 -7 -38 16 3 13
5 29 5 36 1 13 101 -24 101 -37z"/>
<path d="M529 1706 c-2 -2 -31 -7 -64 -10 -81 -9 -98 -15 -91 -33 3 -8 6 -19
6 -24 0 -5 12 -7 28 -4 28 6 56 10 128 20 44 6 68 -7 78 -41 13 -44 -20 -59
-178 -79 -32 -4 -47 -21 -39 -42 6 -15 49 -12 178 13 68 12 93 51 80 122 -9
52 -40 82 -85 82 -20 0 -39 -2 -41 -4z"/>
<path d="M2767 1424 c-16 -47 -26 -89 -22 -92 18 -18 34 -5 50 42 10 28 21 54
24 58 3 4 33 -31 66 -78 33 -47 68 -90 78 -95 20 -11 37 -4 37 16 0 7 8 33 18
57 32 74 34 95 12 101 -16 4 -22 -4 -36 -47 -16 -51 -34 -81 -34 -59 0 6 -6
18 -13 25 -7 7 -34 43 -59 79 -42 59 -64 79 -87 79 -3 0 -19 -39 -34 -86z"/>
<path d="M552 1421 c-10 -6 -10 -17 2 -52 20 -57 20 -56 -10 -63 -24 -6 -56 8
-51 22 1 4 -4 22 -12 40 -9 20 -20 32 -33 32 -17 0 -19 -4 -12 -32 11 -53 46
-116 66 -121 18 -5 212 63 229 80 5 5 4 16 -4 27 -12 17 -15 16 -63 -2 l-51
-20 -18 44 c-21 51 -26 56 -43 45z"/>
<path d="M1645 680 c-97 -48 -120 -174 -46 -253 35 -38 73 -57 115 -57 94 0
168 72 169 164 1 123 -127 201 -238 146z"/>
</g>
</svg>
