<svg height="512pt" viewBox="-4 0 512 512.00108" width="512pt" xmlns="http://www.w3.org/2000/svg"><path d="m169.972656 55.996094c0 22.484375-18.226562 40.714844-40.714844 40.714844-22.488281 0-40.714843-18.230469-40.714843-40.714844 0-22.488282 18.226562-40.71875 40.714843-40.71875 22.488282 0 40.714844 18.230468 40.714844 40.71875zm0 0" fill="#feeed9"/><path d="m169.972656 55.996094c0 22.484375-18.226562 40.714844-40.714844 40.714844-22.488281 0-40.714843-18.230469-40.714843-40.714844 0-22.488282 18.226562-40.71875 40.714843-40.71875 22.488282 0 40.714844 18.230468 40.714844 40.71875zm0 0" fill="#feeed9"/><path d="m186.261719 251.429688h-114.003907v-138.433594h97.714844c8.996094 0 16.289063 7.292968 16.289063 16.285156zm0 0" fill="#a9a2d9"/><path d="m72.257812 112.996094h24.425782v138.433594h-24.425782zm0 0" fill="#8c83cc"/><path d="m88.542969 55.996094s89.574219 24.425781 114.003906-24.429688c-24.429687-8.144531-40.714844-24.429687-73.289063-24.429687-48.859374 0-40.714843 48.859375-40.714843 48.859375zm0 0" fill="#ffeb85"/><path d="m89.863281 33.941406c-3.101562 11.371094-1.320312 22.054688-1.320312 22.054688s89.574219 24.425781 114.003906-24.429688c-4.914063-1.640625-9.496094-3.609375-13.949219-5.707031-31.335937 23.574219-89.328125 10.425781-98.734375 8.082031zm0 0" fill="#fd3"/><path d="m165.902344 503.867188c-11.242188 0-20.359375-9.113282-20.359375-20.359376v-191.363281h40.71875v191.363281c0 11.242188-9.117188 20.359376-20.359375 20.359376zm0 0" fill="#7d81a0"/><path d="m92.613281 503.867188c-11.242187 0-20.355469-9.113282-20.355469-20.359376v-232.078124h40.714844v232.078124c0 11.242188-9.117187 20.359376-20.359375 20.359376zm0 0" fill="#7d81a0"/><path d="m414.269531 55.996094c0 22.484375-18.230469 40.714844-40.71875 40.714844-22.484375 0-40.714843-18.230469-40.714843-40.714844 0-22.488282 18.230468-40.71875 40.714843-40.71875 22.488281 0 40.71875 18.230468 40.71875 40.71875zm0 0" fill="#feeed9"/><path d="m316.550781 251.429688h114.003907v-138.433594h-97.71875c-8.996094 0-16.285157 7.292968-16.285157 16.285156zm0 0" fill="#89dad1"/><path d="m357.265625 112.996094h-24.429687c-8.996094 0-16.285157 7.292968-16.285157 16.285156v122.148438h24.429688v-122.148438c0-8.992188 7.289062-16.285156 16.285156-16.285156zm0 0" fill="#62cec2"/><path d="m414.269531 55.996094s-89.574219 24.425781-114.003906-24.429688c24.429687-8.144531 40.714844-24.429687 73.285156-24.429687 48.859375 0 40.71875 48.859375 40.71875 48.859375zm0 0" fill="#7d81a0"/><path d="m314.214844 25.859375c-4.453125 2.097656-9.039063 4.066406-13.953125 5.703125 24.429687 48.859375 114.003906 24.429688 114.003906 24.429688s1.78125-10.679688-1.316406-22.054688c-9.410157 2.347656-67.402344 15.496094-98.734375-8.078125zm0 0" fill="#686c90"/><path d="m336.90625 503.867188c11.246094 0 20.359375-9.113282 20.359375-20.359376v-191.363281h-40.714844v191.363281c0 11.242188 9.113281 20.359376 20.355469 20.359376zm0 0" fill="#7d81a0"/><path d="m410.195312 503.867188c11.246094 0 20.359376-9.113282 20.359376-20.359376v-232.078124h-40.714844v232.078124c0 11.242188 9.113281 20.359376 20.355468 20.359376zm0 0" fill="#7d81a0"/><path d="m96.683594 210.714844h309.441406v195.433594h-309.441406zm0 0" fill="#f4f5f7"/><path d="m121.113281 381.71875v-171.003906h-24.429687v195.433594h309.441406v-24.429688zm0 0" fill="#e9eaef"/><path d="m104.59375 229.050781-57.847656-32.140625 39.0625-58.59375c4.988281-7.484375 2.964844-17.59375-4.519532-22.585937-7.484374-4.988281-17.59375-2.96875-22.585937 4.519531l-48.855469 73.285156c-2.523437 3.785156-3.351562 8.453125-2.277344 12.875 1.070313 4.417969 3.941407 8.1875 7.917969 10.398438l73.289063 40.714844c2.503906 1.394531 5.21875 2.054687 7.894531 2.054687 5.722656-.003906 11.273437-3.023437 14.25-8.378906 4.367187-7.867188 1.535156-17.78125-6.328125-22.148438zm0 0" fill="#feeed9"/><path d="m39.917969 208.667969c-3.976563-2.210938-6.847657-5.980469-7.917969-10.402344-1.074219-4.417969-.246094-9.085937 2.277344-12.871094l46.601562-69.90625c-7.4375-4.65625-17.273437-2.589843-22.175781 4.761719l-48.855469 73.285156c-2.523437 3.785156-3.351562 8.453125-2.277344 12.875 1.070313 4.417969 3.941407 8.1875 7.917969 10.398438l73.289063 40.714844c2.503906 1.394531 5.21875 2.054687 7.894531 2.054687 5.722656-.003906 11.273437-3.023437 14.25-8.378906.445313-.804688.800781-1.636719 1.097656-2.472657zm0 0" fill="#fde5c6"/><path d="m398.21875 229.046875 57.847656-32.136719-39.0625-58.597656c-4.988281-7.484375-2.964844-17.59375 4.519532-22.582031 7.484374-4.992188 17.59375-2.96875 22.585937 4.515625l48.855469 73.289062c2.523437 3.785156 3.351562 8.453125 2.277344 12.871094-1.070313 4.421875-3.941407 8.191406-7.917969 10.398438l-73.289063 40.71875c-2.503906 1.390624-5.21875 2.050781-7.894531 2.050781-5.722656 0-11.273437-3.023438-14.25-8.378907-4.367187-7.863281-1.535156-17.78125 6.328125-22.148437zm0 0" fill="#feeed9"/><path d="m492.964844 193.535156-5.445313-8.175781c.089844 1.585937-.042969 3.191406-.421875 4.765625-1.074218 4.417969-3.945312 8.191406-7.921875 10.398438l-73.285156 40.714843c-2.507813 1.394531-5.21875 2.054688-7.894531 2.054688-2.804688 0-5.566406-.730469-8.003906-2.101563-.4375 3.339844.136718 6.835938 1.898437 10.003906 2.976563 5.355469 8.527344 8.375 14.25 8.378907 2.675781 0 5.390625-.660157 7.894531-2.054688l73.289063-40.714843c3.976562-2.210938 6.847656-5.980469 7.917969-10.402344 1.074218-4.417969.246093-9.082032-2.277344-12.867188zm0 0" fill="#fde5c6"/><path d="m444.109375 120.246094c-4.992187-7.484375-15.101563-9.507813-22.585937-4.519532-7.484376 4.992188-9.507813 15.101563-4.519532 22.585938l19.296875 28.945312 27.378907-17.652343zm0 0" fill="#b0e7e1"/><path d="m251.40625 267.714844c-40.714844-24.429688-65.144531 16.289062-57.003906 40.71875 8.535156 25.597656 57.003906 57 57.003906 57s48.46875-31.402344 57-57c8.144531-24.429688-16.285156-65.148438-57-40.71875zm0 0" fill="#ed7e9c"/><path d="m129.765625 104.84375c24.160156 0 44.316406-17.53125 47.820313-41.152344 13.4375-5.167968 25.160156-13.9375 32.296874-28.214844 2.050782-4.097656-.078124-9.210937-4.414062-10.65625-7.628906-2.542968-14.421875-5.941406-21.617188-9.539062-15.027343-7.511719-30.566406-15.28125-54.085937-15.28125-16.640625 0-29.402344 5.105469-37.929687 15.167969-13.359376 15.773437-10.953126 38.074219-10.402344 42 .363281 26.347656 21.898437 47.675781 48.332031 47.675781zm0-15.269531c-14.796875 0-27.355469-9.765625-31.570313-23.195313 9.285157 1.808594 23.359376 3.90625 38.617188 3.90625 7.8125 0 15.929688-.550781 23.875-1.972656-4.757812 12.5625-16.84375 21.261719-30.921875 21.261719zm-26.230469-64.59375c5.496094-6.445313 14.320313-9.710938 26.230469-9.710938 19.914063 0 33.195313 6.636719 47.257813 13.671875 4.683593 2.339844 9.472656 4.734375 14.566406 6.910156-22.519532 27.742188-78.175782 18.238282-95.386719 14.492188-.175781-6.347656.628906-17.5 7.332031-25.363281zm0 0"/><path d="m326.242188 63.691406c3.503906 23.621094 23.664062 41.152344 47.820312 41.152344 26.433594 0 47.96875-21.328125 48.332031-47.675781.550781-3.925781 2.957031-26.226563-10.402343-42-8.527344-10.0625-21.289063-15.167969-37.929688-15.167969-23.519531 0-39.058594 7.769531-54.082031 15.28125-7.199219 3.601562-13.992188 6.996094-21.621094 9.539062-2.101563.703126-3.792969 2.277344-4.640625 4.320313-.847656 2.046875-.765625 4.355469.226562 6.339844 7.140626 14.277343 18.859376 23.042969 32.296876 28.210937zm47.820312 25.882813c-14.078125 0-26.164062-8.699219-30.921875-21.261719 7.945313 1.421875 16.0625 1.972656 23.875 1.972656 15.257813 0 29.332031-2.097656 38.617187-3.90625-4.214843 13.429688-16.773437 23.195313-31.570312 23.195313zm-47.257812-60.632813c14.0625-7.035156 27.34375-13.671875 47.257812-13.671875 11.910156 0 20.734375 3.265625 26.230469 9.710938 6.703125 7.863281 7.507812 19.015625 7.332031 25.363281-17.207031 3.746094-72.863281 13.25-95.386719-14.492188 5.097657-2.175781 9.882813-4.570312 14.566407-6.910156zm0 0"/><path d="m499.828125 189.796875-48.859375-73.285156c-4.507812-6.765625-12.285156-10.804688-20.410156-10.652344h-97.214844c-13.210938 0-23.917969 10.710937-23.917969 23.921875v73.796875h-115.023437v-73.796875c0-13.210938-10.710938-23.921875-23.921875-23.921875h-97.347657c-1.679687-.019531-3.371093.128906-5.058593.464844-6.265625 1.253906-11.667969 4.871093-15.210938 10.1875l-48.859375 73.289062c-3.878906 5.816407-5.019531 13.230469-3.066406 19.941407 1.746094 6.007812 5.882812 11.199218 11.351562 14.238281l52.839844 29.355469v230.105468c0 14.726563 11.152344 27.371094 25.835938 28.476563 16.40625 1.238281 30.148437-11.761719 30.148437-27.910157v-69.726562h17.304688v69.160156c0 14.726563 11.148437 27.371094 25.835937 28.476563 16.402344 1.238281 30.148438-11.761719 30.148438-27.910157v-69.726562h69.945312c3.90625 0 7.398438-2.804688 7.867188-6.679688.5625-4.640624-3.046875-8.585937-7.578125-8.585937h-159.808594v-132.570313c5.5625-1.875 10.34375-5.761718 13.277344-11.042968 3.242187-5.839844 3.886719-12.839844 1.785156-19.179688-1.9375-5.835937-6.15625-10.613281-11.507813-13.585937l-3.554687-1.976563v-1.8125h294.171875v1.8125l-3.554688 1.972656c-5.347656 2.972657-9.570312 7.75-11.503906 13.589844-2.101562 6.335938-1.460937 13.339844 1.785156 19.179688 2.933594 5.277344 7.710938 9.164062 13.273438 11.042968v132.570313h-98.957031c-3.902344 0-7.394531 2.800781-7.863281 6.675781-.5625 4.644532 3.042968 8.589844 7.574218 8.589844h9.671875v69.160156c0 14.726563 11.148438 27.371094 25.832031 28.476563 16.40625 1.238281 30.152344-11.761719 30.152344-27.910157v-69.726562h17.304688v69.160156c0 14.726563 11.148437 27.371094 25.832031 28.476563 16.40625 1.238281 30.152344-11.761719 30.152344-27.910157v-230.671874l52.84375-29.359376c5.554687-3.085937 9.757812-8.433593 11.445312-14.5625 1.816407-6.605468.640625-13.914062-3.160156-19.617187zm-54.195313 4.957031-6.933593 3.851563v-14.257813zm-21.765624-60.175781c-2.542969-3.8125-1.421876-9.375 2.355468-11.941406 3.90625-2.65625 9.425782-1.617188 12.042969 2.34375l15.269531 22.90625-14.542968 9.378906zm-244.730469 349.429687c0 7.722657-6.914063 13.855469-14.875 12.546876-6.183594-1.019532-10.574219-6.621094-10.574219-12.886719v-69.386719h25.449219zm-73.289063-69.726562v69.386719c0 6.265625-4.390625 11.867187-10.574218 12.886719-7.960938 1.308593-14.875-4.824219-14.875-12.546876v-222.191406s7.789062 4.167969 9.160156 4.632813v140.199219c0 4.214843 3.417968 7.632812 7.636718 7.632812zm-1.089844-166.292969c-2.289062 4.117188-7.644531 5.652344-11.765624 3.359375l-73.289063-40.714844c-4.347656-2.414062-5.757813-8.214843-2.996094-12.363281l48.859375-73.289062c2.855469-4.285157 8.957032-5.082031 12.855469-1.746094 3.359375 2.875 3.824219 7.925781 1.371094 11.605469l-38.894531 58.335937c-2.4375 3.65625-1.191407 8.773438 2.644531 10.90625l57.851562 32.140625c4.121094 2.289063 5.65625 7.636719 3.363281 11.765625zm-46.5625-53.230469 6.933594-10.402343v14.253906zm39 8.820313c-4.21875 0-7.636718 3.417969-7.636718 7.632813v.96875l-9.160156-5.089844v-45.636719l12.269531-18.402344c4.480469-6.722656 5.09375-14.90625 2.382812-21.921875h75.433594c4.777344 0 8.652344 3.875 8.652344 8.652344v73.796875zm309.4375 0h-81.9375v-73.796875c0-4.777344 3.871094-8.652344 8.648438-8.652344h75.4375c-.492188 1.273438-.898438 2.589844-1.171875 3.957032-1.238281 6.199218.046875 12.703124 3.554687 17.960937l12.265626 18.398437v45.644532l-9.160157 5.089844v-.96875c0-4.214844-3.417969-7.632813-7.636719-7.632813zm-56.492187 280.429687c0 7.722657-6.910156 13.855469-14.871094 12.546876-6.1875-1.019532-10.574219-6.621094-10.574219-12.886719v-69.386719h25.445313zm73.289063 0c0 7.722657-6.914063 13.855469-14.875 12.546876-6.183594-1.019532-10.574219-6.621094-10.574219-12.886719v-69.386719h8.652343c4.21875 0 7.636719-3.417969 7.636719-7.632812v-140.199219c1.371094-.464844 9.160157-4.632813 9.160157-4.632813zm64.902343-278.902343c-.566406 2.339843-2.097656 4.355469-4.203125 5.523437l-73.292968 40.71875c-3.679688 2.046875-8.503907 1.082032-11.058594-2.285156-3.261719-4.296875-1.789063-10.371094 2.855468-12.953125l57.652344-32.027344c3.839844-2.132812 5.085938-7.25 2.644532-10.910156l-15.464844-23.199219 14.542968-9.378906 25.117188 37.675781c1.335938 2.003907 1.777344 4.496094 1.207031 6.835938zm0 0"/><path d="m316.160156 311.34375c5.570313-16.722656-1.085937-38.042969-15.488281-49.597656-13.378906-10.734375-30.957031-11.492188-48.757813-2.273438-17.800781-9.21875-35.378906-8.460937-48.757812 2.273438-14.402344 11.554687-21.058594 32.875-15.488281 49.597656 9.117187 27.347656 54.90625 57.632812 60.09375 60.996094 2.5 1.617187 5.804687 1.617187 8.304687 0 5.1875-3.363282 50.976563-33.648438 60.09375-60.996094zm-64.25 45.398438c-14.96875-10.316407-44.042968-33.082032-49.753906-50.226563-3.539062-10.613281 1.195312-25.351563 10.554688-32.859375 4.457031-3.578125 9.558593-5.363281 15.164062-5.363281 6.160156 0 12.929688 2.15625 20.109375 6.46875 2.417969 1.449219 5.441406 1.449219 7.859375 0 13.71875-8.234375 25.914062-8.613281 35.273438-1.105469 9.359374 7.503906 14.09375 22.246094 10.554687 32.859375-5.703125 17.117187-34.785156 39.898437-49.761719 50.226563zm0 0"/></svg>