<?xml version="1.0" standalone="no"?>
<!DOCTYPE svg PUBLIC "-//W3C//DTD SVG 20010904//EN"
 "http://www.w3.org/TR/2001/REC-SVG-20010904/DTD/svg10.dtd">
<svg version="1.0" xmlns="http://www.w3.org/2000/svg"
 width="5000.000000pt" height="3735.000000pt" viewBox="0 0 5000.000000 3735.000000"
 preserveAspectRatio="xMidYMid meet">

<g transform="translate(0.000000,3735.000000) scale(0.100000,-0.100000)"
fill="#FFFFFF" stroke="none">
<path d="M23905 31874 c-22 -2 -92 -9 -155 -15 -363 -34 -778 -139 -1106 -279
-583 -249 -1171 -742 -1528 -1280 -285 -429 -425 -845 -426 -1264 l0 -138 -90
85 c-565 538 -1769 699 -2955 397 -542 -139 -972 -353 -1410 -701 -165 -131
-422 -387 -552 -551 -382 -478 -634 -1047 -742 -1673 -48 -283 -56 -384 -56
-740 0 -363 10 -484 61 -788 194 -1159 798 -2252 1660 -3006 243 -213 570
-458 944 -706 696 -462 1464 -869 2360 -1250 265 -112 547 -225 563 -225 8 0
98 96 202 213 103 116 190 213 194 214 9 4 131 -184 131 -201 0 -7 -22 -74
-50 -147 -27 -74 -50 -139 -50 -145 0 -5 163 -81 362 -169 200 -87 367 -163
373 -170 11 -12 17 -14 485 -155 715 -215 1556 -451 2455 -689 569 -150 627
-164 637 -149 35 56 323 572 523 938 831 1523 1326 2499 1633 3220 475 1118
799 2124 998 3103 32 157 129 839 122 856 -2 4 -55 54 -118 111 -63 57 -137
123 -163 148 l-48 44 58 89 c32 49 63 89 69 89 6 0 66 -27 132 -59 l121 -60 8
47 c12 77 8 566 -6 707 -35 354 -104 690 -207 1009 -406 1249 -1302 2310
-2430 2874 -404 202 -870 342 -1329 398 -122 14 -579 27 -670 18z m-868 -2734
c18 -10 61 -57 97 -102 110 -142 2166 -2805 2181 -2826 2 -2 318 141 675 306
36 16 288 132 560 257 272 125 631 290 797 366 332 153 358 160 424 116 96
-65 116 -199 40 -275 -17 -17 -213 -112 -527 -256 -274 -126 -758 -348 -1074
-494 -933 -429 -894 -412 -944 -412 -84 0 -103 16 -294 264 -222 287 -1000
1294 -1422 1841 -174 226 -325 422 -336 437 -10 15 -21 28 -24 28 -3 0 2 -75
11 -167 9 -93 26 -269 38 -393 12 -124 35 -367 52 -540 16 -173 39 -407 49
-520 11 -113 58 -605 105 -1095 360 -3764 384 -4031 374 -4068 -22 -79 -115
-136 -199 -122 -69 12 151 -232 -2250 2495 -447 509 -864 981 -925 1050 -61
69 -145 164 -187 211 l-76 87 -6 -72 c-3 -39 -11 -163 -16 -276 -6 -113 -17
-322 -25 -465 -8 -143 -19 -352 -25 -465 -6 -113 -12 -230 -15 -260 -2 -30 -7
-120 -11 -200 -7 -157 -17 -194 -64 -234 -15 -12 -144 -73 -286 -133 -143 -61
-740 -317 -1329 -568 -588 -251 -1090 -466 -1115 -477 -56 -25 -125 -27 -168
-4 -103 53 -123 233 -33 295 14 10 357 159 761 331 404 173 994 424 1310 560
l575 245 6 120 c4 66 10 183 13 260 4 77 9 167 11 200 3 33 9 148 15 255 19
367 20 395 25 470 3 41 9 165 15 275 5 110 12 238 15 285 3 47 7 135 10 195 8
145 13 174 37 208 26 36 90 66 140 67 82 0 107 -20 295 -234 98 -110 358 -406
578 -656 220 -250 785 -891 1255 -1425 1197 -1359 1272 -1445 1275 -1445 1 0
1 10 -1 23 -2 12 -67 684 -144 1492 -169 1779 -142 1500 -245 2575 -101 1063
-119 1244 -145 1520 -11 116 -29 306 -40 423 -11 116 -29 304 -40 417 -35 358
-36 380 -12 425 24 48 46 69 92 89 49 21 109 20 147 -4z"/>
<path d="M34320 29383 c-25 -2 -187 -22 -360 -44 -429 -54 -575 -69 -710 -69
-435 -1 -751 -161 -838 -425 -88 -265 -127 -677 -87 -908 33 -191 105 -356
214 -490 148 -182 458 -362 745 -433 231 -57 433 -25 816 128 183 73 331 125
423 149 230 59 681 86 895 55 199 -29 335 -85 435 -176 72 -66 96 -116 104
-217 9 -127 -9 -244 -117 -751 -16 -78 -30 -158 -30 -177 l0 -34 53 15 c112
33 279 142 454 296 141 124 370 360 435 448 267 363 365 828 268 1271 -73 338
-255 631 -486 785 -152 101 -318 166 -744 289 -280 81 -374 112 -525 173 -232
92 -347 113 -655 117 -135 1 -265 1 -290 -2z"/>
<path d="M14780 22489 c-547 -40 -1063 -272 -1411 -636 -452 -470 -690 -1242
-700 -2263 -4 -387 -25 -503 -170 -946 -78 -239 -139 -469 -166 -624 -27 -158
-25 -491 4 -615 12 -49 24 -98 28 -107 7 -17 -20 -18 -469 -18 l-476 0 0 -870
0 -870 158 0 158 0 38 73 c22 39 59 110 84 157 25 47 77 146 117 220 40 74
175 327 300 563 124 235 230 427 234 427 4 0 15 -14 25 -31 32 -54 160 -174
250 -233 179 -120 409 -196 681 -226 127 -14 507 -11 691 6 227 20 557 71 526
81 -79 28 -163 567 -212 1363 -65 1057 -62 1217 26 1523 142 493 388 871 1018
1566 189 209 265 301 308 381 18 33 35 60 38 60 3 0 26 -29 52 -63 142 -190
204 -363 253 -706 14 -97 27 -180 29 -186 7 -19 115 220 135 298 62 239 51
458 -34 682 -53 140 -164 305 -274 408 -60 55 -219 167 -238 167 -6 0 -23 18
-38 40 -39 56 -179 188 -248 233 -125 83 -266 131 -433 147 -110 11 -133 11
-284 -1z"/>
<path d="M35375 22158 c-401 -567 -900 -1376 -1257 -2038 -210 -389 -580
-1152 -565 -1166 4 -5 325 37 400 52 24 5 44 39 197 342 272 540 522 979 858
1507 186 292 517 775 531 775 4 0 61 -48 127 -108 223 -201 452 -380 676 -530
127 -85 341 -216 420 -257 29 -15 34 -21 23 -28 -8 -4 -16 -6 -18 -5 -1 2 -9
-3 -17 -10 -8 -7 -24 -19 -35 -28 -11 -8 -2 -6 20 5 84 41 88 5 -40 396 l-115
350 -107 67 c-274 169 -599 421 -905 700 l-107 98 -86 -122z"/>
<path d="M39475 20759 c-291 -60 -773 -62 -1130 -6 -77 12 -85 12 -80 -2 2 -9
36 -130 74 -270 38 -139 73 -256 76 -260 4 -3 129 -6 278 -6 263 0 429 14 534
44 31 9 31 9 43 -37 34 -137 143 -397 240 -572 491 -885 1366 -1587 2523
-2027 67 -25 124 -48 127 -50 5 -4 7 0 -154 -298 -318 -590 -706 -1210 -1127
-1800 -837 -1174 -1678 -1998 -2445 -2397 -190 -99 -310 -147 -674 -268 -946
-317 -1817 -509 -2675 -590 -301 -28 -750 -35 -778 -11 -20 16 -175 329 -242
486 -374 885 -648 1930 -812 3105 -23 170 -27 228 -27 450 0 246 7 350 40 580
51 350 173 818 318 1218 36 97 63 178 62 179 -3 3 -415 -193 -423 -201 -16
-16 -127 -283 -147 -355 -107 -372 -181 -749 -217 -1106 -16 -155 -16 -571 0
-700 67 -551 157 -1071 267 -1540 25 -104 49 -212 55 -239 39 -204 235 -833
352 -1136 139 -357 362 -833 485 -1030 69 -112 45 -103 332 -119 554 -31 1440
68 2175 243 551 131 1325 370 1735 534 607 243 1271 745 1945 1472 749 808
1525 1898 2232 3135 102 178 333 602 333 611 0 1 -17 8 -37 14 -21 7 -112 41
-202 77 -1285 501 -2234 1302 -2740 2312 -91 180 -211 498 -211 557 0 13 -3
23 -7 23 -5 -1 -48 -10 -98 -20z"/>
<path d="M36659 20633 c-13 -15 -12 -15 9 -4 23 12 28 21 13 21 -5 0 -15 -7
-22 -17z"/>
<path d="M36580 20589 l-25 -20 33 16 c17 8 32 18 32 20 0 10 -16 4 -40 -16z"/>
<path d="M36510 20549 l-25 -20 33 16 c17 8 32 18 32 20 0 10 -16 4 -40 -16z"/>
<path d="M36405 20494 c-86 -51 -93 -64 -10 -19 73 40 96 55 80 55 -6 -1 -37
-17 -70 -36z"/>
<path d="M38421 20210 c0 -3 9 -34 19 -70 14 -44 18 -52 14 -25 -5 33 -31 110
-33 95z"/>
<path d="M38465 20050 c13 -63 34 -123 34 -100 -1 14 -9 48 -20 75 -10 28 -17
39 -14 25z"/>
<path d="M38425 19889 c-22 -10 -33 -18 -25 -18 8 0 33 8 55 18 22 11 33 19
25 19 -8 0 -33 -8 -55 -19z"/>
<path d="M38350 19860 c-13 -8 -13 -10 2 -10 9 0 20 5 23 10 8 13 -5 13 -25 0z"/>
<path d="M8155 18345 c-5 -2 -22 -6 -37 -9 -39 -9 -98 -64 -119 -111 -16 -34
-19 -68 -19 -226 0 -242 14 -284 114 -334 l50 -25 810 0 c545 0 824 4 850 11
52 14 122 86 133 136 4 21 8 121 8 223 0 184 0 185 -28 232 -18 31 -44 57 -75
75 l-47 28 -815 2 c-448 1 -819 0 -825 -2z"/>
<path d="M11418 11369 l-3 -221 -200 2 c-690 4 -1325 -230 -1895 -699 -423
-347 -805 -848 -1065 -1396 -416 -874 -581 -1913 -465 -2926 143 -1248 689
-2345 1513 -3035 445 -372 942 -601 1492 -686 169 -26 544 -31 715 -10 834
104 1592 573 2166 1339 202 270 377 573 515 893 32 74 62 135 65 135 4 0 15
-22 24 -50 50 -144 192 -449 303 -650 l45 -80 -39 -71 c-82 -148 -120 -303
-120 -484 -1 -179 27 -301 102 -454 134 -271 376 -463 676 -538 124 -31 341
-31 463 -1 104 26 226 77 303 126 31 20 61 37 66 37 4 0 50 -18 102 -39 486
-203 1081 -235 1580 -86 372 112 768 335 1050 593 l56 51 464 3 464 3 47 28
c31 18 57 44 75 75 l28 47 0 200 0 200 -28 47 c-31 54 -90 93 -154 104 l-43 7
0 128 0 129 -40 16 c-22 9 -40 17 -40 19 0 1 40 85 89 186 237 489 393 1004
475 1569 30 205 56 473 56 577 l0 73 -188 0 -189 0 -7 -116 c-31 -542 -158
-1129 -351 -1619 -46 -118 -239 -525 -249 -525 -2 0 -25 9 -50 20 -43 18 -72
19 -484 20 l-437 1 4 -240 4 -241 -159 0 c-146 0 -163 -2 -209 -24 -111 -52
-125 -90 -125 -331 0 -232 12 -267 110 -328 30 -19 54 -23 175 -27 l140 -5
-70 -41 c-248 -147 -519 -246 -790 -290 -151 -25 -430 -25 -580 -1 -185 30
-445 104 -445 127 0 5 9 24 20 42 30 52 70 165 91 258 23 106 25 313 4 415
-13 58 -15 200 -15 862 l0 793 -255 0 -255 0 0 -475 c0 -261 -2 -475 -5 -475
-3 0 -28 11 -55 25 -146 74 -398 104 -586 70 -121 -21 -238 -63 -327 -115
l-67 -39 -15 22 c-8 12 -52 101 -98 197 -120 247 -206 471 -282 730 -56 192
-56 190 -30 298 46 191 91 468 117 722 18 169 18 881 0 1050 -27 256 -72 532
-121 740 -19 77 -19 90 -7 138 l14 52 -25 -2 c-20 -2 -28 3 -34 22 -41 139
-88 285 -125 384 -24 66 -44 124 -44 128 0 4 383 8 850 8 l850 0 0 1415 0
1415 -2270 0 -2270 0 -2 -221z m22 -615 c745 -86 1409 -495 1927 -1188 459
-614 762 -1421 843 -2251 6 -60 13 -126 15 -145 3 -19 8 -147 11 -285 16 -625
-82 -1254 -285 -1820 -147 -411 -366 -820 -609 -1135 -713 -925 -1703 -1331
-2692 -1105 -196 45 -411 126 -610 232 -467 246 -926 696 -1240 1217 -313 520
-512 1087 -611 1746 -65 433 -65 1052 1 1495 201 1371 922 2497 1919 2995 250
125 527 210 786 240 50 5 101 12 115 14 68 9 310 4 430 -10z m4136 -6805 c32
-6 62 -14 67 -18 4 -4 -77 -90 -179 -191 -207 -203 -223 -228 -224 -328 0
-104 43 -179 132 -228 69 -38 170 -41 235 -6 24 12 118 99 215 198 194 197
185 194 187 59 2 -207 -109 -389 -295 -482 -206 -103 -441 -65 -604 97 -107
106 -160 232 -160 380 0 141 46 254 146 360 127 134 301 192 480 159z"/>
<path d="M11420 9596 l0 -836 427 2 428 3 272 470 272 470 -82 79 c-339 325
-782 557 -1197 626 -36 6 -77 13 -92 16 l-28 6 0 -836z"/>
<path d="M12861 9578 c-17 -29 -129 -224 -250 -433 l-220 -380 536 -3 c295 -1
538 0 540 2 6 6 -70 153 -144 279 -110 187 -254 387 -390 541 l-42 48 -30 -54z"/>
<path d="M11095 7500 c-318 -63 -545 -432 -505 -817 33 -313 209 -559 454
-635 321 -100 653 150 732 550 56 289 -42 600 -247 780 -114 100 -292 150
-434 122z m157 -161 c65 -14 98 -30 164 -80 69 -51 146 -167 180 -272 25 -73
28 -97 28 -222 0 -125 -3 -149 -28 -222 -36 -110 -109 -219 -186 -277 -82 -61
-142 -79 -244 -74 -68 3 -91 10 -144 38 -117 62 -206 186 -251 350 -26 94 -29
263 -5 359 48 197 181 354 334 395 68 18 86 19 152 5z"/>
<path d="M20140 11568 c66 -41 535 -273 680 -337 297 -131 379 -219 368 -396
-4 -65 -12 -90 -51 -168 -25 -51 -73 -126 -106 -167 -52 -65 -58 -76 -43 -84
9 -5 133 -76 275 -158 l259 -148 163 -35 c90 -19 168 -35 174 -35 7 0 10 233
8 773 l-2 772 -880 2 -880 3 35 -22z"/>
<path d="M19347 9266 c-15 -5 -26 -13 -25 -17 2 -4 54 -74 117 -155 100 -129
116 -145 127 -130 6 10 15 13 18 8 3 -6 -1 -13 -10 -16 -9 -3 -14 -13 -11 -21
6 -13 -7 -119 -19 -157 -5 -17 15 -18 319 -18 l325 0 15 58 c9 31 25 88 36
126 12 38 19 71 18 73 -2 1 -41 14 -88 27 -46 14 -122 36 -169 50 -47 13 -123
36 -170 49 -47 14 -157 46 -245 72 -88 26 -171 51 -185 54 -14 4 -37 3 -53 -3z
m138 -187 c11 -16 1 -19 -13 -3 -7 8 -8 14 -3 14 5 0 13 -5 16 -11z m662 -295
c-3 -3 -12 -4 -19 -1 -8 3 -5 6 6 6 11 1 17 -2 13 -5z"/>
<path d="M16490 8981 l-35 -6 -3 -109 -3 -109 287 6 c158 4 330 7 383 8 l96 0
-110 40 c-60 22 -127 41 -147 42 -21 1 -32 5 -25 9 7 4 10 8 7 8 -3 0 -86 27
-184 60 -176 59 -197 63 -266 51z m220 -64 c0 -7 -4 -6 -10 3 -8 12 -10 12
-10 1 0 -8 -3 -12 -6 -8 -9 9 6 28 17 22 5 -4 9 -12 9 -18z m320 -111 c-7 -7
-13 -7 -20 0 -6 6 -3 10 10 10 13 0 16 -4 10 -10z"/>
<path d="M19711 8163 c79 -292 144 -702 165 -1035 l7 -108 188 0 189 0 0 61
c0 253 -86 834 -171 1152 l-10 37 -198 0 -199 0 29 -107z"/>
<path d="M17320 7340 l0 -101 40 -50 c22 -28 53 -78 68 -110 l27 -59 84 0 84
0 -7 33 c-17 84 -114 244 -193 318 -41 39 -83 69 -95 69 -5 0 -8 -45 -8 -100z"/>
<path d="M16775 7383 c-87 -81 -158 -189 -195 -298 -11 -32 -20 -60 -20 -62 0
-1 38 -3 84 -3 l83 0 21 50 c11 27 34 70 51 94 30 43 31 49 31 150 0 58 -3
106 -8 106 -4 0 -25 -17 -47 -37z"/>
<path d="M16560 6514 c0 -27 58 -162 96 -222 68 -108 168 -195 272 -235 49
-20 48 -23 27 86 -15 76 -16 78 -80 139 -53 49 -75 80 -112 155 l-45 93 -79 0
c-65 0 -79 -3 -79 -16z"/>
<path d="M17436 6460 l-28 -70 17 -103 c10 -56 18 -103 20 -105 6 -6 86 109
118 169 28 52 67 155 67 176 0 2 -38 3 -83 3 l-84 0 -27 -70z"/>
<path d="M21851 4589 l-1 -256 -86 34 c-277 112 -600 94 -861 -47 -250 -134
-430 -367 -504 -648 -32 -122 -36 -311 -10 -440 82 -394 357 -685 746 -789 87
-23 120 -26 250 -26 130 0 163 3 247 26 381 101 653 381 744 767 25 104 29
270 10 378 -9 53 -16 152 -17 235 0 108 -7 178 -27 291 l-27 149 -104 25 -103
24 -76 162 c-42 88 -100 208 -129 266 l-52 105 0 -256z m-386 -640 c33 -6 66
-14 73 -18 8 -5 -50 -69 -169 -187 -99 -98 -190 -196 -201 -218 -62 -120 -13
-271 110 -343 40 -24 58 -28 122 -27 52 0 85 5 109 18 18 10 112 99 209 197
132 136 178 176 184 165 15 -27 17 -144 2 -212 -39 -187 -183 -348 -363 -405
-85 -27 -213 -29 -296 -5 -206 60 -357 232 -387 442 -39 274 151 538 427 594
58 12 110 11 180 -1z"/>
<path d="M23365 4398 c-184 -81 -550 -251 -562 -260 -7 -6 -11 -13 -9 -17 3
-4 12 -49 21 -101 9 -52 21 -116 27 -142 l10 -48 85 0 85 0 -53 -28 c-39 -20
-62 -41 -84 -77 l-30 -48 0 -201 c0 -194 1 -202 24 -243 27 -47 80 -88 132
-103 54 -16 1771 -13 1823 2 53 16 121 84 135 134 6 22 11 116 11 209 0 94 -5
187 -11 209 -15 55 -84 120 -141 134 -26 7 -117 12 -202 12 l-156 0 0 174 c0
96 -3 177 -7 179 -10 6 -992 257 -1001 256 -4 0 -47 -19 -97 -41z"/>
<path d="M31504 4002 l-232 -227 227 -231 226 -231 450 219 c247 120 453 222
457 226 3 4 10 109 14 233 l7 226 -258 6 c-142 4 -349 7 -459 6 l-201 0 -231
-227z"/>
<path d="M35920 3945 c-135 -7 -301 -16 -369 -20 l-124 -7 -301 -255 c-166
-141 -308 -262 -316 -270 -13 -11 -3 -36 75 -193 59 -118 95 -180 105 -179 8
0 310 64 670 142 l655 142 3 328 2 327 -77 -1 c-43 -1 -188 -7 -323 -14z"/>
</g>
</svg>
