<?xml version="1.0" standalone="no"?>
<!DOCTYPE svg PUBLIC "-//W3C//DTD SVG 20010904//EN"
 "http://www.w3.org/TR/2001/REC-SVG-20010904/DTD/svg10.dtd">
<svg version="1.0" xmlns="http://www.w3.org/2000/svg"
 width="728.000000pt" height="457.000000pt" viewBox="0 0 728.000000 457.000000"
 preserveAspectRatio="xMidYMid meet">

<g transform="translate(0.000000,457.000000) scale(0.100000,-0.100000)"
fill="#FFFFFF" stroke="none">
<path d="M6550 4473 c-23 -27 -46 -57 -52 -68 -5 -11 1 -6 14 10 13 17 38 47
57 68 18 20 31 37 28 37 -3 0 -24 -21 -47 -47z"/>
<path d="M4910 4300 c0 -105 -4 -120 -25 -102 -6 4 11 -12 38 -36 26 -24 47
-52 47 -63 0 -17 -9 -13 -56 25 -31 26 -61 46 -67 46 -7 0 2 -8 18 -19 31 -19
148 -120 175 -150 12 -14 15 -50 12 -214 -2 -151 -6 -196 -15 -190 -7 4 -7 0
2 -10 7 -9 17 -17 21 -17 4 0 7 94 8 209 l0 210 -44 41 c-29 27 -44 49 -44 65
0 15 -13 37 -31 55 l-31 29 1 116 c1 63 0 115 -3 115 -4 0 -6 -49 -6 -110z"/>
<path d="M4934 4295 c0 -66 1 -92 3 -57 2 34 2 88 0 120 -2 31 -3 3 -3 -63z"/>
<path d="M6329 4223 c-13 -16 -12 -17 4 -4 9 7 17 15 17 17 0 8 -8 3 -21 -13z"/>
<path d="M6259 4143 c-13 -16 -12 -17 4 -4 9 7 17 15 17 17 0 8 -8 3 -21 -13z"/>
<path d="M7255 4079 c-11 -11 -100 -91 -197 -177 -98 -86 -178 -160 -178 -164
0 -9 26 12 115 92 34 30 112 100 173 154 62 54 112 103 112 108 0 11 -2 10
-25 -13z"/>
<path d="M4861 4074 c0 -11 3 -14 6 -6 3 7 2 16 -1 19 -3 4 -6 -2 -5 -13z"/>
<path d="M6189 4063 c-13 -16 -12 -17 4 -4 9 7 17 15 17 17 0 8 -8 3 -21 -13z"/>
<path d="M4783 4043 c-7 -2 -13 -18 -13 -35 0 -25 3 -29 23 -26 16 2 23 11 25
32 3 26 2 28 -12 17 -14 -12 -16 -11 -10 3 7 17 6 17 -13 9z"/>
<path d="M4865 3625 c0 -220 1 -309 2 -197 2 112 2 292 0 400 -1 108 -2 17 -2
-203z"/>
<path d="M4952 3983 c2 -27 8 -39 21 -41 26 -5 24 54 -4 68 -19 11 -20 9 -17
-27z"/>
<path d="M4628 4003 c-13 -3 -18 -15 -18 -39 0 -34 6 -39 34 -28 16 6 24 75 9
73 -5 -1 -16 -3 -25 -6z m15 -49 c-9 -23 -23 -16 -23 12 0 22 2 24 14 14 8 -6
12 -18 9 -26z"/>
<path d="M4550 3952 c0 -22 -5 -32 -15 -32 -8 0 -15 -4 -15 -10 0 -6 9 -6 23
-1 17 7 21 15 19 37 -5 40 -12 44 -12 6z"/>
<path d="M5587 3974 c-4 -4 -7 -35 -8 -68 0 -34 -6 -128 -13 -211 -11 -128
-11 -152 1 -165 12 -13 13 -13 7 3 -6 16 -1 18 52 15 52 -3 59 -6 62 -25 2
-15 -3 -22 -17 -25 -19 -3 -19 -4 4 -15 16 -7 23 -7 19 -1 -11 17 43 1 113
-33 120 -58 196 -174 209 -318 l7 -68 -64 -11 -64 -11 65 4 c95 6 41 -13 -61
-21 -44 -4 -75 -10 -68 -14 12 -8 4 -100 -9 -100 -24 1 -34 21 -30 59 2 22 0
41 -4 41 -5 0 -8 -48 -8 -107 0 -60 -5 -115 -10 -123 -7 -10 -10 23 -8 108 l3
122 -75 -2 -75 -2 68 -3 67 -4 0 -42 c0 -39 -3 -44 -43 -67 -23 -14 -45 -26
-49 -28 -5 -3 -62 167 -144 431 -15 51 -31 86 -38 84 -6 -2 -41 -12 -78 -23
-38 -10 -68 -22 -68 -26 0 -4 18 -49 40 -99 22 -51 40 -98 40 -106 0 -7 4 -13
8 -13 10 0 38 -77 36 -97 -1 -7 -2 -30 -3 -50 -2 -35 -3 -36 -12 -14 -5 13
-10 35 -11 48 -1 12 -6 23 -10 23 -11 0 -10 -8 7 -65 l15 -49 -33 -34 -34 -33
-51 78 c-53 80 -62 107 -39 116 6 3 0 6 -15 6 -16 1 -28 5 -28 9 0 5 12 8 28
7 18 -2 20 -1 5 2 -21 4 -23 11 -25 66 -1 40 -3 49 -5 26 -5 -43 -33 -58 -51
-28 -17 26 -15 29 11 26 20 -2 22 2 23 48 2 73 0 75 -72 75 -57 0 -64 -2 -64
-20 0 -18 -5 -16 -47 15 -27 20 -59 45 -71 55 -13 11 -26 20 -30 20 -3 0 -14
7 -24 17 -27 24 -30 13 -9 -43 29 -77 34 -107 19 -101 -44 18 -48 16 -13 -5
22 -14 41 -24 42 -23 1 0 -3 18 -9 38 -10 33 -9 39 8 52 28 21 34 19 102 -31
l62 -46 -47 -30 c-27 -17 -58 -42 -71 -56 -23 -24 -23 -24 -3 -46 11 -11 42
-52 70 -91 42 -57 51 -77 51 -111 0 -47 -1 -47 -101 -59 l-56 -7 5 30 c8 56
-50 282 -72 282 -3 0 4 -21 15 -46 24 -57 49 -199 42 -236 -5 -25 -10 -28 -47
-29 -22 0 -59 -4 -81 -9 -30 -6 -21 -7 40 -4 212 12 278 21 268 37 -4 6 0 8
10 4 10 -3 17 -2 17 3 0 5 -8 11 -17 14 -11 3 -8 4 7 3 42 -3 37 -34 -7 -46
-57 -15 -205 -31 -318 -33 -79 -1 -86 -3 -34 -5 64 -4 66 -5 61 -28 -2 -14 0
-25 6 -25 6 0 13 12 15 28 4 26 4 25 6 -5 0 -17 6 -35 12 -39 7 -4 10 5 7 27
-3 31 0 34 25 37 26 3 27 1 22 -25 -4 -15 -8 -34 -11 -40 -2 -7 0 -13 5 -13
10 0 21 35 21 68 0 19 5 22 43 22 23 0 52 3 65 6 20 6 22 3 22 -33 0 -40 -20
-66 -57 -76 -13 -3 -10 -5 8 -6 16 -1 29 5 33 14 3 8 11 15 17 15 8 0 8 -4 -1
-15 -10 -12 -10 -15 2 -15 12 0 15 12 12 60 -2 35 0 60 6 60 6 0 10 -29 10
-66 l0 -65 63 2 62 3 6 40 6 41 1 -43 c1 -25 6 -41 12 -37 5 3 7 13 4 23 -5
14 -3 14 10 -2 13 -16 29 -20 90 -20 86 -1 86 -10 1 114 -108 156 -256 380
-262 396 -4 12 -1 15 12 13 15 -3 255 -364 327 -491 25 -44 38 -48 38 -13 0
28 25 45 68 45 24 0 32 -6 43 -32 8 -18 13 -36 11 -40 -1 -5 9 -8 22 -8 13 0
38 -3 56 -7 31 -6 33 -5 26 18 -20 74 -20 71 5 67 21 -3 25 -10 30 -53 l6 -50
1 58 c3 77 22 74 22 -4 l0 -61 31 6 c17 3 38 6 46 6 8 0 12 4 8 10 -4 6 -15 6
-31 0 -41 -16 -44 -13 -44 41 0 48 1 51 23 45 12 -3 25 -6 29 -6 4 0 9 -15 11
-32 l4 -33 1 36 c2 35 0 37 -43 49 -25 7 -45 14 -45 16 0 2 9 28 21 58 20 54
21 55 52 49 18 -3 39 -9 47 -14 11 -5 25 4 49 33 34 40 34 40 17 74 -9 19 -16
39 -16 44 0 8 101 60 116 60 2 0 11 -15 20 -32 23 -45 29 -47 88 -32 28 8 60
14 72 14 20 0 44 35 44 65 0 8 6 15 13 15 16 0 85 -18 118 -31 26 -10 26 -11
12 -51 -13 -39 -13 -41 9 -56 13 -9 36 -29 52 -45 28 -28 31 -29 68 -16 38 12
40 12 63 -17 13 -16 29 -46 36 -66 13 -40 35 -54 24 -15 -7 22 -64 127 -69
127 -2 0 -22 -6 -44 -14 l-40 -14 -47 44 c-45 42 -47 45 -36 76 13 38 9 43
-55 68 l-49 19 35 1 c56 0 150 -28 209 -63 73 -43 171 -176 157 -212 -3 -9 0
-12 10 -8 18 7 19 4 -16 74 -17 33 -50 79 -74 102 l-44 42 29 26 28 26 36 -31
c33 -29 49 -56 23 -40 -7 4 -8 3 -4 -5 4 -6 11 -9 16 -6 11 7 56 -68 66 -109
6 -23 2 -32 -17 -48 l-24 -20 32 18 c27 15 31 22 26 43 -12 55 -69 144 -115
183 -38 33 -50 51 -63 97 -9 31 -18 64 -21 73 -4 15 -1 15 35 -3 69 -33 160
-52 227 -46 57 4 184 50 184 67 0 4 11 12 24 18 31 14 47 68 36 117 -5 20 -11
40 -15 43 -4 4 -4 -4 0 -18 15 -49 9 -103 -15 -122 -47 -38 -157 -17 -272 51
-35 21 -45 24 -28 10 39 -35 165 -89 209 -91 23 -1 41 -3 41 -4 0 -2 -19 -14
-42 -26 -37 -20 -58 -23 -153 -23 -100 0 -116 3 -173 29 -56 26 -62 32 -60 56
4 48 -40 78 -70 48 -16 -16 -44 10 -92 84 -52 79 -74 166 -68 265 3 43 8 87
12 98 3 11 -1 4 -10 -15 -38 -82 -9 -268 55 -357 l30 -41 -23 -21 c-24 -23
-42 -28 -30 -9 4 7 3 8 -5 4 -6 -4 -9 -11 -6 -16 3 -4 -2 -13 -10 -20 -12 -10
-34 1 -124 61 l-109 74 -6 55 c-3 30 -8 114 -12 185 -7 167 -6 162 -51 157
l-36 -5 5 69 c4 51 3 59 -3 29 -11 -53 -39 -301 -39 -342 0 -18 -5 -33 -10
-33 -9 0 -70 41 -139 94 -11 8 -13 8 -8 0 6 -10 150 -117 235 -174 20 -14 71
-50 112 -81 41 -30 103 -74 138 -97 60 -42 62 -44 62 -87 0 -41 -2 -45 -27
-50 -114 -24 -171 -53 -238 -123 -43 -45 -45 -46 -59 -27 -9 12 -12 31 -9 48
5 24 2 28 -26 33 -26 6 -31 11 -31 35 0 29 1 29 60 29 l60 0 0 34 c0 18 -3 48
-6 65 l-7 32 -61 -3 c-61 -3 -61 -3 -59 -33 2 -25 -4 -18 -34 38 -21 39 -57
86 -85 112 l-49 44 3 111 c2 60 -1 110 -6 110 -5 0 -2 8 5 18 11 14 10 13 -9
-2 -23 -20 -30 -32 -12 -21 6 4 10 -33 10 -103 l0 -110 -57 24 c-32 13 -64 24
-70 24 -7 0 -13 6 -14 13 0 6 -8 113 -17 237 l-17 225 -35 3 c-20 2 -39 0 -43
-4z m71 -64 l3 -55 -36 -2 -35 -3 0 44 c0 63 8 78 39 74 24 -3 26 -7 29 -58z
m-3 -80 c-3 -5 -13 -10 -21 -10 -8 0 -14 5 -14 10 0 6 9 10 21 10 11 0 17 -4
14 -10z m439 -21 c-3 -5 -10 -7 -15 -3 -5 3 -7 10 -3 15 3 5 10 7 15 3 5 -3 7
-10 3 -15z m-436 -16 c-5 -26 -38 -29 -38 -4 0 15 6 21 21 21 14 0 19 -5 17
-17z m432 -29 c0 -16 -5 -24 -12 -21 -20 6 -18 47 3 47 5 0 9 -12 9 -26z m37
-10 c-3 -3 -12 -4 -19 -1 -8 3 -5 6 6 6 11 1 17 -2 13 -5z m-457 -36 c0 -13 3
-33 6 -45 6 -22 4 -23 -51 -23 -48 0 -56 3 -51 16 3 9 6 29 6 45 0 28 2 29 45
29 40 0 45 -3 45 -22z m470 -22 c0 -19 3 -41 6 -50 5 -13 -3 -16 -51 -16 -55
0 -57 1 -51 23 3 12 6 34 6 50 0 25 3 27 45 27 45 0 45 0 45 -34z m-465 -103
l5 -33 -55 0 c-58 0 -60 3 -45 50 5 17 8 19 9 8 1 -10 6 -18 12 -18 5 0 8 4 5
8 -3 5 1 9 8 9 8 0 11 -8 8 -21 -4 -21 -4 -21 11 -1 9 11 17 27 17 35 0 24 18
-3 25 -37z m475 -88 c0 -19 -4 -35 -9 -35 -4 0 -25 13 -45 29 l-37 30 43 4
c24 2 44 4 46 5 1 1 2 -14 2 -33z m-613 -341 c-3 -3 -20 -10 -39 -14 -18 -5
-42 -11 -53 -15 -17 -5 -25 7 -61 92 l-41 98 66 21 66 21 34 -99 c18 -55 31
-102 28 -104z m1010 154 c7 18 53 15 60 -4 4 -10 -1 -22 -11 -30 -16 -11 -17
-27 -14 -126 l3 -114 -37 15 c-21 9 -38 21 -38 26 0 6 13 51 28 100 25 79 27
93 14 104 -12 12 -13 11 -8 -7 7 -20 -10 -98 -24 -115 -4 -4 -25 -5 -48 -1
l-42 7 0 47 c0 36 -4 50 -17 54 -14 6 -9 14 27 46 l45 38 29 -26 c19 -18 30
-23 33 -14z m-417 -93 l0 -55 -34 0 c-58 0 -66 7 -66 59 l0 47 50 3 50 2 0
-56z m496 -55 l26 -94 -23 -17 c-13 -10 -24 -17 -25 -16 -5 5 -14 230 -9 225
3 -3 17 -47 31 -98z m-1504 -52 c56 -87 87 -133 95 -143 16 -20 36 -65 31 -70
-3 -3 -15 12 -26 34 -24 46 -57 82 -67 73 -3 -4 -3 2 1 13 7 17 5 18 -8 8 -12
-11 -18 -9 -33 7 -10 11 -13 20 -8 20 20 0 8 47 -14 57 -16 8 -23 8 -23 1 0
-6 -6 -5 -15 2 -13 11 -13 14 2 26 28 21 36 17 65 -28z m1385 28 c3 -3 1 -17
-4 -33 -8 -23 -14 -27 -34 -23 -49 10 -185 2 -229 -14 -40 -14 -43 -14 -25 0
41 32 116 64 167 72 53 8 117 7 125 -2z m-923 -119 c63 -196 65 -206 56 -212
-5 -3 -12 6 -16 20 -4 16 -13 25 -25 25 -21 0 -24 10 -10 25 15 15 -27 105
-45 98 -17 -6 -19 8 -3 24 8 8 5 13 -10 18 -23 7 -28 31 -9 37 15 5 -13 38
-31 38 -6 0 -11 5 -11 11 0 8 -5 7 -15 -1 -15 -12 -35 -7 -22 6 7 7 78 33 92
33 6 1 28 -54 49 -122z m-554 68 c-11 -13 -10 -15 2 -10 8 3 22 -6 35 -23 20
-27 20 -28 2 -27 -11 1 -25 8 -32 15 -9 11 -7 11 7 0 18 -14 19 -13 13 3 -4
10 -7 20 -7 23 0 2 -6 1 -14 -2 -20 -8 -30 14 -15 32 6 8 14 12 17 9 3 -2 -1
-11 -8 -20z m207 -15 c1 -11 0 -20 -2 -20 -2 0 -9 9 -15 20 -8 15 -8 20 3 20
7 0 13 -9 14 -20z m-137 0 c0 -5 -2 -10 -4 -10 -3 0 -8 5 -11 10 -3 6 -1 10 4
10 6 0 11 -4 11 -10z m975 -1 c4 -6 4 -13 0 -17 -3 -3 -10 0 -14 7 -5 7 -14
10 -20 7 -6 -4 -11 -2 -11 3 0 14 37 14 45 0z m195 -14 c0 -2 -5 -15 -11 -28
-8 -19 -21 -26 -53 -30 -23 -3 -51 -9 -61 -13 -18 -7 -19 -6 -5 11 21 25 130
76 130 60z m-346 -56 c-3 -6 2 -29 12 -50 l18 -40 -32 -32 -32 -31 -27 21
c-16 12 -26 27 -24 35 2 7 8 32 13 55 8 37 13 42 41 46 18 2 33 5 35 5 2 1 0
-3 -4 -9z m-444 -175 c0 -85 -3 -153 -8 -151 -4 3 -6 63 -5 134 2 175 2 173 8
173 3 0 5 -70 5 -156z m24 91 c3 -8 1 -15 -4 -15 -6 0 -10 7 -10 15 0 8 2 15
4 15 2 0 6 -7 10 -15z m337 -51 c12 -16 10 -16 -18 1 -18 11 -33 23 -33 28 0
11 34 -8 51 -29z m-323 8 c2 -7 -2 -10 -12 -6 -9 3 -16 11 -16 16 0 13 23 5
28 -10z m232 10 c0 -4 -10 -13 -22 -21 -13 -8 -33 -21 -45 -29 -38 -24 -25 1
15 30 38 28 52 34 52 20z m-455 -52 c-3 -6 -10 -10 -14 -10 -10 0 -21 47 -13
55 8 8 34 -34 27 -45z m154 -11 l2 -60 -25 17 c-31 20 -32 26 -6 49 11 10 20
23 20 28 0 6 -13 -2 -30 -18 -16 -16 -30 -26 -30 -22 0 5 58 64 66 67 0 0 2
-27 3 -61z m-299 41 c0 -5 -4 -10 -10 -10 -5 0 -10 5 -10 10 0 6 5 10 10 10 6
0 10 -4 10 -10z m370 -13 c8 -7 21 -25 28 -40 10 -24 10 -29 -4 -34 -20 -8
-53 32 -54 65 0 25 8 27 30 9z m217 -74 c-13 -13 -18 -13 -41 2 -14 10 -26 21
-26 26 0 4 17 20 38 34 l37 25 3 -36 c2 -23 -2 -43 -11 -51z m-363 -43 c36
-51 42 -66 30 -68 -19 -5 -66 37 -57 51 3 6 1 7 -4 4 -15 -9 -24 18 -11 31 12
12 1 35 -13 27 -5 -4 -9 4 -9 16 0 28 6 23 64 -61z m-166 50 c11 -19 10 -20
-33 -20 -51 0 -58 11 -17 27 38 15 36 15 50 -7z m308 -29 c-13 -20 -26 -11
-26 16 0 25 1 26 16 11 9 -9 13 -21 10 -27z m54 12 c0 -11 -71 -56 -77 -50 -2
3 13 17 34 31 42 29 43 29 43 19z m171 -12 c6 10 8 8 7 -7 -2 -16 -8 -21 -24
-20 -12 0 -20 4 -17 9 2 4 -3 10 -11 13 -9 3 -16 11 -16 16 0 6 12 3 26 -7 22
-14 28 -15 35 -4z m-505 -39 c4 -49 -5 -62 -42 -62 -31 0 -51 19 -21 21 10 0
10 2 0 6 -7 2 -13 12 -12 21 0 11 2 12 6 5 2 -7 11 -13 20 -13 12 0 12 2 -1
16 -20 20 -21 30 -1 14 13 -11 14 -10 8 5 -5 14 -3 17 10 12 10 -4 17 -2 17 5
0 23 14 -4 16 -30z m211 23 c0 -8 -4 -12 -9 -9 -5 3 -6 10 -3 15 9 13 12 11
12 -6z m-294 -10 c-3 -9 -8 -14 -10 -11 -3 3 -2 9 2 15 9 16 15 13 8 -4z m422
5 c-3 -5 -12 -10 -18 -10 -7 0 -6 4 3 10 19 12 23 12 15 0z m105 -25 c0 -8 -2
-15 -4 -15 -2 0 -6 7 -10 15 -3 8 -1 15 4 15 6 0 10 -7 10 -15z m-533 -47 c-3
-8 -6 -5 -6 6 -1 11 2 17 5 13 3 -3 4 -12 1 -19z"/>
<path d="M6567 3314 c-8 -8 1 -24 14 -24 5 0 9 7 9 15 0 15 -12 20 -23 9z"/>
<path d="M6100 3970 c-13 -8 -12 -10 3 -10 9 0 17 5 17 10 0 12 -1 12 -20 0z"/>
<path d="M4521 3944 c0 -11 3 -14 6 -6 3 7 2 16 -1 19 -3 4 -6 -2 -5 -13z"/>
<path d="M5110 3957 c0 -2 -6 -73 -14 -158 -8 -85 -16 -174 -18 -198 l-2 -44
64 -1 65 -1 3 -44 c3 -41 2 -44 -14 -30 -11 9 -15 9 -10 2 4 -7 16 -18 28 -24
11 -6 18 -7 15 -2 -3 5 -10 87 -16 183 -6 96 -14 208 -17 248 l-7 72 -38 0
c-22 0 -39 -2 -39 -3z m70 -52 c0 -25 0 -48 0 -52 1 -5 -14 -11 -32 -14 -29
-6 -30 -7 -8 -9 14 -1 28 -2 31 -2 4 1 9 -14 11 -33 4 -34 3 -35 -33 -35 l-36
0 -2 48 c-1 26 1 68 5 95 5 44 8 47 35 47 28 0 29 -2 29 -45z m10 -169 c0 -7
3 -28 6 -45 l7 -31 -54 0 -54 0 3 45 4 45 44 0 c31 0 44 -4 44 -14z m10 -126
l0 -40 -55 0 -55 0 0 34 c0 37 -5 35 93 44 14 2 17 -6 17 -38z"/>
<path d="M5132 3794 c-7 -8 -8 -15 -2 -19 6 -3 10 -1 10 4 0 6 7 11 15 11 8 0
15 4 15 8 0 13 -24 10 -38 -4z"/>
<path d="M6133 3910 c0 -30 2 -43 4 -27 2 15 2 39 0 55 -2 15 -4 2 -4 -28z"/>
<path d="M4703 3913 c-7 -2 -13 -21 -13 -40 0 -32 2 -35 23 -29 12 3 25 6 30
6 4 0 7 16 7 35 0 35 -12 43 -47 28z m24 -33 c1 -11 -2 -22 -6 -25 -5 -2 -8 7
-8 20 0 30 12 34 14 5z"/>
<path d="M4946 3883 c-13 -13 -6 -61 10 -67 28 -11 34 -7 34 24 0 28 -29 57
-44 43z"/>
<path d="M5999 3853 l-24 -28 28 24 c15 14 27 26 27 28 0 8 -8 1 -31 -24z"/>
<path d="M4788 3823 c-14 -3 -18 -15 -18 -45 0 -32 3 -39 16 -34 9 3 20 6 25
6 5 0 9 18 9 40 0 22 -3 39 -7 39 -5 -1 -16 -3 -25 -6z m20 -35 c-5 -32 -28
-35 -28 -4 0 17 5 26 16 26 10 0 14 -7 12 -22z"/>
<path d="M4713 3799 c-18 -6 -23 -16 -23 -44 0 -37 8 -42 41 -25 12 7 19 21
19 40 0 35 -8 40 -37 29z m17 -34 c0 -14 -4 -25 -9 -25 -10 0 -21 36 -13 44
12 13 22 5 22 -19z"/>
<path d="M4623 3773 c-7 -2 -13 -22 -13 -44 0 -36 2 -38 23 -30 16 6 23 18 25
45 3 36 -4 42 -35 29z m23 -49 c-3 -8 -10 -14 -16 -14 -14 0 -12 47 3 53 14 5
21 -17 13 -39z"/>
<path d="M4713 3683 c-15 -5 -18 -73 -4 -73 28 0 41 14 41 46 0 33 -8 39 -37
27z m27 -27 c0 -13 -7 -26 -15 -30 -11 -4 -15 1 -15 18 0 12 3 26 7 29 13 14
23 6 23 -17z"/>
<path d="M5360 3646 c0 -19 -6 -36 -12 -39 -7 -3 -4 -5 7 -4 17 1 20 7 17 39
-5 47 -12 50 -12 4z"/>
<path d="M5395 3650 c10 -11 20 -20 23 -20 3 0 -3 9 -13 20 -10 11 -20 20 -23
20 -3 0 3 -9 13 -20z"/>
<path d="M6828 3643 c7 -3 16 -2 19 1 4 3 -2 6 -13 5 -11 0 -14 -3 -6 -6z"/>
<path d="M4952 3493 c2 -149 5 -131 10 50 2 53 0 97 -4 97 -5 0 -7 -66 -6
-147z"/>
<path d="M6658 3633 c18 -2 45 -2 60 0 15 2 0 4 -33 4 -33 0 -45 -2 -27 -4z"/>
<path d="M5402 3614 c10 -3 22 -23 29 -47 22 -86 51 -178 55 -174 4 4 -27 121
-50 187 -8 22 -19 36 -31 37 -16 1 -16 1 -3 -3z"/>
<path d="M6683 3613 c9 -2 23 -2 30 0 6 3 -1 5 -18 5 -16 0 -22 -2 -12 -5z"/>
<path d="M5749 3583 c-13 -16 -12 -17 4 -4 16 13 21 21 13 21 -2 0 -10 -8 -17
-17z"/>
<path d="M6753 3583 c-10 -10 -13 -14 -6 -10 6 5 16 6 21 3 5 -3 9 1 9 9 0 19
-1 19 -24 -2z"/>
<path d="M4774 3568 c-4 -6 -8 -24 -8 -40 -1 -25 2 -28 24 -26 21 3 25 9 28
41 3 31 0 37 -17 37 -11 0 -23 -5 -27 -12z m36 -18 c0 -5 -5 -10 -11 -10 -5 0
-8 -4 -4 -9 3 -5 1 -12 -5 -16 -6 -4 -10 5 -10 19 0 16 6 26 15 26 8 0 15 -4
15 -10z"/>
<path d="M5260 3545 c0 -5 5 -17 10 -25 5 -8 10 -10 10 -5 0 6 -5 17 -10 25
-5 8 -10 11 -10 5z"/>
<path d="M5594 3512 c5 -8 -1 -12 -16 -13 -18 -1 -19 -2 -4 -6 23 -6 43 12 25
22 -8 5 -10 4 -5 -3z"/>
<path d="M5267 3445 c6 -27 43 -99 43 -84 0 4 -11 31 -25 60 -15 34 -22 43
-18 24z"/>
<path d="M5710 3463 c1 -5 17 -26 37 -48 26 -28 32 -32 19 -12 -20 32 -56 71
-56 60z"/>
<path d="M4783 3453 c-15 -5 -18 -73 -4 -73 28 0 41 14 41 46 0 33 -8 39 -37
27z m13 -49 c-15 -14 -16 -13 -16 9 0 14 6 27 13 30 18 6 21 -21 3 -39z"/>
<path d="M6670 3453 c0 -5 23 -26 50 -46 28 -21 50 -36 50 -34 0 2 -22 23 -50
46 -27 23 -50 38 -50 34z"/>
<path d="M6796 3443 c-6 -14 -5 -15 5 -6 7 7 10 15 7 18 -3 3 -9 -2 -12 -12z"/>
<path d="M4383 3412 c-20 -3 -23 -10 -23 -43 0 -37 2 -40 23 -33 30 9 29 7 25
45 -3 29 -6 34 -25 31z"/>
<path d="M4283 3382 c-19 -3 -23 -10 -23 -37 0 -40 7 -46 38 -34 19 7 21 14
17 41 -7 38 -4 35 -32 30z m7 -31 c0 -6 -4 -13 -10 -16 -5 -3 -10 1 -10 9 0 9
5 16 10 16 6 0 10 -4 10 -9z"/>
<path d="M5780 3368 c0 -3 11 -30 25 -60 14 -29 25 -46 24 -38 0 15 -48 111
-49 98z"/>
<path d="M4483 3322 c-20 -3 -23 -10 -23 -43 0 -37 2 -40 23 -33 30 9 29 7 25
45 -3 29 -6 34 -25 31z"/>
<path d="M4373 3288 c-13 -21 -11 -68 3 -68 31 0 44 13 44 46 0 27 -4 34 -19
34 -11 0 -23 -6 -28 -12z"/>
<path d="M4221 3274 c0 -11 3 -14 6 -6 3 7 2 16 -1 19 -3 4 -6 -2 -5 -13z"/>
<path d="M5835 3230 c3 -14 9 -62 12 -107 l6 -82 -124 -4 -124 -3 145 -1 c80
0 138 1 129 4 -13 3 -17 22 -22 86 -3 45 -10 93 -16 107 l-12 25 6 -25z"/>
<path d="M4364 3145 c-8 -43 -3 -49 31 -41 21 5 25 12 25 41 0 30 -3 35 -25
35 -20 0 -25 -6 -31 -35z"/>
<path d="M4961 3160 c0 -8 4 -24 9 -35 5 -13 9 -14 9 -5 0 8 -4 24 -9 35 -5
13 -9 14 -9 5z"/>
<path d="M4283 3153 c-8 -2 -13 -22 -13 -45 0 -32 3 -39 16 -34 9 3 20 6 25 6
5 0 9 18 9 40 0 39 -7 46 -37 33z m27 -38 c0 -16 -6 -25 -15 -25 -9 0 -15 9
-15 25 0 16 6 25 15 25 9 0 15 -9 15 -25z"/>
<path d="M2815 3088 c-40 -47 -31 -100 24 -149 28 -25 41 -45 41 -62 0 -15 9
-51 21 -81 19 -53 19 -56 3 -81 -15 -23 -15 -28 -3 -36 8 -5 25 -9 39 -9 15 0
31 -5 36 -10 7 -7 25 -2 57 16 55 30 60 23 15 -24 l-33 -34 35 -29 c39 -33 73
-36 127 -14 48 20 48 20 22 -22 -52 -87 -280 -331 -352 -378 -15 -10 -26 -23
-23 -30 2 -7 -13 -19 -34 -29 -22 -9 -48 -32 -60 -50 -15 -26 -29 -35 -59 -40
-39 -6 -91 -47 -91 -73 0 -9 -7 -12 -22 -8 -16 4 -41 -5 -78 -27 -106 -64
-319 -148 -376 -148 -43 0 -36 26 9 35 39 8 77 31 77 47 0 6 -10 2 -22 -9 -13
-12 -37 -24 -55 -28 -49 -10 -74 -57 -43 -83 12 -10 9 -12 -20 -7 -126 20
-174 32 -178 45 -4 10 6 12 49 7 31 -4 48 -3 41 2 -10 6 -3 10 22 15 42 8 44
16 15 42 -30 26 -59 92 -59 135 0 29 5 38 27 50 32 17 83 85 83 111 0 10 4 18
9 18 21 0 70 -52 85 -91 10 -24 25 -43 37 -46 13 -4 16 -9 10 -17 -5 -6 -11
-20 -13 -31 -2 -16 -16 -22 -63 -31 l-60 -11 40 -11 c22 -7 52 -12 67 -12 17
0 28 -6 32 -17 3 -11 4 -7 3 7 -2 23 -6 25 -39 22 -23 -2 -38 1 -38 7 0 6 10
11 23 11 28 0 42 10 49 35 3 11 9 27 12 36 5 12 1 18 -16 23 -16 5 -34 29 -59
79 -46 90 -78 112 -162 110 -105 -3 -201 -63 -226 -141 -16 -48 0 -196 27
-252 14 -30 23 -35 55 -38 35 -3 38 -6 33 -25 -3 -12 -6 -28 -6 -35 0 -10 -5
-10 -20 -2 -11 6 -25 8 -30 5 -6 -3 -22 7 -38 23 -32 36 -75 46 -148 37 -51
-6 -54 -8 -54 -36 0 -25 4 -29 28 -29 24 0 28 -4 27 -27 0 -26 4 -28 41 -31
l41 -3 22 -115 c12 -63 28 -134 36 -158 8 -24 19 -72 24 -107 8 -57 7 -66 -11
-85 -15 -17 -16 -23 -6 -28 7 -3 3 -3 -9 0 -16 4 -34 -7 -70 -41 -59 -57 -95
-67 -121 -35 -20 24 -45 20 -35 -5 8 -21 24 -19 16 2 -3 10 -3 15 1 11 4 -3 9
-14 10 -24 4 -24 53 -38 61 -17 3 9 8 14 10 11 3 -2 -5 -31 -16 -64 -29 -83
-23 -168 18 -255 57 -122 131 -183 239 -195 40 -5 71 -17 106 -41 69 -46 140
-64 250 -65 94 0 201 25 238 56 31 26 44 30 37 12 -4 -10 -3 -15 3 -11 6 4 9
12 8 18 -2 7 17 42 41 78 l43 66 112 7 c61 4 114 10 118 14 4 4 1 24 -5 46
-10 33 -21 42 -79 72 -61 31 -68 37 -74 71 -3 21 -14 72 -24 113 -10 42 -14
80 -9 86 9 12 -10 94 -34 139 -38 75 -107 111 -228 121 -111 8 -179 25 -179
43 0 9 -9 30 -20 46 -12 18 -20 47 -20 72 0 41 1 42 38 48 219 37 531 179 532
243 1 20 43 51 118 88 32 15 62 40 75 60 13 20 28 32 37 29 8 -2 44 20 80 50
36 31 95 80 131 110 37 30 97 88 134 129 l67 75 52 -20 c62 -25 74 -35 142
-126 49 -64 54 -77 54 -121 0 -31 -5 -52 -12 -55 -9 -4 -8 -6 2 -6 13 -1 15
-25 16 -150 l2 -148 -57 -18 c-74 -23 -186 -74 -179 -81 4 -3 26 5 49 17 35
18 173 69 186 69 2 0 3 -29 3 -64 l0 -64 -50 -21 c-71 -31 -171 -39 -193 -17
-14 14 -17 15 -17 3 0 -20 22 -27 87 -27 53 0 55 -1 41 -17 -42 -50 -19 -92
55 -100 26 -3 47 -11 47 -17 1 -6 7 3 14 19 32 74 103 126 226 166 46 15 48
17 16 12 -30 -4 -37 -3 -31 7 6 10 4 12 -8 7 -10 -3 -17 -2 -17 3 0 6 6 10 14
10 7 0 27 3 44 6 24 5 31 2 36 -13 6 -18 11 -18 103 -6 54 6 138 21 188 32 49
11 124 26 165 32 41 7 70 14 63 16 -11 4 -221 -24 -233 -32 -3 -2 -12 1 -20 7
-12 8 -12 9 3 4 11 -3 16 -2 12 4 -3 6 -16 10 -28 10 -13 1 2 11 38 26 76 32
178 65 184 59 2 -3 -1 -5 -7 -5 -7 0 -12 -7 -12 -15 0 -14 3 -13 24 2 13 10
19 21 14 24 -10 6 46 22 120 34 28 5 48 3 57 -5 9 -7 22 -9 32 -5 10 5 22 7
26 6 5 -1 6 3 2 9 -4 6 -16 8 -28 5 -19 -5 -20 -5 -4 5 9 6 21 9 26 5 11 -6
43 34 36 46 -3 4 9 2 26 -4 26 -10 32 -9 40 5 6 12 19 16 39 13 19 -2 29 1 27
8 -3 15 86 11 91 -4 3 -7 40 16 94 60 4 3 -25 7 -65 7 -152 2 -253 94 -264
239 -7 83 22 155 90 230 l52 57 80 -30 c44 -16 98 -39 120 -51 22 -12 31 -19
20 -15 -41 14 -86 16 -115 4 -68 -28 -133 -144 -111 -198 19 -45 58 -80 102
-92 103 -28 199 51 199 164 0 36 -6 52 -31 81 -37 42 -33 44 24 9 54 -34 97
-74 97 -91 0 -7 5 -13 10 -13 15 0 -13 50 -42 77 -12 12 -80 50 -149 85 l-125
64 18 44 c10 23 17 45 14 47 -2 2 -12 -16 -22 -41 -11 -25 -23 -46 -28 -46 -6
0 -47 12 -93 26 -64 20 -83 30 -83 44 0 10 -5 20 -10 22 -6 2 -2 20 10 43 25
49 26 98 3 116 -15 11 -16 11 -5 -1 26 -29 0 -123 -46 -164 -20 -18 -23 -17
-94 4 -40 13 -86 29 -103 37 l-30 14 22 -19 c21 -19 21 -20 4 -36 -26 -24 -31
-20 -33 27 -1 36 -2 38 -5 10 -6 -44 -25 -42 -22 1 2 19 0 38 -4 42 -4 4 -7
-7 -7 -25 l0 -32 -26 20 c-15 12 -40 21 -55 21 l-29 0 0 137 c0 75 -2 134 -4
132 -3 -2 -6 -64 -7 -138 l-2 -133 -26 -9 c-27 -11 -71 -47 -71 -59 0 -4 27
-17 61 -29 33 -13 62 -28 65 -36 7 -18 -22 -85 -38 -85 -7 0 -29 4 -48 9 -19
5 -50 12 -67 15 -30 5 -33 3 -33 -20 0 -38 27 -82 63 -104 57 -35 154 -21 189
28 9 13 19 17 32 12 11 -3 15 -9 10 -12 -22 -14 -132 -73 -166 -90 -20 -10
-46 -18 -57 -18 -10 0 -42 -12 -70 -27 -35 -18 -55 -23 -62 -16 -6 6 -12 78
-14 163 -3 92 -9 158 -16 166 -22 27 -155 108 -269 165 -103 51 -144 67 -295
113 -27 8 -39 17 -36 26 25 91 2 200 -51 245 -48 41 -94 49 -165 31 -83 -22
-88 -21 -172 19 -93 45 -130 46 -166 3z m70 -108 c11 -12 36 -30 55 -41 l35
-18 -32 -1 c-25 0 -38 8 -59 36 -35 45 -56 123 -40 143 9 11 12 2 16 -41 3
-36 12 -64 25 -78z m-8 108 c-3 -8 -6 -5 -6 6 -1 11 2 17 5 13 3 -3 4 -12 1
-19z m46 -14 c11 -31 57 -78 97 -98 35 -17 106 -20 116 -5 5 8 2 11 -8 7 -9
-4 -15 0 -15 8 0 8 5 14 11 14 6 1 -2 7 -19 14 l-29 12 51 17 c101 33 174 13
215 -60 l18 -33 -48 0 c-26 0 -64 -5 -85 -11 -29 -8 -42 -7 -53 2 -8 7 -39 11
-70 10 -89 -3 -170 44 -200 115 -17 41 -17 47 -2 42 6 -2 16 -17 21 -34z m123
-142 c-16 -2 -35 3 -44 12 -13 13 -10 13 29 3 40 -11 42 -12 15 -15z m132 -15
c11 -12 29 -40 39 -62 14 -33 18 -36 21 -18 5 33 26 47 51 33 16 -8 21 -20 21
-55 0 -33 4 -45 15 -45 21 0 19 -6 -17 -64 -37 -61 -57 -78 -122 -112 -53 -28
-86 -27 -131 2 l-26 17 24 26 c43 45 67 112 30 79 -40 -35 -81 -48 -127 -42
-44 6 -60 24 -36 39 15 9 12 42 -5 75 -9 16 -18 50 -22 75 l-6 45 69 0 c38 0
92 7 119 14 70 20 79 19 103 -7z m170 17 c18 -5 22 -13 22 -43 0 -50 -18 -111
-33 -111 -8 0 -12 15 -12 39 0 21 -7 46 -14 55 -16 19 -52 21 -69 4 -9 -9 -15
-9 -24 0 -15 15 -1 20 83 32 62 9 61 9 -23 5 -49 -3 -88 -3 -88 0 0 16 115 30
158 19z m71 -191 c9 -6 -52 -84 -93 -118 -38 -31 -49 -35 -61 -25 -13 11 -15
8 -15 -16 -1 -25 -2 -27 -11 -11 -13 22 -5 47 15 47 9 0 21 10 27 23 7 12 27
46 45 74 33 51 35 52 61 41 16 -7 30 -13 32 -15z m109 -33 c84 -30 245 -108
291 -140 14 -9 52 -34 83 -54 67 -43 74 -52 58 -72 -11 -12 -14 -12 -25 2 -9
14 -14 14 -20 4 -5 -8 -4 -11 2 -7 23 14 20 -22 -3 -57 -28 -41 -39 -45 -47
-17 -3 14 -1 18 10 14 13 -5 13 -3 1 16 -8 13 -20 20 -30 17 -13 -3 -20 4 -26
27 -8 28 -13 32 -40 29 -18 -1 -32 2 -32 7 0 5 -8 7 -19 4 -23 -6 -38 15 -17
23 25 9 19 26 -6 20 -13 -3 -17 -3 -10 0 19 9 14 23 -7 17 -14 -3 -24 3 -34
24 l-15 28 -11 -28 c-6 -16 -11 -33 -11 -38 0 -19 -35 -4 -38 16 -2 11 -10 27
-18 36 -24 27 -3 56 37 51 4 -1 5 8 2 18 -3 11 -12 20 -19 20 -8 0 -14 5 -14
11 0 8 -4 8 -14 0 -10 -9 -16 -8 -26 4 -16 20 -60 20 -60 0 0 -13 -31 -21 -62
-16 -5 0 -8 -3 -8 -9 0 -5 -4 -10 -10 -10 -5 0 5 20 22 45 18 25 32 45 33 45
1 0 38 -13 83 -30z m-197 -114 c-12 -14 -4 -49 9 -41 4 3 10 -4 13 -15 3 -11
2 -18 -3 -15 -10 6 -22 -24 -14 -37 3 -5 17 -7 29 -4 13 3 27 2 30 -4 4 -6 -1
-7 -12 -3 -15 6 -16 5 -3 -9 10 -11 17 -12 26 -4 7 6 9 16 6 21 -3 6 2 4 11
-4 18 -15 23 -26 7 -16 -5 3 -10 -2 -10 -12 0 -38 -137 -207 -170 -209 -28 -2
-41 -14 -35 -34 4 -13 -4 -25 -27 -41 -18 -13 -28 -16 -21 -8 8 10 9 20 2 29
-8 13 -10 13 -19 0 -8 -12 -11 -13 -19 -1 -6 9 -11 10 -15 2 -4 -7 -15 -7 -31
-1 -16 6 -27 6 -31 -1 -4 -7 -10 -7 -18 0 -17 15 -29 1 -14 -16 13 -16 -3 -40
-20 -29 -23 14 9 63 117 175 33 34 125 160 144 197 17 33 65 94 74 94 3 0 0
-6 -6 -14z m970 -24 c48 -32 59 -49 59 -92 0 -35 4 -42 28 -51 58 -21 58 -21
30 -31 -16 -5 -28 -16 -28 -24 0 -19 13 -18 44 7 19 15 34 19 56 14 39 -9 33
-16 -37 -50 -55 -28 -58 -28 -100 -13 -41 15 -43 15 -58 -8 -8 -13 -26 -26
-40 -30 -14 -3 -25 -10 -25 -15 0 -14 -58 -11 -88 5 -36 18 -58 45 -66 79 -8
32 0 33 86 13 65 -15 68 -14 93 47 22 54 19 61 -32 76 -92 27 -97 29 -82 48
35 41 117 54 160 25z m-1027 -7 c-4 -8 -8 -15 -10 -15 -2 0 -4 7 -4 15 0 8 4
15 10 15 5 0 7 -7 4 -15z m-57 -87 c-14 -24 -42 -62 -62 -86 -32 -36 -40 -41
-54 -30 -13 10 -14 10 -3 -2 16 -19 15 -33 -2 -27 -9 4 -13 1 -10 -7 7 -18
-184 -206 -210 -206 -4 0 6 11 21 25 15 13 23 25 17 25 -7 0 -15 -7 -18 -16
-4 -9 -13 -14 -22 -10 -8 3 -12 2 -9 -4 3 -6 2 -10 -4 -10 -5 0 -13 5 -17 11
-8 14 16 31 34 24 7 -3 11 -1 8 4 -7 11 159 172 169 163 5 -4 5 -2 2 4 -7 12
36 58 45 49 2 -3 5 1 5 8 0 6 26 47 59 90 52 70 59 76 68 58 6 -15 2 -31 -17
-63z m1203 37 c-18 -19 -35 -33 -38 -31 -4 4 59 65 67 66 3 0 -10 -16 -29 -35z
m55 15 c3 -5 -1 -10 -10 -10 -9 0 -13 5 -10 10 3 6 8 10 10 10 2 0 7 -4 10
-10z m70 -31 c20 -22 20 -22 0 -11 -11 5 -29 20 -40 33 -20 22 -20 22 0 11 11
-5 29 -20 40 -33z m105 20 c0 -5 -7 -9 -15 -9 -9 0 -12 6 -9 15 6 15 24 11 24
-6z m-73 -106 c-2 -21 -4 -6 -4 32 0 39 2 55 4 38 2 -18 2 -50 0 -70z m-84 80
c-20 -7 -15 -19 6 -19 11 0 17 4 14 9 -3 5 4 4 15 -2 28 -15 36 -31 24 -43 -7
-7 -8 -17 -2 -29 9 -15 0 -14 -78 9 -48 14 -89 27 -92 30 -14 11 50 48 86 49
21 0 33 -2 27 -4z m210 -19 l57 -17 -44 -47 c-80 -86 -109 -168 -94 -266 10
-64 43 -129 86 -169 36 -34 122 -65 179 -65 43 0 45 -1 27 -15 -23 -17 -65
-18 -119 -1 -38 12 -41 12 -72 -17 -29 -27 -35 -29 -60 -18 -15 7 -43 25 -61
42 l-33 29 27 35 26 35 -18 60 c-17 53 -22 60 -45 60 -15 0 -41 3 -58 6 l-32
7 7 51 c11 86 15 91 69 91 l48 0 30 58 30 58 -31 32 c-30 31 -31 34 -16 55 9
13 21 21 27 18 7 -2 38 -12 70 -22z m-1243 -70 c0 -8 9 -14 19 -14 11 0 21 -6
23 -12 3 -7 18 -11 35 -10 31 2 50 -18 37 -39 -13 -21 19 -41 55 -35 27 4 31
3 15 -3 -12 -5 -25 -14 -29 -20 -3 -6 -11 -9 -16 -6 -5 4 -9 -2 -9 -11 0 -14
3 -15 12 -6 7 7 19 12 27 12 12 0 11 -3 -3 -13 -15 -11 -16 -15 -3 -25 8 -7
22 -9 31 -6 14 5 14 9 4 23 -12 14 -11 15 5 2 16 -13 16 -15 2 -31 -12 -14
-13 -20 -4 -26 8 -5 10 -3 4 6 -6 10 -4 12 8 7 9 -3 17 -3 19 1 2 5 21 21 43
36 l40 29 -40 -37 c-67 -62 -67 -62 -131 -6 -77 67 -97 64 -40 -6 26 -31 46
-60 46 -66 0 -5 -16 12 -36 39 -20 26 -53 66 -74 88 -25 27 -40 53 -44 80 -4
22 -10 48 -13 59 -3 12 -1 16 6 12 6 -4 11 -14 11 -22z m510 8 c0 -12 -68 -87
-74 -81 -3 2 12 23 32 46 40 46 42 47 42 35z m661 -35 c-13 -13 -31 1 -31 25
0 21 1 21 20 3 13 -12 17 -22 11 -28z m-1197 -2 c7 -30 7 -30 -9 -7 -9 12 -13
27 -10 33 9 13 11 11 19 -26z m-20 -21 c4 -10 1 -14 -6 -12 -15 5 -23 28 -10
28 5 0 13 -7 16 -16z m224 -8 c0 -22 -24 -43 -35 -32 -4 4 27 54 33 56 1 0 2
-11 2 -24z m1349 -3 c51 -24 75 -67 70 -124 -9 -110 -121 -174 -216 -124 -78
40 -79 144 -3 221 47 47 91 55 149 27z m-551 -54 c34 -9 43 -15 40 -28 -3 -9
-8 -28 -12 -43 -7 -34 -78 -78 -149 -95 -27 -6 -50 -11 -51 -10 -15 34 -49 77
-60 77 -28 0 -13 16 37 38 28 13 67 35 86 48 41 27 48 28 109 13z m-592 -14
c-4 -9 0 -15 7 -15 9 0 10 -3 4 -8 -5 -4 -16 -15 -24 -24 -12 -16 -10 -20 9
-36 22 -18 22 -21 9 -70 l-13 -52 -21 20 c-12 11 -30 20 -41 20 -18 -1 -18 -1
-1 -11 24 -14 21 -26 -8 -31 -13 -3 -22 -1 -19 3 3 5 1 9 -4 9 -5 0 -17 21
-27 46 -16 44 -16 46 1 60 37 29 58 37 62 26 4 -12 32 -5 32 9 0 4 -7 6 -15 3
-24 -10 -17 4 18 36 37 34 38 35 31 15z m131 -80 c4 -54 3 -85 -3 -77 -9 13
-17 180 -8 171 3 -2 8 -45 11 -94z m-730 26 c-3 -6 -11 -11 -17 -11 -6 0 -6 6
2 15 14 17 26 13 15 -4z m400 9 c3 -5 2 -10 -4 -10 -5 0 -13 5 -16 10 -3 6 -2
10 4 10 5 0 13 -4 16 -10z m-1700 -70 c5 -19 4 -21 -4 -10 -12 17 -14 10 -5
-14 5 -14 9 -12 23 7 10 12 20 30 24 40 3 9 11 17 18 17 11 0 -16 -50 -58
-107 -29 -40 -30 -52 0 -27 22 18 22 18 4 -1 -10 -12 -31 -20 -49 -20 -44 0
-47 -21 -3 -22 39 -1 75 32 105 99 9 21 19 35 23 32 3 -3 3 3 0 15 -3 12 -1
21 6 21 8 0 11 -15 9 -41 -1 -29 -9 -46 -26 -60 -14 -10 -21 -19 -17 -19 4 0
-10 -14 -31 -31 -27 -21 -45 -28 -61 -24 -22 5 -23 2 -23 -43 0 -26 8 -78 19
-115 l18 -67 -57 0 c-38 0 -62 5 -70 14 -20 25 -40 118 -40 192 0 62 4 76 28
110 37 50 73 70 98 55 17 -10 16 -11 -7 -5 -18 4 -26 1 -26 -8 0 -9 13 -13 38
-13 20 0 35 3 33 7 -2 3 0 9 6 13 5 3 10 13 10 21 0 9 -5 12 -12 8 -7 -5 -8
-3 -3 5 9 16 21 4 30 -29z m1724 -6 c5 4 14 -2 20 -12 12 -23 3 -64 -12 -55
-6 4 -8 0 -4 -10 4 -11 2 -14 -7 -11 -8 3 -17 -8 -24 -28 -10 -30 -11 -26 -10
37 1 42 -3 80 -11 95 l-14 25 26 -24 c14 -12 30 -20 36 -17z m525 26 c15 -5
34 -25 43 -45 19 -40 11 -39 128 -20 90 15 123 9 97 -17 -7 -7 -12 -22 -12
-35 0 -15 -6 -23 -17 -23 -16 -1 -16 -2 1 -15 32 -24 136 -4 136 26 0 10 -5
19 -11 19 -5 0 -8 4 -5 9 4 5 0 12 -6 14 -8 3 -6 6 4 6 11 1 23 -13 33 -35 19
-46 20 -41 -12 -48 -64 -13 -126 -15 -144 -6 -15 9 -17 8 -12 -7 5 -12 2 -15
-10 -10 -9 3 -19 2 -22 -3 -3 -5 -31 -12 -63 -16 -51 -5 -58 -9 -72 -37 -19
-41 -74 -77 -116 -77 -31 0 -94 40 -94 61 0 4 32 18 70 30 l70 21 0 54 c0 51
-2 54 -25 54 -13 0 -47 -5 -75 -11 -28 -6 -54 -9 -56 -6 -14 13 30 85 64 105
41 24 68 27 106 12z m-2119 -10 c3 -5 1 -10 -4 -10 -6 0 -11 5 -11 10 0 6 2
10 4 10 3 0 8 -4 11 -10z m905 -15 c-9 -10 -9 -15 -1 -15 12 0 16 -30 4 -31
-5 0 -16 -2 -26 -4 -14 -3 -17 1 -12 13 5 13 4 14 -6 5 -16 -16 7 -47 28 -39
8 3 11 1 8 -4 -3 -6 0 -10 9 -10 8 0 17 6 19 13 3 6 6 8 6 2 0 -5 -3 -16 -8
-24 -7 -11 -13 -12 -23 -3 -9 7 -19 7 -28 2 -10 -6 -23 -4 -39 6 -13 9 -20 11
-17 5 8 -12 -6 -15 -18 -4 -7 7 92 102 108 103 5 0 3 -7 -4 -15z m1480 0 c0
-10 -10 -15 -27 -15 l-28 1 25 14 c31 18 30 18 30 0z m-429 -22 c-5 -10 -14
-29 -19 -43 -10 -24 -11 -23 -11 12 -1 33 7 45 32 47 4 1 3 -7 -2 -16z m-1161
-31 c0 -5 -5 -13 -12 -20 -9 -9 -8 -15 5 -24 9 -7 28 -28 41 -47 l25 -33 -26
-39 c-28 -42 -51 -54 -33 -16 7 13 1 9 -15 -11 -15 -19 -33 -31 -41 -28 -7 3
-20 -5 -28 -16 -9 -12 -19 -18 -23 -14 -4 4 -2 15 5 24 46 65 54 124 13 102
-11 -5 -24 -10 -29 -10 -15 0 49 71 73 81 13 6 7 7 -20 3 -22 -4 -47 -13 -56
-20 -33 -29 -39 -12 -9 26 37 47 86 72 113 58 9 -5 17 -12 17 -16z m1650 -1
c0 -5 -9 -7 -20 -4 -11 3 -20 7 -20 9 0 2 9 4 20 4 11 0 20 -4 20 -9z m-530
-38 c0 -22 -2 -25 -10 -13 -13 20 -13 40 0 40 6 0 10 -12 10 -27z m170 -11 c0
-13 -18 -25 -67 -43 -37 -13 -71 -25 -75 -27 -4 -2 -8 10 -8 26 0 29 2 30 73
45 39 8 73 15 75 16 1 0 2 -7 2 -17z m-1239 -14 c11 -21 11 -22 -4 -9 -10 7
-17 17 -17 22 0 15 9 10 21 -13z m113 5 c-20 -15 -60 -17 -68 -4 -3 4 6 6 19
3 14 -2 25 0 25 6 0 6 9 10 21 9 19 -1 19 -2 3 -14z m1486 7 c0 -5 -2 -10 -4
-10 -2 0 -12 -3 -22 -7 -16 -6 -17 -5 -4 10 17 19 30 22 30 7z m-1758 -42
c-14 -15 -22 -18 -22 -9 0 15 32 43 39 35 3 -3 -5 -14 -17 -26z m-62 2 c0 -5
-7 -10 -15 -10 -20 0 -65 -22 -65 -32 0 -5 11 -1 25 8 14 9 25 12 25 6 0 -6
-4 -14 -10 -17 -5 -3 -10 -16 -9 -28 1 -21 1 -21 8 2 4 16 15 25 29 26 12 1
25 5 29 10 5 4 -3 4 -17 1 -24 -7 -24 -6 -6 8 26 21 31 20 33 -4 1 -11 -6 -22
-18 -25 -19 -6 -55 -62 -46 -71 2 -3 10 9 17 25 11 27 30 40 66 47 6 1 21 5
33 9 12 4 21 2 21 -4 0 -6 -6 -11 -13 -11 -7 0 -22 -7 -33 -16 -18 -14 -18
-15 4 -4 33 16 38 6 13 -26 -11 -15 -21 -37 -21 -50 0 -13 -9 -28 -21 -34 -17
-10 -25 -7 -50 19 -16 17 -33 31 -37 31 -5 0 -21 13 -36 29 l-29 30 20 33 c20
34 55 58 86 58 9 0 17 -4 17 -10z m990 -28 c1 -15 2 -15 12 2 10 17 12 16 25
-14 7 -19 11 -40 9 -47 -3 -7 1 -13 10 -13 11 0 13 7 8 28 -9 35 0 26 14 -16
7 -21 8 -30 1 -26 -15 9 -101 -19 -107 -35 -4 -11 -7 -10 -13 5 -7 17 -8 17
-8 -3 -1 -13 3 -23 9 -23 5 0 7 -7 4 -15 -4 -9 0 -15 7 -15 10 -1 10 -4 -2
-13 -9 -7 -19 -21 -22 -32 -2 -11 -5 39 -4 110 0 72 2 118 4 103 3 -21 10 -28
26 -28 18 0 19 2 7 10 -8 5 -10 10 -4 10 6 0 11 7 11 15 0 8 -6 15 -14 15 -7
0 -13 5 -13 10 0 19 40 -9 40 -28z m310 -3 c0 -17 -4 -28 -10 -24 -5 3 -8 19
-7 34 3 38 17 29 17 -10z m170 23 c0 -19 -31 -32 -117 -52 -61 -14 -36 16 35
43 82 31 82 31 82 9z m-1212 -17 c-3 -3 -9 2 -12 12 -6 14 -5 15 5 6 7 -7 10
-15 7 -18z m-1019 -160 l13 -20 -7 20 c-24 71 -42 180 -27 171 5 -3 12 -26 15
-52 3 -29 16 -62 36 -90 17 -24 27 -45 23 -45 -57 -9 -60 -8 -76 30 -8 21 -17
67 -20 102 l-6 64 18 -80 c10 -44 23 -89 31 -100z m2640 146 c-12 -17 -28 -27
-35 -24 -8 3 -21 -1 -30 -8 -22 -18 -42 -20 -48 -4 -10 26 52 60 117 64 16 1
16 -2 -4 -28z m-119 5 c0 -2 -7 -6 -15 -10 -8 -3 -15 -1 -15 4 0 6 7 10 15 10
8 0 15 -2 15 -4z m-106 -27 c-3 -5 0 -9 7 -9 25 0 -7 -18 -69 -38 l-63 -21 26
30 c14 17 25 34 25 39 0 5 18 8 40 8 22 0 37 -4 34 -9z m-1770 -40 c14 -17 26
-34 26 -37 0 -4 -27 -24 -59 -45 -79 -51 -208 -94 -333 -112 -101 -14 -103
-14 -125 7 -31 29 -29 38 11 38 60 0 315 101 401 158 41 28 49 27 79 -9z
m1486 -49 c10 -5 29 -10 42 -10 17 0 12 -5 -21 -20 -50 -23 -62 -19 -60 18 0
15 -2 38 -6 52 -6 25 -6 24 10 -2 8 -15 24 -32 35 -38z m310 40 c0 -5 -6 -10
-12 -10 -9 0 -8 -4 2 -10 10 -7 11 -13 4 -17 -5 -5 -10 -18 -10 -31 0 -19 5
-23 23 -19 12 2 20 0 17 -4 -3 -5 3 -9 14 -9 43 0 29 -15 -29 -32 -60 -17 -88
-16 -60 1 10 7 9 10 -3 14 -9 4 -16 2 -16 -3 0 -6 -4 -10 -10 -10 -19 0 -10
20 20 46 31 28 31 49 0 39 -10 -3 -21 -1 -25 5 -3 5 -11 10 -16 10 -6 0 -7 -5
-4 -10 4 -6 1 -9 -7 -8 -8 2 -13 -6 -12 -19 0 -13 -5 -23 -13 -23 -7 0 -13 -4
-13 -10 0 -5 -7 -10 -15 -10 -38 0 14 -49 54 -51 9 0 -2 -7 -23 -15 -32 -11
-41 -12 -48 -2 -5 9 -8 8 -8 -4 0 -10 -1 -18 -2 -18 -2 0 -27 -9 -56 -20 -30
-11 -51 -16 -48 -11 4 5 2 12 -4 16 -5 3 -10 -2 -10 -12 -1 -34 -17 9 -24 62
l-6 51 87 37 c92 39 219 84 241 86 6 1 12 -3 12 -9z m-560 -36 c0 -8 4 -12 10
-9 6 3 7 -1 4 -9 -8 -22 -11 -20 -23 14 -6 18 -6 28 -1 25 6 -4 10 -13 10 -21z
m950 22 c0 -2 -7 -9 -15 -16 -13 -11 -14 -10 -9 4 5 14 24 23 24 12z m-2093
-58 c18 -18 33 -37 33 -42 -1 -16 -76 -69 -145 -104 -153 -76 -342 -130 -467
-134 l-63 -2 53 -3 52 -4 0 -41 c0 -22 7 -55 16 -73 9 -19 14 -42 12 -52 -4
-23 -75 -49 -158 -58 l-65 -7 -24 109 c-13 59 -29 139 -36 177 -7 37 -18 72
-24 76 -13 7 -1 76 12 74 4 0 47 -7 95 -15 73 -11 81 -15 52 -19 -28 -5 -21
-7 40 -13 57 -6 104 -3 190 12 130 23 220 55 312 111 35 22 67 39 73 40 5 0
24 -14 42 -32z m1110 -25 c-3 -10 -5 -2 -5 17 0 19 2 27 5 18 2 -10 2 -26 0
-35z m724 7 c-13 -11 -31 -19 -40 -19 -13 1 -13 2 2 6 9 2 15 9 12 14 -3 5 0
6 8 3 8 -3 18 -1 22 5 3 6 9 11 13 11 4 -1 -4 -10 -17 -20z m-491 -9 c0 -10 3
-40 6 -67 4 -32 2 -44 -4 -36 -5 8 -12 13 -16 13 -3 -1 -16 -1 -28 -1 -22 1
-21 2 5 16 24 13 27 19 22 54 -3 23 -1 40 5 40 6 0 10 -8 10 -19z m535 -1 c-3
-5 -12 -10 -18 -10 -7 0 -6 4 3 10 19 12 23 12 15 0z m-735 -32 c0 -26 -13
-16 -17 13 -2 12 1 18 7 14 5 -3 10 -16 10 -27z m180 -17 c0 -6 -9 -11 -20
-11 -21 0 -24 8 -14 34 5 13 8 13 20 1 8 -7 14 -18 14 -24z m-2302 6 c2 -12
-6 -15 -40 -15 -24 0 -47 -1 -53 -2 -22 -5 -36 1 -33 13 9 25 121 29 126 4z
m50 -10 c2 -10 -2 -16 -10 -15 -14 3 -28 18 -28 31 0 16 35 1 38 -16z m2519 7
c-3 -3 -12 -4 -19 -1 -8 3 -5 6 6 6 11 1 17 -2 13 -5z m-415 -73 c10 -30 16
-56 14 -58 -2 -2 -21 -7 -41 -10 -34 -5 -38 -4 -32 11 4 10 7 40 7 68 0 69 26
63 52 -11z m-2130 24 c5 -6 8 -5 8 3 0 6 12 12 26 12 19 0 25 -5 22 -17 -2
-14 -14 -18 -53 -20 -28 -1 -41 1 -31 4 14 4 16 7 6 13 -7 4 -26 4 -43 -1 -18
-5 -27 -5 -21 0 20 19 74 23 86 6z m116 -22 c-4 -21 -28 -29 -28 -10 0 9 -5
17 -12 19 -6 2 -8 10 -4 16 10 17 48 -5 44 -25z m-168 -3 c0 -5 -8 -10 -17
-10 -15 0 -16 2 -3 10 19 12 20 12 20 0z m118 -30 c-10 -16 -10 -22 4 -32 16
-13 68 -245 68 -303 0 -14 5 -25 11 -25 6 0 8 11 5 28 -3 15 -8 47 -11 72 -4
25 -10 61 -15 80 -5 19 -14 60 -21 90 -6 30 -18 61 -26 68 -8 8 -11 17 -7 21
4 3 9 0 11 -7 4 -10 9 -9 24 4 24 22 29 17 32 -37 1 -24 4 -46 7 -49 8 -7 60
-240 60 -268 0 -55 -57 -36 -122 41 -39 46 -44 59 -64 165 -12 63 -25 125 -28
138 -5 20 -2 23 31 27 21 2 41 4 46 5 4 1 2 -7 -5 -18z m2249 -2 c-3 -8 -6 -5
-6 6 -1 11 2 17 5 13 3 -3 4 -12 1 -19z m-373 -36 c-7 -4 -14 -16 -17 -27 -4
-15 -5 -14 -6 8 -1 20 4 27 17 27 11 0 13 -3 6 -8z m-44 -117 c0 -41 -3 -47
-41 -70 -45 -29 -76 -29 -93 -2 -15 24 -1 44 58 85 66 44 76 42 76 -13z
m-1431 -167 c1 6 7 12 14 12 16 -1 -32 -40 -49 -40 -20 0 -17 27 4 39 13 7 19
6 24 -7 4 -9 7 -11 7 -4z m-380 -20 c12 -32 20 -188 9 -188 -4 0 -8 3 -8 8 -1
4 -7 51 -14 105 -12 91 -6 125 13 75z m511 2 c0 -5 -4 -10 -9 -10 -6 0 -13 5
-16 10 -3 6 1 10 9 10 9 0 16 -4 16 -10z m106 -20 c23 0 26 2 14 10 -24 17 39
0 80 -21 41 -20 86 -93 96 -156 6 -39 5 -41 -26 -52 -50 -17 -59 -14 -101 27
-29 28 -39 45 -39 69 0 27 4 32 28 35 21 2 28 9 30 32 4 36 -10 46 -66 46 -49
0 -86 16 -76 32 5 7 11 6 19 -5 7 -10 25 -17 41 -17z m-419 3 c-9 -2 -15 -9
-12 -14 4 -5 -3 -9 -13 -9 -22 0 -32 -18 -27 -46 2 -11 4 -22 4 -26 1 -5 12
-8 26 -8 32 0 32 -23 0 -44 -13 -9 -26 -16 -29 -16 -2 0 -10 25 -16 56 -9 41
-9 59 -1 67 6 6 11 19 11 29 0 14 8 18 38 17 20 -1 29 -3 19 -6z m120 -19 c-3
-3 -12 -4 -19 -1 -8 3 -5 6 6 6 11 1 17 -2 13 -5z m-267 -17 c17 -13 51 -153
43 -174 -9 -23 -30 -14 -47 21 -18 37 -33 166 -20 166 5 0 16 -6 24 -13z m400
-7 c0 -5 -2 -10 -4 -10 -3 0 -8 5 -11 10 -3 6 -1 10 4 10 6 0 11 -4 11 -10z
m40 0 c0 -5 -4 -10 -9 -10 -6 0 -13 5 -16 10 -3 6 1 10 9 10 9 0 16 -4 16 -10z
m115 0 c-3 -5 -12 -10 -20 -10 -8 0 -17 5 -20 10 -4 6 5 10 20 10 15 0 24 -4
20 -10z m75 -10 c0 -14 -6 -20 -22 -19 -17 1 -19 2 -5 6 9 2 17 11 17 19 0 8
2 14 5 14 3 0 5 -9 5 -20z m-563 -60 c8 -39 10 -67 4 -73 -6 -6 -14 14 -21 49
-6 33 -14 67 -17 78 -3 12 -1 17 8 14 7 -2 19 -33 26 -68z m73 66 c0 -2 -7 -7
-16 -10 -8 -3 -12 -2 -9 4 6 10 25 14 25 6z m207 -22 c-3 -3 -12 -4 -19 -1 -8
3 -5 6 6 6 11 1 17 -2 13 -5z m56 -1 c-7 -2 -19 -2 -25 0 -7 3 -2 5 12 5 14 0
19 -2 13 -5z m-170 -30 c-7 -2 -19 -2 -25 0 -7 3 -2 5 12 5 14 0 19 -2 13 -5z
m291 -8 c25 -19 17 -19 -25 0 -24 10 -28 14 -14 14 11 0 29 -6 39 -14z m46 1
c0 -8 3 -22 6 -30 5 -12 2 -15 -10 -10 -17 7 -23 54 -6 54 6 0 10 -6 10 -14z
m-385 -6 c-3 -5 -10 -10 -16 -10 -5 0 -9 5 -9 10 0 6 7 10 16 10 8 0 12 -4 9
-10z m114 3 c-4 -24 6 -32 49 -39 l47 -8 -76 -7 c-94 -10 -100 -11 -117 -27
-8 -7 -19 -9 -25 -5 -7 4 -6 8 3 11 8 3 20 12 27 21 6 9 16 17 22 17 6 1 18 2
26 3 8 0 12 7 9 15 -3 8 2 16 13 19 10 3 19 5 21 6 1 0 1 -2 1 -6z m-96 -30
c8 -7 -11 -33 -23 -33 -7 0 -7 18 -1 38 2 5 18 2 24 -5z m-303 -38 c-7 -9 -15
-13 -19 -10 -3 3 1 10 9 15 21 14 24 12 10 -5z m245 5 c-3 -5 -13 -10 -21 -10
-8 0 -12 5 -9 10 3 6 13 10 21 10 8 0 12 -4 9 -10z m371 -13 c3 -20 0 -21 -28
-6 -17 9 -18 13 -7 20 19 12 32 6 35 -14z m80 -14 c-10 -11 -19 -7 -22 10 -2
15 0 16 12 6 8 -6 12 -14 10 -16z m-733 3 c4 -9 -2 -12 -16 -11 -29 3 -29 3
-22 15 9 14 32 12 38 -4z m67 -14 c0 -9 14 -31 32 -49 44 -45 23 -41 -32 6
-38 34 -43 41 -31 55 15 18 31 12 31 -12z m45 16 c5 4 5 -1 2 -11 -4 -10 -3
-16 2 -13 5 3 14 -1 21 -10 11 -12 11 -17 1 -27 -10 -9 -18 -6 -37 18 -26 33
-34 66 -11 46 8 -6 18 -7 22 -3z m345 -12 c0 -28 -16 -36 -71 -36 -32 0 -39 3
-39 20 0 13 10 22 33 29 58 17 77 14 77 -13z m115 15 c17 -3 31 -14 33 -24 3
-15 -5 -17 -67 -17 -69 0 -71 1 -71 25 0 22 4 25 38 24 20 -1 50 -4 67 -8z
m-300 -11 c3 -5 13 -7 23 -3 9 3 -1 -7 -23 -23 -22 -15 -42 -28 -45 -27 -3 1
-13 -3 -22 -8 -15 -8 -18 -5 -18 15 0 31 16 42 37 24 14 -11 16 -11 8 1 -6 11
-4 13 8 8 9 -3 19 -2 22 3 3 4 -1 11 -7 13 -9 4 -10 6 -1 6 6 1 14 -3 18 -9z
m-295 -46 c0 -6 -10 -10 -22 -9 -13 1 -15 0 -5 -2 9 -2 17 -9 17 -14 0 -6 -4
-8 -9 -5 -5 3 -8 0 -8 -7 0 -6 -3 -36 -7 -64 -8 -52 -19 -66 -30 -40 -3 6 -3
2 0 -10 4 -18 1 -20 -16 -16 -26 7 -27 43 0 50 11 3 17 9 14 14 -3 5 -10 7
-15 4 -5 -4 -9 2 -9 12 0 20 14 45 24 44 25 -4 30 -1 18 11 -28 28 -3 75 29
55 11 -7 19 -17 19 -23z m665 26 c3 -5 -1 -10 -9 -10 -9 0 -16 5 -16 10 0 6 4
10 9 10 6 0 13 -4 16 -10z m-315 -10 c0 -5 -4 -10 -10 -10 -5 0 -10 5 -10 10
0 6 5 10 10 10 6 0 10 -4 10 -10z m458 -21 c-16 -10 -20 -52 -4 -46 6 3 18 8
27 12 18 7 35 -20 19 -30 -19 -12 -11 -33 10 -28 14 4 20 0 20 -10 0 -20 -20
-27 -42 -15 -16 8 -49 60 -48 73 1 4 -9 15 -22 26 -13 11 -18 18 -11 14 7 -3
17 4 23 15 9 17 14 19 26 9 12 -10 12 -14 2 -20z m-717 -14 c45 -34 47 -37 38
-65 -10 -26 -14 -28 -47 -24 -85 11 -102 15 -102 25 0 20 46 99 57 99 3 0 27
-16 54 -35z m848 -79 l23 -115 44 -23 c24 -13 44 -26 44 -30 0 -11 -84 -10
-114 2 -23 8 -26 15 -26 58 0 59 -20 130 -49 170 -26 37 -26 40 2 45 53 10 51
12 76 -107z m-561 69 c11 -24 11 -25 -26 -24 -33 1 -34 2 -12 9 14 4 18 9 10
10 -8 1 -19 3 -25 5 -5 1 -17 3 -25 4 -11 2 -10 5 5 11 37 16 61 11 73 -15z
m102 0 c0 -21 -5 -25 -31 -25 -29 0 -58 21 -59 43 0 4 20 7 45 7 41 0 45 -2
45 -25z m120 5 c-6 -11 -18 -20 -28 -21 -9 0 -29 -3 -44 -5 -24 -4 -28 -1 -28
21 0 24 3 25 55 25 53 0 55 -1 45 -20z m114 11 c4 -5 -4 -7 -16 -5 -21 4 -21
4 -3 -4 11 -5 26 -7 33 -5 6 3 12 0 12 -6 0 -7 -24 -11 -65 -11 -63 0 -65 1
-55 20 8 15 21 20 50 20 21 0 41 -4 44 -9z m-523 -31 c6 0 7 -4 4 -10 -3 -6 1
-7 9 -4 9 3 13 11 9 18 -4 8 -3 8 6 0 10 -9 8 -20 -8 -49 -25 -48 -35 -126
-22 -190 9 -48 1 -80 -14 -54 -6 8 -4 10 6 4 8 -5 10 -4 6 0 -14 16 -39 15
-33 -1 3 -9 1 -12 -4 -9 -13 8 -13 35 0 35 6 0 10 7 10 15 0 8 -4 15 -10 15
-5 0 -10 -6 -10 -12 0 -21 -20 14 -20 35 0 10 4 16 9 12 17 -10 24 18 8 30
-23 16 -22 39 1 33 13 -4 18 1 20 19 1 14 -2 21 -8 18 -6 -3 -13 0 -16 9 -7
18 14 59 26 51 5 -3 11 -1 15 5 3 5 -1 10 -9 10 -13 0 -14 4 -3 27 9 20 13 23
15 10 2 -9 8 -17 13 -17z m109 -3 c8 -3 3 -5 -11 -4 -18 1 -25 6 -21 15 2 7 8
9 11 4 3 -5 13 -12 21 -15z m470 -4 c0 -9 -70 -56 -75 -51 -1 2 -6 13 -9 25
-6 20 -3 22 36 26 24 2 44 4 46 5 1 1 2 -1 2 -5z m-126 -16 c18 4 26 0 31 -16
13 -44 -17 -56 -34 -13 l-11 27 5 -30 c4 -24 3 -27 -6 -15 -9 12 -10 11 -6 -7
3 -13 1 -25 -4 -28 -4 -3 -7 17 -6 45 1 27 3 46 5 41 1 -4 13 -6 26 -4z m-359
-7 c-3 -5 -13 -10 -21 -10 -8 0 -14 5 -14 10 0 6 9 10 21 10 11 0 17 -4 14
-10z m70 2 c-17 -14 -65 -32 -65 -24 0 16 25 32 49 32 14 0 21 -4 16 -8z m65
-24 c11 -18 20 -36 20 -40 0 -4 -19 -5 -42 -2 -64 7 -88 14 -88 22 0 6 71 47
88 51 1 1 11 -14 22 -31z m64 10 c18 -68 -12 -80 -44 -18 l-20 40 29 0 c21 0
30 -6 35 -22z m36 5 c0 -10 3 -28 6 -40 5 -17 2 -23 -10 -23 -12 0 -16 10 -16
40 0 22 5 40 10 40 6 0 10 -8 10 -17z m268 -52 c7 -33 18 -62 25 -64 6 -3 -14
-6 -46 -6 -43 -1 -58 2 -54 12 2 6 0 25 -4 42 -8 25 -5 33 19 52 15 12 32 22
37 23 6 0 17 -27 23 -59z m-524 33 c27 -10 20 -53 -10 -60 -14 -4 -30 -2 -36
4 -14 14 -1 62 16 62 8 0 21 -3 30 -6z m-201 -20 c44 -6 47 -8 47 -36 0 -26
-6 -32 -57 -54 -66 -30 -73 -25 -73 54 0 46 2 53 18 48 9 -3 38 -8 65 -12z
m756 -54 c0 -8 -7 1 -14 20 -18 46 -17 64 0 25 8 -16 14 -37 14 -45z m-119 4
c0 -23 -5 -34 -14 -34 -20 0 -32 60 -15 71 20 12 29 1 29 -37z m190 14 c0 -16
-3 -19 -11 -11 -6 6 -8 16 -5 22 11 17 16 13 16 -11z m-510 -14 c22 -15 43
-24 46 -21 3 3 -8 13 -25 22 -41 21 -39 25 7 18 48 -7 57 -16 40 -42 -21 -34
-75 -28 -123 14 l-40 34 28 1 c15 0 45 -12 67 -26z m110 6 c0 -5 -4 -10 -10
-10 -5 0 -10 5 -10 10 0 6 5 10 10 10 6 0 10 -4 10 -10z m30 0 c0 -5 -4 -10
-10 -10 -5 0 -10 5 -10 10 0 6 5 10 10 10 6 0 10 -4 10 -10z m-284 -27 c-3 -8
-6 -17 -6 -19 0 -2 -6 -4 -14 -4 -8 0 -13 9 -12 23 1 18 6 23 19 19 11 -3 16
-10 13 -19z m86 -21 c-28 -4 -27 -4 -37 27 l-7 24 33 -24 c33 -23 33 -24 11
-27z m321 28 c4 -16 0 -20 -18 -20 -18 0 -22 4 -18 20 3 11 11 20 18 20 7 0
15 -9 18 -20z m-369 -6 c4 -9 4 -19 2 -21 -8 -8 -26 8 -26 23 0 19 16 18 24
-2z m-343 -3 c7 11 9 9 9 -6 0 -11 -4 -26 -9 -33 -7 -11 -10 -10 -15 3 -3 9
-6 24 -5 33 0 12 2 13 6 3 5 -11 7 -11 14 0z m595 -17 c10 -38 -17 -61 -51
-46 -42 20 -27 72 22 72 16 0 25 -8 29 -26z m-558 -9 c-3 -13 -2 -23 1 -20 4
2 13 -11 21 -28 7 -18 18 -35 24 -39 6 -4 7 -10 4 -14 -4 -3 -14 1 -23 10 -9
9 -25 16 -36 16 -10 0 -19 2 -19 4 0 2 -3 12 -7 22 -4 12 -3 15 6 10 9 -6 12
-2 10 10 -2 20 9 54 18 54 3 0 3 -11 1 -25z m142 -26 c0 -29 -7 -50 -24 -70
l-25 -29 -31 46 c-18 25 -30 47 -28 49 6 6 92 45 101 45 4 0 7 -18 7 -41z
m536 -1 c-1 -35 5 -40 101 -81 33 -14 50 -26 45 -33 -6 -10 -38 6 -190 95 -24
14 -2 42 39 50 4 0 6 -13 5 -31z m171 26 c-3 -3 -12 -4 -19 -1 -8 3 -5 6 6 6
11 1 17 -2 13 -5z m83 -4 c0 -5 -4 -10 -10 -10 -5 0 -10 5 -10 10 0 6 5 10 10
10 6 0 10 -4 10 -10z m-679 -42 c-3 -34 -5 -39 -12 -23 -12 31 -10 65 4 65 9
0 11 -13 8 -42z m82 2 l16 -40 -40 -21 c-42 -21 -63 -18 -55 9 2 10 7 34 11
55 5 30 10 37 29 37 18 0 27 -9 39 -40z m83 23 l26 -17 -34 -17 c-18 -10 -35
-18 -38 -19 -6 0 -40 54 -40 64 0 13 62 5 86 -11z m54 8 c0 -18 -17 -20 -36
-6 -18 14 -18 14 9 15 15 0 27 -4 27 -9z m300 -47 c77 -33 76 -32 64 -43 -11
-11 -154 53 -154 69 0 7 6 10 13 7 6 -3 41 -17 77 -33z m-287 3 c-28 -48 -66
-97 -76 -97 -11 0 -44 58 -36 64 33 23 83 44 96 39 12 -5 14 -3 8 7 -5 9 -4
11 4 6 6 -4 8 -13 4 -19z m308 -99 l24 -16 -33 -14 c-18 -8 -30 -17 -27 -20 3
-2 -4 -13 -15 -23 -11 -10 -20 -13 -20 -7 0 7 -7 12 -15 12 -9 0 -12 -6 -9
-15 4 -8 1 -15 -5 -15 -6 0 -11 5 -11 11 0 6 -20 42 -45 80 -37 57 -43 73 -35
89 10 19 14 18 89 -23 42 -23 88 -49 102 -59z m55 93 c-3 -5 -15 -7 -26 -4
-28 7 -25 13 6 13 14 0 23 -4 20 -9z m274 -1 c22 -14 8 -21 -53 -27 -56 -6
-134 3 -123 15 4 3 39 9 79 12 39 4 74 8 77 8 3 1 12 -2 20 -8z m-632 -30 c-7
-10 -14 -17 -17 -15 -4 4 18 35 25 35 2 0 -1 -9 -8 -20z m-330 -22 c6 -18 13
-41 17 -52 8 -17 7 -17 -24 -1 -40 20 -48 40 -26 65 10 11 19 20 21 20 2 0 7
-15 12 -32z m756 5 c-9 -38 -21 -50 -36 -35 -9 9 -8 12 6 12 9 0 14 5 11 10
-4 6 -1 17 5 25 18 22 21 18 14 -12z m-904 0 c0 5 5 5 11 1 8 -4 7 -9 -2 -15
-13 -8 -29 6 -29 26 0 6 5 3 10 -5 5 -8 10 -11 10 -7z m370 -52 c0 -4 -17 -13
-37 -19 -31 -10 -38 -9 -49 6 -19 28 -17 33 23 57 l38 23 12 -30 c7 -17 13
-34 13 -37z m760 44 c0 -11 -13 -15 -52 -15 -29 0 -77 -3 -105 -6 -49 -6 -53
-5 -53 15 0 20 4 21 105 21 87 0 105 -3 105 -15z m-1022 -50 c20 -19 31 -37
28 -47 -2 -10 1 -18 7 -18 6 0 8 -2 5 -5 -3 -3 -13 -2 -22 1 -14 5 -15 9 -4
16 9 7 6 8 -11 4 -30 -6 -70 12 -51 24 19 11 1 32 -21 25 -11 -4 -19 -2 -19 5
0 6 5 8 10 5 6 -3 10 -1 10 5 0 6 5 8 10 5 14 -9 12 8 -2 25 -19 21 18 -7 60
-45z m509 -17 c47 -82 46 -83 -35 -94 l-52 -7 0 62 c0 43 5 70 18 86 9 14 19
25 22 25 3 0 25 -33 47 -72z m-383 46 c3 -8 2 -12 -4 -9 -6 3 -10 10 -10 16 0
14 7 11 14 -7z m276 -12 c0 -4 -8 -12 -19 -19 -17 -11 -18 -10 -7 12 9 21 26
25 26 7z m363 -21 c4 0 2 -11 -4 -23 -7 -13 -14 -18 -16 -11 -3 7 -11 9 -19 6
-9 -3 -12 -13 -8 -25 3 -10 0 -26 -7 -34 -10 -13 -14 -12 -33 3 -12 10 -18 14
-14 9 4 -5 3 -15 -4 -23 -6 -7 -8 -16 -5 -20 8 -7 -11 -33 -24 -33 -5 0 -6 7
-3 15 4 9 0 15 -10 15 -9 0 -16 -8 -16 -19 0 -25 -58 -48 -67 -26 -8 21 -35
19 -31 -2 5 -28 -38 -30 -45 -2 -5 19 -8 20 -21 10 -9 -8 -13 -17 -10 -22 3
-5 -4 -9 -15 -9 -11 0 -25 9 -31 20 -13 24 -30 26 -30 5 0 -16 -17 -19 -44 -9
-8 3 -12 12 -9 20 3 8 1 14 -5 14 -6 0 -12 -5 -14 -11 -5 -16 -48 -1 -48 17 0
8 6 14 13 14 6 0 3 6 -7 12 -15 8 -21 8 -24 0 -5 -16 -27 -15 -41 2 -9 10 -8
15 4 19 9 4 12 13 9 22 -5 13 0 12 27 -5 83 -50 208 -72 294 -49 22 6 47 11
57 13 23 3 94 52 124 85 22 25 35 29 77 22z m-355 -62 l-3 -51 -41 6 c-22 3
-54 10 -70 17 l-29 12 26 7 c15 4 44 19 65 34 21 14 42 26 47 26 4 0 6 -23 5
-51z m-150 11 c-18 -29 -31 -9 -19 27 1 1 8 0 16 -3 11 -5 12 -10 3 -24z m42
6 c0 -3 -4 -8 -10 -11 -5 -3 -10 -1 -10 4 0 6 5 11 10 11 6 0 10 -2 10 -4z
m-195 -36 c3 -5 1 -10 -4 -10 -6 0 -11 5 -11 10 0 6 2 10 4 10 3 0 8 -4 11
-10z"/>
<path d="M2960 2806 c0 -15 18 -31 26 -23 7 7 -7 37 -17 37 -5 0 -9 -6 -9 -14z"/>
<path d="M3707 2609 c7 -7 15 -10 18 -7 3 3 -2 9 -12 12 -14 6 -15 5 -6 -5z"/>
<path d="M3778 2558 c5 -5 16 -8 23 -6 8 3 3 7 -10 11 -17 4 -21 3 -13 -5z"/>
<path d="M3883 2424 c-7 -19 11 -39 27 -29 9 6 8 10 -4 17 -9 5 -14 13 -11 19
4 5 4 9 0 9 -3 0 -8 -7 -12 -16z"/>
<path d="M3155 2310 c-3 -5 -2 -10 4 -10 5 0 13 5 16 10 3 6 2 10 -4 10 -5 0
-13 -4 -16 -10z"/>
<path d="M4264 2314 c-18 -14 -18 -15 4 -4 12 6 22 13 22 15 0 8 -5 6 -26 -11z"/>
<path d="M2950 2230 c0 -4 -9 -16 -20 -28 -14 -14 -16 -23 -8 -28 13 -9 40 25
31 39 -4 6 0 8 10 4 8 -3 17 0 20 6 3 7 -3 13 -14 13 -11 0 -19 -3 -19 -6z"/>
<path d="M4434 2461 c0 -11 5 -17 13 -14 7 3 13 11 13 19 0 8 -6 14 -13 14 -7
0 -13 -8 -13 -19z"/>
<path d="M4459 2438 c-11 -8 -11 -9 2 -5 9 3 22 0 28 -6 6 -6 13 -9 15 -6 11
11 -31 27 -45 17z"/>
<path d="M3499 2298 c14 -19 32 -15 30 5 0 8 -2 8 -6 -1 -4 -10 -8 -10 -21 0
-15 12 -16 11 -3 -4z"/>
<path d="M4885 2320 c-12 -4 -34 -26 -49 -49 -24 -34 -28 -48 -23 -82 8 -59
40 -89 95 -89 38 0 50 5 83 39 33 33 39 45 39 81 0 34 -6 48 -34 76 -35 35
-68 42 -111 24z m63 -17 c2 -7 -1 -13 -8 -13 -6 0 -8 5 -4 11 4 7 1 10 -7 7
-8 -3 -13 -11 -11 -18 2 -7 -3 -10 -11 -7 -18 7 -49 -18 -63 -51 -11 -23 -12
-24 -13 -6 -1 21 43 77 69 87 22 8 43 4 48 -10z m38 -15 c12 -14 13 -18 3 -10
-9 6 -18 10 -21 7 -2 -3 -5 2 -5 10 0 19 0 19 23 -7z m-73 -175 c-7 -2 -19 -2
-25 0 -7 3 -2 5 12 5 14 0 19 -2 13 -5z"/>
<path d="M1825 2142 c-15 -10 -38 -42 -32 -42 3 0 13 7 21 16 15 14 16 14 16
-4 0 -11 7 -23 16 -26 8 -3 12 -2 9 4 -3 6 1 10 10 10 12 0 15 -5 11 -17 -4
-11 1 -8 13 7 24 31 19 41 -22 37 -21 -1 -31 2 -29 11 2 14 1 14 -13 4z"/>
<path d="M1900 2080 c-6 -11 -8 -20 -6 -20 3 0 10 9 16 20 6 11 8 20 6 20 -3
0 -10 -9 -16 -20z"/>
<path d="M3660 2130 c-11 -7 -11 -10 -2 -10 7 0 10 -4 7 -10 -3 -5 -2 -10 4
-10 5 0 9 9 8 20 -1 11 -1 20 -2 20 0 0 -7 -5 -15 -10z"/>
<path d="M4307 2029 c-5 -20 -5 -20 14 -3 23 20 23 24 5 24 -7 0 -16 -9 -19
-21z"/>
<path d="M4269 2023 c-13 -16 -12 -17 4 -4 9 7 17 15 17 17 0 8 -8 3 -21 -13z"/>
<path d="M2827 1928 c-10 -17 -16 -33 -13 -35 2 -3 12 9 21 27 21 41 15 48 -8
8z"/>
<path d="M3706 1955 c-9 -26 -7 -32 5 -12 6 10 9 21 6 23 -2 3 -7 -2 -11 -11z"/>
<path d="M3646 1932 c-3 -5 1 -9 9 -9 8 0 15 4 15 9 0 4 -4 8 -9 8 -6 0 -12
-4 -15 -8z"/>
<path d="M4040 1851 c0 -5 7 -11 14 -14 10 -4 13 -1 9 9 -6 15 -23 19 -23 5z"/>
<path d="M4095 1791 c-3 -6 6 -16 21 -21 20 -8 29 -8 34 1 6 8 9 8 12 -1 3 -9
8 -8 17 4 12 14 10 16 -17 16 -17 0 -37 3 -45 6 -8 3 -18 1 -22 -5z"/>
<path d="M4130 1740 c-13 -9 -13 -10 0 -10 8 0 22 5 30 10 13 9 13 10 0 10 -8
0 -22 -5 -30 -10z"/>
<path d="M1590 1751 c0 -5 9 -7 20 -4 11 3 20 7 20 9 0 2 -9 4 -20 4 -11 0
-20 -4 -20 -9z"/>
<path d="M1668 1753 c7 -3 16 -2 19 1 4 3 -2 6 -13 5 -11 0 -14 -3 -6 -6z"/>
<path d="M1836 1633 c-6 -14 -5 -15 5 -6 7 7 10 15 7 18 -3 3 -9 -2 -12 -12z"/>
<path d="M1780 1429 c0 -5 5 -7 10 -4 6 3 10 8 10 11 0 2 -4 4 -10 4 -5 0 -10
-5 -10 -11z"/>
<path d="M1900 1280 c-9 -6 -10 -10 -3 -10 6 0 15 5 18 10 8 12 4 12 -15 0z"/>
<path d="M3589 1502 c11 -8 10 -11 -5 -15 -18 -4 -18 -5 1 -6 15 -1 17 -3 7
-10 -11 -7 -10 -9 3 -15 13 -5 16 -1 13 21 -2 14 -10 28 -18 30 -12 4 -13 3
-1 -5z"/>
<path d="M3546 1441 c-3 -4 6 -6 19 -3 14 2 25 6 25 8 0 8 -39 4 -44 -5z"/>
<path d="M3497 1429 c7 -7 15 -10 18 -7 3 3 -2 9 -12 12 -14 6 -15 5 -6 -5z"/>
<path d="M2479 1033 c-13 -16 -12 -17 4 -4 16 13 21 21 13 21 -2 0 -10 -8 -17
-17z"/>
<path d="M1860 941 c0 -6 4 -13 10 -16 6 -3 7 1 4 9 -7 18 -14 21 -14 7z"/>
<path d="M2196 835 c4 -8 8 -15 10 -15 2 0 4 7 4 15 0 8 -4 15 -10 15 -5 0 -7
-7 -4 -15z"/>
<path d="M2378 623 c7 -3 16 -2 19 1 4 3 -2 6 -13 5 -11 0 -14 -3 -6 -6z"/>
<path d="M2405 550 c-3 -5 -2 -10 4 -10 5 0 13 5 16 10 3 6 2 10 -4 10 -5 0
-13 -4 -16 -10z"/>
<path d="M2340 525 c0 -8 2 -15 4 -15 2 0 6 7 10 15 3 8 1 15 -4 15 -6 0 -10
-7 -10 -15z"/>
<path d="M7234 3104 c-18 -14 -18 -15 4 -4 12 6 22 13 22 15 0 8 -5 6 -26 -11z"/>
<path d="M4108 3073 c6 -2 18 -2 25 0 6 3 1 5 -13 5 -14 0 -19 -2 -12 -5z"/>
<path d="M4221 3064 c0 -11 3 -14 6 -6 3 7 2 16 -1 19 -3 4 -6 -2 -5 -13z"/>
<path d="M5410 3066 c0 -10 -14 -16 -42 -19 l-43 -4 48 -1 c41 -2 47 1 47 18
0 11 -2 20 -5 20 -3 0 -5 -6 -5 -14z"/>
<path d="M3788 3063 c6 -2 18 -2 25 0 6 3 1 5 -13 5 -14 0 -19 -2 -12 -5z"/>
<path d="M4048 3063 c6 -2 18 -2 25 0 6 3 1 5 -13 5 -14 0 -19 -2 -12 -5z"/>
<path d="M7155 3060 c-3 -6 1 -7 9 -4 18 7 21 14 7 14 -6 0 -13 -4 -16 -10z"/>
<path d="M3883 3053 c9 -2 23 -2 30 0 6 3 -1 5 -18 5 -16 0 -22 -2 -12 -5z"/>
<path d="M3973 3053 c9 -2 23 -2 30 0 6 3 -1 5 -18 5 -16 0 -22 -2 -12 -5z"/>
<path d="M4293 3022 c-20 -3 -23 -10 -23 -43 0 -37 2 -40 23 -33 30 9 29 7 25
45 -3 29 -6 34 -25 31z m17 -37 c0 -16 -6 -25 -15 -25 -9 0 -15 9 -15 25 0 16
6 25 15 25 9 0 15 -9 15 -25z"/>
<path d="M5338 3023 c12 -2 32 -2 45 0 12 2 2 4 -23 4 -25 0 -35 -2 -22 -4z"/>
<path d="M4360 2988 c-6 -18 -14 -66 -17 -105 -5 -67 -4 -73 13 -72 11 0 13 3
7 6 -17 6 -16 75 1 143 16 62 14 77 -4 28z"/>
<path d="M4210 2961 c0 -36 -2 -39 -22 -33 -20 5 -21 4 -9 -11 11 -14 11 -17
0 -21 -118 -37 -216 -56 -284 -57 l-80 -1 55 -9 c58 -10 113 -2 231 32 36 10
80 19 98 19 l31 0 0 60 c0 33 -4 60 -10 60 -5 0 -10 -18 -10 -39z"/>
<path d="M6105 2949 c-33 -11 -80 -36 -104 -55 -24 -19 -47 -34 -51 -34 -10 0
-50 -95 -50 -117 1 -10 10 4 20 31 20 51 30 63 92 110 52 39 168 76 236 76
138 0 271 -122 272 -247 0 -25 5 -43 11 -43 19 0 1 100 -28 152 -55 100 -141
148 -266 148 -46 -1 -94 -8 -132 -21z"/>
<path d="M4513 2865 c0 -38 2 -53 4 -32 2 20 2 52 0 70 -2 17 -4 1 -4 -38z"/>
<path d="M3727 2879 c7 -7 15 -10 18 -7 3 3 -2 9 -12 12 -14 6 -15 5 -6 -5z"/>
<path d="M4305 2830 c3 -5 8 -10 11 -10 2 0 4 5 4 10 0 6 -5 10 -11 10 -5 0
-7 -4 -4 -10z"/>
<path d="M4282 2814 c10 -10 20 -16 22 -13 3 3 -5 11 -17 18 -21 13 -21 12 -5
-5z"/>
<path d="M6170 2819 c-37 -15 -88 -68 -100 -105 -8 -23 -8 -44 -1 -71 11 -40
40 -87 41 -66 0 6 -4 15 -10 18 -19 12 -32 85 -20 120 12 37 65 82 112 96 101
29 210 -90 164 -180 -10 -18 -38 -43 -67 -60 -28 -16 -47 -31 -41 -34 9 -7 33
9 91 60 33 29 36 35 35 87 0 48 -4 60 -30 87 -50 53 -115 71 -174 48z"/>
<path d="M4401 2806 c2 -2 24 -6 49 -9 30 -4 38 -3 25 3 -19 8 -83 14 -74 6z"/>
<path d="M911 2789 c-13 -5 -45 -28 -71 -52 -26 -23 -78 -57 -114 -76 -41 -20
-72 -43 -78 -57 -6 -13 -15 -24 -20 -24 -17 0 -48 -41 -48 -62 0 -37 55 -142
89 -171 18 -15 43 -30 57 -33 29 -8 30 -9 2 -45 -13 -16 -33 -41 -45 -57 -12
-16 -42 -39 -67 -53 -65 -34 -81 -84 -102 -317 -8 -98 17 -161 74 -183 21 -8
22 -13 22 -123 0 -113 0 -114 25 -120 18 -5 25 -13 25 -31 0 -30 -14 -39 -30
-20 -16 20 -49 19 -57 -1 -3 -10 8 -29 31 -53 40 -41 40 -41 26 -93 -10 -35
-12 -37 -35 -26 -14 6 -25 15 -25 20 0 12 24 10 40 -5 12 -10 12 -9 1 6 -16
21 -51 23 -51 2 0 -9 11 -21 25 -27 14 -6 25 -15 25 -20 0 -5 13 -7 28 -3 l29
6 6 -113 c4 -62 7 -159 7 -215 0 -109 0 -109 -48 -97 -19 5 -22 11 -17 31 8
32 -17 40 -61 19 -18 -9 -50 -23 -69 -32 -21 -11 -47 -15 -69 -11 -37 6 -51 0
-37 -17 4 -6 11 -20 15 -31 6 -16 5 -18 -5 -8 -22 22 -28 14 -25 -35 2 -28 -2
-55 -10 -67 -25 -35 -15 -83 26 -130 20 -23 35 -121 16 -107 -16 13 -76 32
-75 24 5 -29 -3 -42 -25 -42 -41 0 -58 -10 -45 -26 9 -12 8 -14 -9 -11 -11 2
-28 9 -37 17 -15 12 -19 12 -30 -3 -17 -24 -40 -21 -59 8 -10 15 -26 25 -39
25 -20 -1 -21 -2 -4 -14 24 -19 21 -35 -9 -46 -18 -7 -31 -7 -39 0 -7 6 -15 7
-18 3 -3 -4 -6 -72 -6 -150 l-2 -143 181 0 c118 0 179 3 175 10 -3 6 1 10 9
10 9 0 22 13 31 29 8 16 25 33 37 37 22 7 22 7 3 14 -33 12 -40 11 -40 -7 0
-10 -8 -19 -17 -21 -21 -4 -25 30 -5 45 18 15 57 23 57 12 0 -5 5 -9 11 -9 6
0 9 7 5 15 -3 8 1 35 9 60 l13 46 -31 14 -32 14 30 -5 c26 -5 27 -4 12 6 -10
7 -27 10 -38 7 -10 -3 -19 0 -19 5 0 6 14 8 34 5 43 -7 96 23 96 54 0 20 -4
21 -44 17 -39 -5 -45 -3 -50 16 -13 47 -7 73 20 85 28 12 56 4 33 -10 -9 -5
-4 -8 16 -6 28 2 29 1 26 -36 l-3 -39 33 31 c18 18 39 29 47 26 7 -3 19 -5 26
-5 7 0 25 -11 40 -25 31 -28 46 -32 46 -11 0 15 36 46 53 46 5 0 7 -6 4 -14
-3 -7 0 -19 6 -25 16 -16 47 -14 47 4 0 9 10 15 26 15 24 0 24 -1 10 -22 -20
-28 -20 -54 -1 -62 18 -6 20 -26 3 -26 -6 0 -19 6 -27 13 -9 7 -35 21 -58 29
-36 14 -43 14 -43 2 0 -8 4 -14 10 -14 5 0 21 -12 35 -26 20 -20 24 -29 15
-38 -9 -8 -14 -8 -17 2 -5 14 -41 16 -61 3 -9 -5 -22 0 -38 16 -28 28 -59 19
-66 -21 -7 -33 1 -42 45 -61 42 -18 48 -42 12 -51 -48 -12 -50 -50 -3 -58 7
-1 24 -6 37 -10 18 -6 20 -10 10 -17 -7 -4 -14 -22 -14 -38 -1 -28 2 -31 32
-31 35 0 53 17 29 26 -9 3 -13 10 -10 15 3 5 -3 9 -13 10 -10 0 -13 3 -5 6 6
2 12 11 12 19 0 8 5 14 11 14 15 0 39 26 39 43 0 16 -45 12 -68 -6 -9 -7 -12
0 -12 32 0 34 3 41 19 41 11 0 27 7 35 16 15 14 16 14 16 -3 1 -17 1 -17 11
-1 9 17 12 16 37 -7 21 -20 29 -22 37 -12 6 7 22 20 36 29 25 16 27 16 37 -5
6 -12 13 -39 17 -60 6 -36 5 -38 -14 -27 -14 7 -21 7 -21 0 0 -5 5 -10 12 -10
6 0 8 -3 4 -7 -4 -5 -14 1 -22 11 -7 11 -17 17 -20 13 -13 -13 18 -36 57 -42
60 -10 120 21 93 48 -4 3 -21 0 -39 -8 l-33 -13 -4 53 c-1 29 0 51 5 48 4 -2
7 3 7 11 0 18 34 17 68 -2 22 -13 47 -8 37 8 -10 16 23 18 45 3 14 -10 25 -12
31 -6 15 15 -1 43 -28 50 -14 3 -40 21 -58 40 -24 26 -34 31 -38 20 -3 -8 -21
-16 -41 -19 -19 -2 -32 0 -30 4 3 4 0 8 -6 8 -6 0 -8 5 -5 10 3 6 1 10 -5 10
-6 0 -8 5 -5 10 3 6 -4 10 -18 10 -14 0 -31 7 -38 17 -13 15 -12 15 8 5 26
-14 44 -16 23 -2 -13 8 -13 11 -1 19 11 7 10 14 -7 39 -21 28 -21 30 -3 46 9
9 26 16 37 16 17 1 17 2 3 10 -11 7 -26 5 -48 -6 -17 -8 -38 -14 -47 -12 -13
2 -12 7 6 26 11 12 17 22 13 22 -5 0 -8 15 -8 32 5 131 5 132 17 120 16 -16
38 -15 38 1 0 8 -9 22 -20 32 -19 17 -20 27 -15 109 7 121 45 477 52 496 13
31 32 -216 38 -490 3 -157 8 -295 11 -307 2 -13 13 -23 27 -25 44 -6 239 11
253 23 37 30 2 66 -80 84 l-29 6 6 241 c4 133 7 315 7 405 0 144 2 163 16 163
14 0 16 7 11 45 -6 42 -5 45 16 45 13 0 39 14 57 30 27 24 35 40 40 78 11 94
-61 403 -110 473 -10 14 -42 38 -71 54 -63 34 -99 64 -99 82 0 7 -6 13 -12 13
-7 0 -2 11 12 23 39 34 60 69 60 99 0 51 -53 221 -77 250 -10 11 -11 18 -4 23
24 14 7 107 -23 127 -15 10 -46 9 -75 -3z m33 -108 c-4 -20 -7 -39 -6 -43 1
-3 -5 -8 -12 -11 -11 -5 -11 2 0 40 8 26 15 62 16 82 l1 36 4 -34 c3 -19 1
-51 -3 -70z m-50 52 c-10 -58 -42 -139 -62 -155 -24 -21 -92 -31 -92 -13 0 7
-6 15 -14 18 -8 3 -13 -1 -12 -11 0 -10 -7 -17 -19 -18 -15 -1 -20 5 -20 25 0
34 13 54 32 47 8 -3 11 -2 8 3 -3 6 21 24 54 41 32 17 73 47 92 66 18 19 34
34 36 34 2 0 1 -17 -3 -37z m29 -16 c-3 -20 -10 -37 -15 -37 -6 0 -7 7 -4 16
3 9 6 30 6 47 0 20 3 28 10 21 5 -5 7 -26 3 -47z m66 -43 c-12 -13 -27 -24
-33 -23 -6 0 -5 3 2 6 6 2 9 10 6 15 -5 7 -2 8 6 3 8 -5 11 -3 8 6 -3 8 2 19
11 26 26 19 26 -6 0 -33z m24 -51 c29 -56 30 -73 7 -73 -13 0 -28 -12 -41 -34
-20 -34 -65 -53 -84 -35 -24 24 -95 -3 -95 -37 0 -7 -8 -15 -17 -18 -14 -4
-14 -4 2 -3 11 0 31 -5 43 -12 34 -18 68 -6 80 28 11 32 53 46 86 29 10 -5 31
-7 47 -4 27 5 28 3 35 -39 13 -88 -53 -146 -169 -149 -71 -1 -143 25 -153 56
-3 11 -17 23 -30 28 -29 11 -41 37 -25 53 9 9 17 8 32 -1 12 -8 24 -11 27 -7
4 3 0 10 -8 15 -11 7 -38 82 -40 113 0 4 13 7 28 7 48 0 124 28 187 69 33 22
63 40 67 40 4 1 14 -11 21 -26z m-393 -84 c-11 -8 -12 -12 -2 -16 6 -2 10 -8
7 -12 -5 -9 38 -6 53 3 9 6 39 -21 31 -28 -2 -2 -17 -8 -34 -13 -16 -6 -37
-14 -45 -17 -12 -5 -19 3 -29 29 -11 32 -11 39 5 56 9 10 20 17 23 14 3 -4 -1
-11 -9 -16z m420 -8 c0 -20 -20 -61 -30 -61 -13 0 -13 26 0 51 11 20 30 26 30
10z m-380 -11 c0 -5 -2 -10 -4 -10 -3 0 -8 5 -11 10 -3 6 -1 10 4 10 6 0 11
-4 11 -10z m188 -71 c-7 -20 -14 -27 -20 -21 -6 6 -6 17 1 31 18 32 31 25 19
-10z m-128 2 c0 -10 -9 -21 -21 -24 -31 -8 -22 -58 14 -75 15 -7 27 -18 27
-23 0 -18 -76 32 -93 61 -24 40 -21 49 16 65 44 19 57 18 57 -4z m65 -160 c11
-18 108 -32 158 -22 56 10 59 -2 7 -36 -37 -25 -53 -24 -137 13 -31 13 -53 29
-53 38 0 18 15 21 25 7z m97 -84 c16 -6 16 -9 2 -52 -9 -25 -18 -45 -21 -45
-30 0 -103 88 -103 126 l0 23 53 -23 c28 -12 60 -25 69 -29z m107 -73 c-6 -8
-14 -14 -18 -14 -11 0 -54 84 -45 87 5 2 23 11 39 21 l30 19 3 -49 c2 -28 -2
-56 -9 -64z m73 47 c6 -17 5 -28 -3 -35 -9 -8 -10 -7 -6 7 4 11 1 17 -8 17 -7
0 -17 4 -20 10 -3 6 1 7 9 4 9 -3 16 -1 16 5 0 6 -7 11 -15 11 -8 0 -15 2 -15
4 0 2 -3 13 -7 23 -6 16 -4 16 16 -2 13 -11 27 -31 33 -44z m-146 -18 c-4 -10
-4 -14 0 -10 4 4 13 -1 19 -10 17 -22 -8 -51 -29 -34 -14 12 -9 71 6 71 6 0 7
-8 4 -17z m269 -59 c26 -34 31 -49 18 -57 -5 -2 -3 -2 4 -1 14 4 37 -61 29
-82 -3 -9 -1 -12 4 -9 6 3 10 3 10 -2 0 -4 3 -19 6 -33 4 -19 3 -22 -5 -10 -6
8 -20 15 -31 15 -11 0 -25 7 -30 15 -7 10 -10 11 -10 3 0 -7 -4 -13 -8 -13 -9
0 -32 102 -32 143 0 24 -9 32 -32 28 -13 -2 -9 11 6 23 13 10 13 13 0 24 -11
10 -14 10 -14 0 0 -14 -20 10 -20 25 0 16 81 -38 105 -69z m-347 7 c12 -7 26
-10 31 -7 5 3 14 -1 21 -9 9 -11 10 -36 4 -97 l-9 -83 -27 47 c-24 41 -89 194
-88 208 1 3 11 -7 23 -21 12 -15 32 -32 45 -38z m152 -63 l-13 -51 -14 39
c-21 58 -20 67 7 74 32 8 35 0 20 -62z m-35 -41 c10 -35 11 -55 4 -80 -6 -17
-13 -38 -15 -46 -4 -12 -7 -12 -21 2 -12 12 -16 33 -15 88 3 125 16 135 47 36z
m75 63 c0 -5 -4 -10 -10 -10 -5 0 -10 5 -10 10 0 6 5 10 10 10 6 0 10 -4 10
-10z m34 -9 c-18 -11 -39 -30 -49 -43 -15 -21 -16 -21 -13 -3 3 21 54 63 78
64 8 1 1 -8 -16 -18z m75 -106 c1 -17 -2 -15 -18 8 -14 22 -20 25 -24 13 -3
-8 -1 -16 6 -19 8 -2 6 -10 -7 -22 -18 -19 -18 -19 -11 4 5 17 4 21 -5 16 -9
-6 -9 -3 -1 14 10 17 9 25 -4 37 -21 21 -19 27 13 45 l27 15 12 -45 c6 -25 11
-55 12 -66z m-82 39 c2 -5 -9 -11 -23 -12 -23 -2 -25 0 -14 13 14 16 31 16 37
-1z m-377 -218 c14 -18 59 -33 127 -41 40 -5 50 -10 46 -22 -5 -12 -7 -12 -14
-1 -5 7 -6 -10 -2 -39 4 -38 2 -53 -6 -53 -7 0 -10 3 -8 8 3 4 -17 5 -44 4
-51 -4 -53 -2 -49 46 1 12 -4 22 -10 22 -7 0 -10 -6 -7 -14 3 -8 -1 -17 -9
-20 -9 -3 -12 -10 -9 -16 3 -6 -1 -7 -9 -4 -18 7 -21 25 -5 41 7 7 2 15 -15
27 -23 15 -31 11 -23 -11 1 -4 11 -6 22 -5 16 2 17 1 5 -7 -8 -6 -24 -8 -34
-5 -15 5 -18 3 -13 -10 8 -21 1 -20 -38 4 -18 11 -38 35 -44 52 -12 34 -15
159 -3 143 4 -6 15 -11 26 -10 15 0 19 8 20 42 1 36 -2 42 -16 37 -12 -4 -18
0 -18 11 0 12 5 15 16 11 9 -4 24 -1 32 6 14 11 15 10 8 -7 -5 -15 -4 -17 5
-8 6 6 18 9 25 6 9 -3 15 2 15 13 1 11 5 -27 9 -83 4 -57 13 -109 20 -117z
m33 194 c-2 -9 13 -27 36 -44 22 -16 37 -34 34 -39 -3 -6 -1 -7 5 -3 7 4 33
-7 58 -25 l47 -32 -23 -17 c-17 -13 -20 -19 -9 -23 10 -4 10 -6 -3 -6 -9 -1
-20 -6 -24 -13 -4 -7 -3 -8 4 -4 7 4 12 2 12 -3 0 -14 -30 -13 -95 2 -63 15
-75 37 -75 144 0 73 2 82 19 80 11 0 17 -7 14 -17z m72 -9 c-4 -14 -1 -18 17
-17 17 1 22 7 20 21 -2 16 -1 17 7 5 7 -10 6 -19 -2 -28 -9 -11 -7 -13 8 -10
12 2 30 -11 52 -41 19 -24 32 -46 29 -48 -5 -6 -74 39 -140 90 -40 31 -44 37
-23 32 17 -5 27 -3 27 4 0 6 3 11 6 11 3 0 3 -8 -1 -19z m352 -53 c-3 -8 -6
-5 -6 6 -1 11 2 17 5 13 3 -3 4 -12 1 -19z m-37 -18 c0 -5 -4 -10 -10 -10 -5
0 -10 5 -10 10 0 6 5 10 10 10 6 0 10 -4 10 -10z m26 -67 c-11 -11 -19 6 -11
24 8 17 8 17 12 0 3 -10 2 -21 -1 -24z m120 15 c11 -17 33 -146 33 -195 1 -31
-5 -49 -23 -67 -28 -31 -66 -35 -66 -7 0 23 22 40 28 23 2 -7 8 -12 14 -12 6
0 3 9 -7 20 -10 11 -21 17 -26 15 -7 -5 -12 28 -23 162 -5 53 -3 62 12 66 32
9 51 7 58 -5z m-332 -27 c3 -5 -1 -11 -9 -15 -9 -3 -12 -12 -9 -23 5 -14 4
-15 -4 -4 -8 11 -9 28 -3 49 2 6 20 1 25 -7z m106 -66 c10 3 22 0 26 -6 4 -8
3 -9 -4 -5 -7 4 -17 4 -23 1 -17 -11 23 -34 59 -35 31 0 32 -1 32 -42 0 -54 8
-65 44 -70 28 -3 29 -4 12 -20 -13 -14 -14 -18 -4 -18 10 0 15 -14 17 -44 2
-51 1 -51 -118 -62 -65 -6 -71 -5 -65 11 4 9 2 20 -3 24 -5 3 -13 34 -16 69
-6 56 -5 62 12 62 44 0 40 106 -5 133 -8 4 -14 13 -14 18 0 6 7 3 16 -6 9 -9
24 -13 34 -10z m-33 -27 c6 -7 10 -21 10 -31 0 -13 -6 -16 -21 -11 -17 4 -15
0 9 -20 17 -14 22 -23 13 -20 -10 3 -18 2 -18 -2 0 -8 -67 -11 -107 -6 -8 1
-13 16 -13 36 0 18 6 38 13 44 27 22 100 28 114 10z m171 -5 c-4 -22 -22 -20
-26 1 -2 10 3 16 13 16 10 0 15 -7 13 -17z m139 -15 c-3 -7 -5 -2 -5 12 0 14
2 19 5 13 2 -7 2 -19 0 -25z m-160 -60 c-3 -8 -6 -5 -6 6 -1 11 2 17 5 13 3
-3 4 -12 1 -19z m-432 -28 c3 -5 -3 -10 -14 -10 -12 0 -21 -4 -21 -10 0 -5 13
-7 32 -3 22 4 29 3 24 -5 -4 -7 -27 -12 -52 -12 -39 0 -44 3 -44 23 0 18 2 19
10 7 8 -13 10 -12 10 3 0 19 44 25 55 7z m215 -39 c0 -27 -3 -32 -10 -21 -6 9
-13 11 -17 5 -5 -5 -21 -11 -38 -13 -16 -2 -32 -7 -35 -10 -3 -4 -18 -13 -33
-20 -15 -7 -25 -17 -22 -22 8 -13 32 -13 37 0 2 6 19 11 38 13 19 1 38 7 42
12 4 6 8 2 8 -8 0 -10 5 -15 10 -12 6 3 10 0 11 -7 0 -7 4 -4 9 7 7 15 9 10 9
-22 l1 -43 -67 -2 c-97 -2 -226 3 -237 9 -8 5 -2 100 7 109 2 2 25 6 51 9 57
5 66 10 66 35 0 16 9 19 63 22 99 5 107 2 107 -41z m27 17 c-3 -7 -5 -2 -5 12
0 14 2 19 5 13 2 -7 2 -19 0 -25z m216 25 c-7 -2 -19 -2 -25 0 -7 3 -2 5 12 5
14 0 19 -2 13 -5z m-202 -80 c25 -261 74 -829 72 -832 -8 -11 -13 14 -23 115
-25 275 -60 643 -65 682 -4 26 -2 42 4 42 6 0 11 -3 12 -7z m199 -213 c0 -93
-2 -109 -17 -115 -10 -3 -19 -1 -21 4 -2 6 -24 11 -48 11 -37 0 -46 -4 -53
-22 -7 -19 -9 -15 -14 22 -3 25 -9 79 -13 121 l-6 76 78 9 c44 5 82 8 87 6 4
-2 7 -52 7 -112z m-220 77 c0 -7 -4 -17 -9 -22 -6 -6 -15 -50 -21 -100 -16
-135 -29 -227 -26 -174 l3 46 -43 -10 c-24 -6 -44 -14 -44 -18 0 -5 -6 -6 -14
-3 -8 3 -25 0 -38 -7 -13 -7 -26 -12 -30 -11 -5 1 -8 -3 -8 -9 0 -21 -20 2
-20 24 0 12 -3 84 -6 160 l-6 137 131 0 c101 0 131 -3 131 -13z m-270 -153 c0
-28 -4 -44 -12 -44 -9 0 -8 -4 2 -10 13 -8 12 -10 -4 -10 -17 0 -18 5 -12 46
3 26 6 53 6 61 0 8 5 11 10 8 6 -3 10 -26 10 -51z m470 -98 c-14 -14 -24 0
-16 21 6 15 8 15 16 3 6 -9 5 -19 0 -24z m-330 -66 c8 -5 12 -11 10 -14 -8 -7
-60 6 -60 15 0 12 31 11 50 -1z m-102 -83 c1 6 10 10 20 8 9 -1 11 0 5 2 -26
9 -12 25 17 21 18 -3 31 0 34 9 8 20 56 17 56 -4 0 -10 4 -24 9 -32 7 -11 12
-6 19 20 l10 34 0 -40 c0 -22 -3 -60 -8 -85 -7 -40 -9 -42 -16 -21 -7 23 -8
24 -15 5 -7 -17 -8 -16 -9 6 -1 14 -3 30 -5 35 -1 6 -3 16 -3 23 -1 6 -9 12
-18 12 -8 0 -13 -4 -10 -8 2 -4 1 -14 -5 -22 -7 -12 -9 -12 -9 -1 0 8 -6 11
-16 7 -8 -3 -12 -2 -9 4 9 15 -8 12 -32 -5 -19 -13 -21 -13 -27 8 -3 12 -5 40
-4 62 l1 40 7 -45 c4 -25 8 -40 8 -33z m32 63 c0 -5 -7 -10 -15 -10 -8 0 -15
5 -15 10 0 6 7 10 15 10 8 0 15 -4 15 -10z m400 -14 c0 -3 -4 -8 -10 -11 -5
-3 -10 -1 -10 4 0 6 5 11 10 11 6 0 10 -2 10 -4z m5 -55 c3 -5 1 -13 -5 -16
-15 -9 -43 3 -35 15 8 13 32 13 40 1z m-375 -51 c0 -5 -2 -10 -4 -10 -3 0 -8
5 -11 10 -3 6 -1 10 4 10 6 0 11 -4 11 -10z m347 -12 l31 0 0 -74 c0 -70 -14
-98 -25 -54 -5 19 -19 20 -70 4 -8 -2 -13 6 -13 19 0 12 -3 46 -7 75 l-6 53
29 -12 c16 -6 43 -11 61 -11z m-375 -13 c0 -5 -5 -11 -11 -13 -6 -2 -11 4 -11
13 0 9 5 15 11 13 6 -2 11 -8 11 -13z m10 -100 c0 -5 -5 -11 -11 -13 -6 -2
-11 4 -11 13 0 9 5 15 11 13 6 -2 11 -8 11 -13z m78 -44 c0 -14 -2 -14 -11 -1
-7 11 -8 4 -3 -24 5 -28 4 -37 -5 -32 -6 4 -9 11 -6 16 3 5 0 12 -6 16 -7 4
-9 3 -6 -3 4 -6 -5 -15 -19 -22 -20 -9 -25 -9 -21 1 2 7 9 12 15 11 6 -2 9 3
6 11 -3 7 2 16 10 19 9 4 13 13 10 21 -4 11 0 13 15 9 12 -3 21 -13 21 -22z
m-98 5 c7 4 8 2 4 -5 -9 -13 -26 -5 -25 12 0 9 2 8 6 -1 2 -6 10 -9 15 -6z m9
-36 c-15 -11 -24 -31 -27 -63 l-5 -47 68 -1 c50 0 61 -3 41 -9 -14 -4 -47 -5
-72 -3 l-46 6 1 71 c1 39 3 63 6 54 4 -14 8 -15 24 -5 10 6 20 21 20 32 1 19
2 19 6 1 3 -12 -3 -25 -16 -36z m111 -30 c-5 -50 -11 -65 -24 -68 -12 -2 -18
3 -18 15 0 15 2 15 9 4 8 -12 11 -9 16 12 4 15 5 37 2 48 -6 22 12 82 19 64 2
-5 0 -39 -4 -75z m-277 20 c-8 -13 -35 -13 -35 0 0 6 4 10 10 10 5 0 6 8 3 18
-7 16 -6 16 11 0 9 -10 14 -22 11 -28z m102 -47 c-3 -10 -5 -4 -5 12 0 17 2
24 5 18 2 -7 2 -21 0 -30z m-257 -23 c0 -5 -7 -10 -15 -10 -12 0 -13 -4 -5
-19 15 -29 12 -39 -5 -17 -20 26 -19 44 3 49 9 3 18 5 20 6 1 0 2 -3 2 -9z
m210 -5 c0 -2 -10 -10 -22 -16 -21 -11 -22 -11 -9 4 13 16 31 23 31 12z m167
-11 c-3 -3 -12 -4 -19 -1 -8 3 -5 6 6 6 11 1 17 -2 13 -5z m-390 -70 c8 -22
-17 -36 -34 -19 -7 8 -13 18 -13 24 0 17 40 13 47 -5z m176 -5 c-3 -9 4 -26
16 -38 11 -11 16 -23 11 -26 -6 -4 -10 -1 -10 5 0 6 -4 8 -10 5 -5 -3 -10 1
-10 10 0 9 -4 14 -9 10 -5 -3 -13 0 -17 6 -4 8 -3 9 4 5 8 -5 12 1 12 16 0 18
-2 20 -10 8 -5 -8 -10 -10 -10 -4 0 14 7 21 24 21 8 0 11 -7 9 -18z m62 12 c3
-5 0 -13 -6 -17 -8 -5 -9 -3 -4 6 6 9 4 11 -4 5 -15 -9 -4 -21 24 -28 16 -4
14 -5 -6 -6 -33 -1 -54 20 -37 37 14 14 25 15 33 3z m-121 -16 c21 -22 9 -45
-24 -45 -62 0 -77 20 -32 44 34 19 37 19 56 1z m-131 -33 c4 8 8 5 12 -9 4
-13 12 -20 18 -16 6 4 8 0 4 -10 -4 -12 -2 -14 10 -10 11 4 14 2 9 -5 -12 -20
-44 -13 -65 14 -24 30 -28 52 -7 35 11 -9 15 -9 19 1z m394 2 c-3 -3 -12 -4
-19 -1 -8 3 -5 6 6 6 11 1 17 -2 13 -5z m-223 -35 c-3 -5 -10 -7 -15 -3 -5 3
-7 10 -3 15 3 5 10 7 15 3 5 -3 7 -10 3 -15z m114 -27 c3 -29 1 -32 -25 -32
-29 1 -73 30 -73 50 0 6 5 8 10 5 14 -9 52 4 45 16 -4 5 3 5 16 0 16 -5 24
-18 27 -39z m156 31 c4 -10 1 -20 -8 -25 -8 -5 -13 -15 -10 -23 8 -19 -3 -19
-22 0 -9 8 -30 15 -47 16 -18 0 -25 3 -17 6 8 3 22 11 30 18 13 11 33 19 61
24 4 0 10 -7 13 -16z m33 -45 c-3 -8 -6 -5 -6 6 -1 11 2 17 5 13 3 -3 4 -12 1
-19z m29 -35 c-10 -10 -19 5 -10 18 6 11 8 11 12 0 2 -7 1 -15 -2 -18z m-505
-83 c21 -17 22 -19 6 -20 -23 0 -57 18 -57 30 0 16 26 11 51 -10z m542 -10
c17 -28 21 -30 58 -24 46 8 54 -10 12 -27 -16 -6 -36 -15 -45 -20 -27 -14 -68
26 -68 67 0 43 19 45 43 4z m-433 6 c0 -17 -22 -26 -58 -26 -26 1 -26 1 8 20
42 23 50 24 50 6z m-197 -13 c-7 -2 -19 -2 -25 0 -7 3 -2 5 12 5 14 0 19 -2
13 -5z m68 -31 c-8 -3 -17 0 -19 7 -2 6 -10 11 -18 11 -8 0 -14 5 -14 10 0 6
15 3 33 -6 21 -12 27 -19 18 -22z m283 -37 c-4 -18 -1 -25 16 -30 12 -4 20 -9
17 -11 -2 -3 -16 0 -31 5 -25 10 -37 47 -20 64 13 13 24 -5 18 -28z m240 -22
c-17 -18 -29 -11 -21 11 4 9 13 13 21 10 14 -5 14 -8 0 -21z m-199 -93 c3 -5
2 -10 -4 -10 -5 0 -13 5 -16 10 -3 6 -2 10 4 10 5 0 13 -4 16 -10z m-20 -20
c3 -5 -1 -10 -9 -10 -8 0 -18 5 -21 10 -3 6 1 10 9 10 8 0 18 -4 21 -10z m81
-5 c-11 -8 -25 -15 -30 -15 -6 0 -2 7 8 15 11 8 25 15 30 15 6 0 2 -7 -8 -15z
m261 -1 c-16 -8 -34 -13 -40 -11 -7 3 -1 9 13 15 38 16 59 13 27 -4z"/>
<path d="M824 2637 c-6 -7 -8 -19 -6 -26 3 -9 0 -11 -8 -6 -8 5 -11 4 -6 -3 3
-5 1 -13 -4 -15 -6 -3 -5 -4 2 -3 7 1 20 17 30 34 17 32 13 43 -8 19z"/>
<path d="M983 2443 c23 -26 22 -37 -4 -30 -16 4 -19 3 -11 -5 14 -14 42 -3 42
16 0 9 -10 21 -22 27 -22 12 -22 11 -5 -8z"/>
<path d="M1041 2401 c-16 -29 -46 -43 -111 -51 l-55 -7 48 -2 c26 0 60 5 75
13 32 17 68 54 59 62 -3 3 -10 -4 -16 -15z"/>
<path d="M668 2434 c-39 -21 -35 -28 5 -8 37 19 44 24 31 24 -5 -1 -21 -8 -36
-16z"/>
<path d="M905 2130 c-3 -6 1 -7 9 -4 18 7 21 14 7 14 -6 0 -13 -4 -16 -10z"/>
<path d="M1132 2121 c-11 -7 -10 -10 3 -15 20 -7 38 1 30 15 -7 11 -16 11 -33
0z"/>
<path d="M1097 2043 c-3 -5 -1 -17 4 -28 7 -17 8 -17 8 8 1 27 -4 34 -12 20z"/>
<path d="M610 1935 c-8 -9 -8 -15 -2 -15 12 0 26 19 19 26 -2 2 -10 -2 -17
-11z"/>
<path d="M610 1880 c0 -5 5 -10 10 -10 6 0 10 5 10 10 0 6 -4 10 -10 10 -5 0
-10 -4 -10 -10z"/>
<path d="M700 1720 c-11 -8 -7 -9 15 -4 37 8 45 14 19 14 -10 0 -26 -5 -34
-10z"/>
<path d="M802 1706 c4 -5 3 -15 -3 -23 -9 -10 -7 -13 10 -13 26 0 27 13 4 31
-10 7 -15 9 -11 5z"/>
<path d="M760 1652 c0 -4 9 -8 20 -8 11 0 20 4 20 8 0 4 -9 8 -20 8 -11 0 -20
-4 -20 -8z"/>
<path d="M700 1936 c0 -3 9 -10 20 -16 11 -6 20 -8 20 -6 0 3 -9 10 -20 16
-11 6 -20 8 -20 6z"/>
<path d="M1200 1581 c0 -6 4 -13 10 -16 6 -3 7 1 4 9 -7 18 -14 21 -14 7z"/>
<path d="M1130 1570 c-9 -6 -10 -10 -3 -10 6 0 15 5 18 10 8 12 4 12 -15 0z"/>
<path d="M1011 1524 c0 -11 3 -14 6 -6 3 7 2 16 -1 19 -3 4 -6 -2 -5 -13z"/>
<path d="M967 1699 c7 -7 15 -10 18 -7 3 3 -2 9 -12 12 -14 6 -15 5 -6 -5z"/>
<path d="M957 1649 c7 -7 15 -10 18 -7 3 3 -2 9 -12 12 -14 6 -15 5 -6 -5z"/>
<path d="M695 1319 c-4 -6 -5 -12 -2 -15 2 -3 7 2 10 11 7 17 1 20 -8 4z"/>
<path d="M713 1253 c-7 -2 -13 -9 -13 -15 0 -7 5 -7 13 1 8 6 16 8 19 5 3 -3
9 -1 13 5 6 11 -10 13 -32 4z"/>
<path d="M768 1248 c7 -7 31 -13 55 -13 23 0 48 -4 55 -9 10 -6 13 -3 10 10
-3 16 -14 20 -68 22 -53 2 -63 1 -52 -10z"/>
<path d="M4328 2793 c6 -2 12 -16 12 -29 0 -13 3 -24 8 -24 4 0 7 14 7 30 0
24 -4 30 -20 29 -11 0 -14 -3 -7 -6z"/>
<path d="M4371 2774 c0 -11 3 -14 6 -6 3 7 2 16 -1 19 -3 4 -6 -2 -5 -13z"/>
<path d="M4398 2783 c6 -2 18 -2 25 0 6 3 1 5 -13 5 -14 0 -19 -2 -12 -5z"/>
<path d="M4678 2783 c7 -3 16 -2 19 1 4 3 -2 6 -13 5 -11 0 -14 -3 -6 -6z"/>
<path d="M6174 2776 c-43 -19 -64 -53 -64 -104 0 -35 6 -49 30 -74 28 -28 35
-30 83 -25 43 4 56 10 79 38 51 61 49 127 -5 160 -37 22 -79 24 -123 5z m86
-5 c0 -4 -11 -6 -25 -3 -14 2 -25 6 -25 8 0 2 11 4 25 4 14 0 25 -4 25 -9z
m-2 -17 c60 -7 62 -8 68 -39 18 -99 -116 -179 -181 -109 -33 35 -34 98 -3 131
24 25 28 26 116 17z"/>
<path d="M4448 2743 c6 -2 18 -2 25 0 6 3 1 5 -13 5 -14 0 -19 -2 -12 -5z"/>
<path d="M4538 2743 c7 -3 16 -2 19 1 4 3 -2 6 -13 5 -11 0 -14 -3 -6 -6z"/>
<path d="M6601 2733 c-19 -9 -29 -19 -23 -21 11 -3 72 25 72 33 0 9 -14 5 -49
-12z"/>
<path d="M5891 2679 c0 -24 4 -53 9 -64 5 -12 6 4 3 40 -7 72 -13 85 -12 24z"/>
<path d="M4968 2673 c7 -3 16 -2 19 1 4 3 -2 6 -13 5 -11 0 -14 -3 -6 -6z"/>
<path d="M5513 2653 c9 -2 25 -2 35 0 9 3 1 5 -18 5 -19 0 -27 -2 -17 -5z"/>
<path d="M5837 2599 c7 -7 15 -10 18 -7 3 3 -2 9 -12 12 -14 6 -15 5 -6 -5z"/>
<path d="M5906 2581 c-3 -5 1 -11 9 -14 9 -4 12 -1 8 9 -6 16 -10 17 -17 5z"/>
<path d="M4842 2535 c-7 -14 -12 -31 -12 -38 1 -7 7 3 16 22 17 39 13 54 -4
16z"/>
<path d="M6138 2548 c5 -5 16 -8 23 -6 8 3 3 7 -10 11 -17 4 -21 3 -13 -5z"/>
<path d="M6030 2520 c8 -5 22 -9 30 -9 10 0 8 3 -5 9 -27 12 -43 12 -25 0z"/>
<path d="M6188 2513 c7 -3 16 -2 19 1 4 3 -2 6 -13 5 -11 0 -14 -3 -6 -6z"/>
<path d="M6098 2503 c12 -2 32 -2 45 0 12 2 2 4 -23 4 -25 0 -35 -2 -22 -4z"/>
<path d="M4220 2450 c-9 -6 -10 -10 -3 -10 6 0 15 5 18 10 8 12 4 12 -15 0z"/>
<path d="M7155 2260 c-213 -55 -319 -91 -560 -190 -226 -93 -296 -115 -496
-155 -230 -46 -351 -76 -504 -125 -145 -46 -402 -140 -472 -173 -13 -6 -26 -7
-30 -4 -3 4 1 7 9 7 9 0 18 6 21 14 5 11 -1 12 -28 3 -19 -5 -37 -17 -40 -25
-4 -10 0 -12 10 -8 10 3 14 2 9 -5 -3 -6 -15 -9 -25 -6 -11 3 -17 2 -14 -2 2
-4 -17 -17 -43 -29 -26 -11 -97 -44 -159 -71 -110 -50 -115 -51 -295 -71 -101
-11 -230 -27 -288 -35 -58 -8 -160 -21 -227 -30 -67 -8 -128 -18 -137 -21 -12
-5 -16 0 -16 20 0 40 -32 50 -118 37 -70 -11 -142 -37 -142 -52 0 -4 19 2 42
13 57 28 185 31 201 6 6 -9 9 -19 6 -22 -2 -3 -50 -12 -104 -19 -55 -8 -86
-15 -70 -16 17 0 77 6 135 13 110 15 246 33 495 66 83 11 200 24 261 30 137
13 180 25 325 94 226 107 657 269 879 330 30 8 157 35 282 61 231 47 282 61
468 136 323 128 589 217 704 234 26 4 46 11 46 16 0 12 3 12 -125 -21z"/>
<path d="M5163 2185 c-3 -9 -3 -18 -1 -21 3 -3 8 4 11 16 6 23 -1 27 -10 5z"/>
<path d="M2100 2034 c0 -8 5 -12 10 -9 6 4 8 11 5 16 -9 14 -15 11 -15 -7z"/>
<path d="M3354 2018 l-19 -23 23 19 c12 11 22 21 22 23 0 8 -8 2 -26 -19z"/>
<path d="M5024 1988 l-19 -23 23 19 c12 11 22 21 22 23 0 8 -8 2 -26 -19z"/>
<path d="M3550 1990 c-8 -5 -10 -10 -5 -10 6 0 17 5 25 10 8 5 11 10 5 10 -5
0 -17 -5 -25 -10z"/>
<path d="M4980 1950 c-9 -6 -10 -10 -3 -10 6 0 15 5 18 10 8 12 4 12 -15 0z"/>
<path d="M3570 1850 c-8 -5 -10 -10 -5 -10 6 0 17 5 25 10 8 5 11 10 5 10 -5
0 -17 -5 -25 -10z"/>
<path d="M4823 1829 c-35 -22 -46 -37 -15 -20 22 13 58 40 52 41 -3 0 -20 -10
-37 -21z"/>
<path d="M3460 1810 c-8 -5 -10 -10 -5 -10 6 0 17 5 25 10 8 5 11 10 5 10 -5
0 -17 -5 -25 -10z"/>
<path d="M3261 1784 c0 -11 3 -14 6 -6 3 7 2 16 -1 19 -3 4 -6 -2 -5 -13z"/>
<path d="M4745 1785 c-32 -25 -158 -88 -190 -96 -25 -6 -26 -7 -7 -8 13 -1 63
19 111 44 90 47 133 74 116 74 -5 0 -19 -6 -30 -14z"/>
<path d="M3374 1764 c-18 -14 -18 -15 4 -4 12 6 22 13 22 15 0 8 -5 6 -26 -11z"/>
<path d="M1995 1760 c11 -5 27 -9 35 -9 9 0 8 4 -5 9 -11 5 -27 9 -35 9 -9 0
-8 -4 5 -9z"/>
<path d="M3330 1739 c0 -5 5 -7 10 -4 6 3 10 8 10 11 0 2 -4 4 -10 4 -5 0 -10
-5 -10 -11z"/>
<path d="M3301 1674 c0 -11 3 -14 6 -6 3 7 2 16 -1 19 -3 4 -6 -2 -5 -13z"/>
<path d="M5180 1686 c0 -2 7 -7 16 -10 8 -3 12 -2 9 4 -6 10 -25 14 -25 6z"/>
<path d="M4488 1673 c7 -3 16 -2 19 1 4 3 -2 6 -13 5 -11 0 -14 -3 -6 -6z"/>
<path d="M4230 1660 c-9 -6 -10 -10 -3 -10 6 0 15 5 18 10 8 12 4 12 -15 0z"/>
<path d="M4428 1663 c6 -2 18 -2 25 0 6 3 1 5 -13 5 -14 0 -19 -2 -12 -5z"/>
<path d="M4188 1643 c7 -3 16 -2 19 1 4 3 -2 6 -13 5 -11 0 -14 -3 -6 -6z"/>
<path d="M3338 1603 c6 -2 18 -2 25 0 6 3 1 5 -13 5 -14 0 -19 -2 -12 -5z"/>
<path d="M4840 1530 c9 -6 7 -10 -9 -15 -13 -4 -20 -9 -18 -12 5 -4 67 24 67
30 0 1 -12 3 -27 4 -16 1 -21 -2 -13 -7z"/>
<path d="M319 1360 c-13 -17 -18 -18 -57 -7 -48 13 -62 4 -62 -40 0 -25 11
-29 94 -36 54 -5 66 -17 66 -65 0 -29 -2 -32 -19 -22 -25 13 -58 13 -66 0 -3
-5 9 -19 27 -30 41 -25 84 -19 117 18 22 24 23 27 7 30 -10 2 -23 -1 -29 -7
-19 -19 -24 -13 -30 34 -5 32 -2 55 10 79 9 19 13 41 10 50 -9 22 -52 20 -68
-4z m56 1 c3 -5 -2 -25 -11 -44 -15 -32 -19 -34 -46 -26 -16 4 -36 5 -44 2
-22 -8 -64 6 -64 22 0 18 17 20 23 3 3 -10 8 -10 18 1 9 9 9 11 2 7 -8 -4 -13
-1 -13 9 0 14 4 14 36 0 44 -18 44 -18 44 -2 0 28 41 49 55 28z m35 -176 c-7
-8 -17 -15 -22 -15 -6 0 -5 7 2 15 7 8 17 15 22 15 6 0 5 -7 -2 -15z m-66 -10
c20 -15 20 -15 0 -15 -11 0 -29 7 -40 15 -19 14 -19 14 1 14 11 0 29 -6 39
-14z"/>
<path d="M3593 1330 c8 -14 23 -26 33 -28 18 -3 18 -2 -1 9 -11 7 -26 20 -34
28 -9 11 -8 8 2 -9z"/>
<path d="M1600 1245 c-11 -21 -12 -34 -2 -71 9 -33 9 -50 1 -65 -6 -12 -9 -23
-6 -25 2 -3 10 9 17 25 10 24 22 33 66 46 55 16 81 43 70 72 -5 12 -15 14 -45
9 -34 -5 -41 -3 -46 14 -9 28 -39 25 -55 -5z m78 -31 c25 22 52 21 52 -4 0
-23 -21 -35 -74 -45 -28 -6 -41 -4 -47 6 -14 22 -10 56 8 74 15 16 17 14 30
-16 12 -30 14 -31 31 -15z"/>
<path d="M480 815 c7 -8 22 -14 34 -14 20 2 20 2 -2 6 -12 2 -20 9 -17 14 4 5
-1 9 -11 9 -13 0 -14 -3 -4 -15z"/>
<path d="M1273 713 c-19 -7 -16 -57 5 -79 9 -11 29 -25 45 -32 15 -6 28 -17
29 -24 4 -36 3 -44 -7 -50 -5 -4 -14 -8 -20 -8 -5 0 -3 5 5 10 12 8 10 10 -8
10 -30 0 -24 -22 10 -34 29 -10 64 -3 93 18 27 20 11 33 -24 19 -27 -10 -30
-9 -34 15 -4 20 3 32 29 56 45 39 47 76 4 76 -17 0 -33 -7 -39 -17 -9 -17 -11
-16 -26 4 -19 27 -45 42 -62 36z m51 -45 l25 -33 21 23 c12 13 27 21 33 19 23
-7 16 -25 -18 -46 -30 -17 -40 -19 -58 -10 -36 19 -57 41 -57 61 0 28 26 21
54 -14z m96 -138 c-8 -5 -19 -10 -25 -10 -5 0 -3 5 5 10 8 5 20 10 25 10 6 0
3 -5 -5 -10z"/>
<path d="M96 695 c-11 -8 -32 -15 -48 -15 -15 0 -28 -3 -28 -7 -1 -5 -2 -33
-4 -63 -4 -62 8 -97 28 -81 6 6 22 8 34 4 16 -4 22 -1 22 10 0 8 -6 18 -12 20
-7 3 -1 6 14 6 15 1 29 -3 32 -8 3 -5 16 -7 27 -4 19 5 19 7 4 15 -15 9 -15
11 2 23 14 11 16 16 6 26 -11 11 -13 9 -13 -5 0 -13 -5 -17 -20 -13 -11 3 -18
1 -14 -4 10 -17 -19 -9 -32 9 -13 16 -13 16 -14 0 0 -23 -16 -23 -24 -2 -8 21
20 43 57 45 15 1 33 2 40 3 29 2 36 36 6 36 -11 0 -17 5 -14 10 9 15 -27 11
-49 -5z"/>
<path d="M1594 587 c-9 -25 16 -69 46 -80 22 -8 30 -18 30 -35 0 -18 -4 -22
-15 -18 -8 3 -22 9 -30 12 -9 4 -15 1 -15 -9 0 -27 83 -37 116 -13 26 19 10
32 -21 18 -23 -11 -25 -10 -25 16 0 18 9 37 25 50 21 18 24 26 15 42 -11 21
-45 27 -55 10 -4 -7 -14 -5 -28 5 -26 18 -36 19 -43 2z m49 -29 c16 -18 26
-27 22 -20 -8 16 12 42 32 42 24 0 10 -33 -20 -50 -27 -14 -29 -14 -53 13 -24
28 -31 47 -16 47 4 0 20 -14 35 -32z"/>
<path d="M900 575 c7 -9 15 -13 17 -11 7 7 -7 26 -19 26 -6 0 -6 -6 2 -15z"/>
<path d="M160 524 c0 -8 5 -12 10 -9 6 4 8 11 5 16 -9 14 -15 11 -15 -7z"/>
<path d="M2762 518 c-21 -21 -13 -55 19 -82 17 -14 36 -26 44 -26 15 0 25 -44
25 -108 0 -36 -3 -43 -12 -34 -7 7 -23 12 -37 12 -23 0 -24 -1 -6 -20 24 -27
95 -28 118 -2 25 28 21 35 -17 28 l-34 -7 -4 58 c-4 56 -3 59 34 96 40 40 45
62 17 80 -12 8 -24 5 -48 -12 l-32 -23 -20 26 c-23 29 -30 31 -47 14z m94 -90
c-10 -6 -22 -6 -26 -2 -5 5 3 10 18 11 22 1 24 0 8 -9z m44 -168 c-8 -6 -22
-10 -30 -9 -9 0 -5 6 10 14 27 14 44 10 20 -5z"/>
<path d="M334 439 c-3 -6 -2 -15 3 -20 5 -5 9 -1 9 11 0 23 -2 24 -12 9z"/>
<path d="M1617 292 c-12 -13 -26 -17 -48 -14 -37 5 -79 -15 -79 -39 0 -39 11
-49 57 -49 72 0 113 -29 113 -81 0 -16 -3 -17 -25 -7 -19 9 -28 9 -37 0 -20
-20 7 -35 63 -36 39 -1 54 3 65 18 19 27 3 43 -30 28 -23 -10 -24 -9 -28 31
-3 24 2 58 10 79 19 50 9 88 -22 88 -12 0 -30 -8 -39 -18z m-37 -42 c21 -15
30 -17 33 -8 4 8 6 7 6 -4 1 -11 8 -16 19 -13 15 3 18 -2 14 -21 -4 -24 -5
-24 -29 -9 -15 10 -40 15 -66 13 -34 -2 -42 0 -45 16 -2 11 4 26 14 33 23 16
21 17 54 -7z m130 -160 c-24 -15 -37 -11 -16 5 11 8 22 12 25 9 3 -3 -1 -9 -9
-14z m-60 -14 c0 -2 -9 -2 -20 1 -11 3 -20 9 -20 15 0 5 9 4 20 -2 11 -6 20
-12 20 -14z"/>
<path d="M2524 286 c-9 -37 4 -65 34 -72 97 -21 108 -30 118 -94 5 -37 4 -43
-7 -33 -17 17 -82 17 -77 1 3 -7 21 -19 41 -27 33 -12 42 -12 82 3 32 13 45
23 45 37 0 20 -24 26 -35 9 -13 -21 -33 -9 -38 22 -3 22 2 43 14 64 10 17 19
45 19 63 0 25 -4 31 -21 31 -11 0 -29 -5 -41 -11 -16 -9 -24 -7 -42 10 -13 12
-36 21 -54 21 -25 0 -33 -5 -38 -24z m182 -20 c5 -13 -1 -30 -24 -65 -8 -10
-14 -11 -31 -2 -12 7 -18 17 -15 23 4 7 2 8 -5 4 -7 -4 -19 -5 -29 -1 -30 11
8 24 40 13 24 -9 33 -7 46 6 15 15 15 18 2 26 -10 7 -11 10 -2 10 7 0 15 -6
18 -14z m34 -176 c-8 -5 -19 -10 -25 -10 -5 0 -3 5 5 10 8 5 20 10 25 10 6 0
3 -5 -5 -10z m-90 -10 c18 -12 2 -12 -25 0 -13 6 -15 9 -5 9 8 0 22 -4 30 -9z"/>
<path d="M1787 242 c-26 -28 -21 -39 28 -61 25 -11 45 -24 45 -28 0 -4 4 -24
9 -43 l8 -36 -34 4 c-25 3 -33 0 -33 -12 0 -20 40 -30 86 -23 40 7 64 23 64
43 0 19 -29 18 -51 -2 -17 -15 -18 -14 -25 22 -4 25 -3 39 4 42 6 2 23 13 37
24 35 27 33 81 -3 86 -13 2 -32 -4 -41 -12 -16 -15 -19 -15 -31 -1 -17 20 -43
19 -63 -3z m143 -22 c0 -24 -6 -33 -27 -41 -28 -10 -88 5 -78 21 3 4 -3 7 -13
6 -23 -1 -22 28 1 32 10 2 27 -4 38 -14 19 -17 20 -17 35 4 22 32 44 28 44 -8z
m5 -149 c-3 -6 -11 -11 -17 -11 -6 0 -6 6 2 15 14 17 26 13 15 -4z m-70 -11
c7 -12 -2 -12 -30 0 -19 8 -19 9 2 9 12 1 25 -3 28 -9z"/>
<path d="M905 209 c-11 -17 1 -21 15 -4 8 9 8 15 2 15 -6 0 -14 -5 -17 -11z"/>
<path d="M3458 198 c-40 -11 -43 -14 -28 -38 8 -12 10 -12 10 -1 0 8 2 12 5 9
10 -10 -7 -38 -24 -38 -32 0 -92 -27 -119 -53 -29 -27 -52 -35 -52 -17 0 6 -7
10 -15 10 -9 0 -15 -9 -15 -24 0 -14 -4 -28 -10 -31 -5 -3 -10 -1 -10 4 0 6
-5 11 -11 11 -5 0 -7 -5 -3 -11 5 -9 -3 -10 -29 -5 -19 4 -38 3 -41 -3 -3 -5
77 -9 197 -9 116 0 191 3 177 8 -19 6 -20 8 -6 9 12 1 16 6 12 16 -3 8 -9 22
-13 31 -5 13 -2 15 15 9 22 -6 26 1 23 35 -2 12 0 13 7 1 5 -7 7 -22 5 -32 -3
-10 0 -19 6 -19 6 0 10 -3 10 -8 -4 -27 3 -34 30 -30 20 3 28 1 24 -8 -4 -10
20 -13 102 -12 107 0 107 0 101 23 -7 29 7 40 24 20 7 -8 20 -15 29 -15 14 1
14 2 -1 14 -10 7 -18 21 -18 30 0 9 -6 16 -12 15 -29 -3 -39 2 -49 28 -8 22
-12 24 -19 13 -8 -12 -10 -10 -10 8 0 12 -4 22 -10 22 -5 0 -10 -11 -10 -25 0
-18 -7 -26 -25 -31 -14 -3 -25 -10 -25 -15 0 -5 -6 -6 -14 -3 -7 3 -16 -2 -19
-10 -8 -19 -27 -21 -27 -3 0 8 12 19 27 26 l28 13 -30 15 c-17 9 -33 21 -37
27 -5 7 -8 6 -8 -3 0 -8 -2 -12 -5 -9 -14 13 8 38 29 32 12 -3 33 -1 46 5 22
8 22 10 5 11 -89 6 -114 8 -145 13 -19 3 -52 1 -72 -5z m182 -87 c0 -10 -30
-24 -37 -17 -3 3 -2 9 2 15 8 13 35 15 35 2z m80 -35 c0 -11 -19 -15 -25 -6
-3 5 1 10 9 10 9 0 16 -2 16 -4z"/>
<path d="M3651 161 c-9 -6 -10 -11 -2 -15 13 -8 31 1 31 15 0 11 -11 11 -29 0z"/>
<path d="M401 14 c0 -11 3 -14 6 -6 3 7 2 16 -1 19 -3 4 -6 -2 -5 -13z"/>
</g>
</svg>
