<?xml version="1.0" standalone="no"?>
<!DOCTYPE svg PUBLIC "-//W3C//DTD SVG 20010904//EN"
 "http://www.w3.org/TR/2001/REC-SVG-20010904/DTD/svg10.dtd">
<svg version="1.0" xmlns="http://www.w3.org/2000/svg"
 width="640.000000pt" height="427.000000pt" viewBox="0 0 640.000000 427.000000"
 preserveAspectRatio="xMidYMid meet">

<g transform="translate(0.000000,427.000000) scale(0.100000,-0.100000)"
fill="#FFFFFF" stroke="none">
<path d="M0 2275 l0 -1775 1640 0 c902 0 1640 4 1640 9 0 4 12 7 28 5 15 -2
20 -1 12 2 -8 4 -18 12 -22 17 -4 7 -16 4 -33 -7 -22 -14 -29 -15 -42 -4 -13
10 -17 10 -20 1 -3 -7 -13 -13 -24 -13 -16 0 -19 7 -19 40 0 45 -10 52 -25 17
-17 -38 -115 -36 -115 2 0 11 6 22 13 24 6 3 0 6 -15 6 -15 1 -30 6 -34 12 -5
8 5 10 32 6 29 -3 47 1 71 17 33 21 42 36 23 36 -5 0 -10 -4 -10 -10 0 -5 -9
-10 -19 -10 -11 0 -21 -6 -24 -12 -2 -7 -8 -10 -12 -6 -5 5 -1 16 8 26 15 16
15 19 -4 31 -12 7 -24 10 -27 7 -3 -3 0 -6 6 -6 7 0 12 -4 12 -10 0 -5 -18
-10 -40 -10 -22 0 -40 5 -40 10 0 6 5 10 11 10 6 0 4 7 -5 15 -8 8 -31 15 -50
15 -24 0 -36 5 -36 14 0 9 8 13 23 10 20 -4 20 -4 2 4 -25 11 -52 4 -59 -14
-3 -8 -12 -14 -20 -14 -8 0 -20 -8 -25 -17 -9 -16 -10 -16 -11 5 0 13 -6 22
-15 22 -8 0 -15 -9 -15 -20 0 -26 -20 -26 -27 1 -4 16 -8 17 -14 7 -6 -10 -11
-10 -20 -1 -15 15 22 36 48 26 17 -6 17 -5 -1 15 -11 12 -29 22 -40 22 -21 -1
-21 -1 -1 -16 19 -15 17 -15 -22 -9 -43 7 -60 -6 -26 -19 13 -5 14 -9 4 -19
-7 -7 -14 -8 -19 -2 -10 15 -49 35 -67 35 -10 0 -15 10 -15 28 -1 23 -2 25
-11 9 -13 -23 -29 -13 -29 19 0 17 -5 24 -20 24 -11 0 -20 -4 -20 -10 0 -5 -9
-2 -20 7 -24 21 -26 33 -5 33 8 0 15 5 15 10 0 6 -16 10 -36 10 -32 0 -35 -2
-24 -15 10 -12 10 -19 2 -27 -9 -9 -12 -8 -12 3 0 7 -9 25 -20 39 l-20 25 -20
-25 -20 -25 0 26 c0 20 -6 28 -24 33 -13 3 -31 9 -40 12 -11 4 -16 0 -16 -14
0 -18 -3 -19 -30 -9 -26 10 -28 13 -15 23 16 12 20 34 6 34 -5 0 -11 -7 -15
-15 -8 -22 -34 -18 -41 5 -3 11 -15 20 -25 20 -10 0 -22 5 -25 10 -10 17 -35
11 -35 -7 0 -15 -2 -16 -10 -3 -6 9 -5 17 2 21 13 8 3 39 -12 39 -11 0 -13 -5
-26 -55 -5 -21 -8 -25 -11 -12 -3 9 -10 17 -16 17 -9 0 -9 2 -1 8 6 4 13 24
16 44 3 32 1 37 -21 41 -40 8 -51 -2 -51 -44 0 -21 -5 -39 -11 -39 -16 0 -39
26 -39 44 0 21 17 20 29 -1 11 -20 15 -4 5 21 -7 19 -31 21 -37 4 -3 -10 -8
-10 -21 1 -13 11 -14 16 -4 23 10 8 10 11 1 15 -7 2 -13 20 -13 39 0 19 -4 34
-9 34 -4 0 -6 -23 -3 -50 4 -40 2 -50 -11 -50 -8 0 -18 12 -21 26 -5 19 -10
23 -19 16 -7 -5 -32 -12 -57 -15 -25 -2 -56 -8 -70 -12 -24 -7 -24 -7 -5 8 21
16 20 24 -5 27 -31 5 -40 -1 -40 -22 -1 -20 -2 -21 -10 -6 -13 21 -3 45 21 51
15 4 19 14 19 46 0 23 5 41 10 41 6 0 10 -20 10 -45 0 -31 4 -45 14 -45 10 0
12 9 6 42 -5 27 -4 45 2 49 6 4 3 11 -7 16 -29 16 -59 -21 -52 -63 3 -19 2
-34 -4 -34 -5 0 -9 7 -9 15 0 19 -16 20 -27 1 -4 -7 -27 -16 -51 -19 -24 -3
-40 -1 -36 4 3 5 12 9 20 9 8 0 14 7 14 15 0 8 -4 15 -10 15 -5 0 -10 -4 -10
-10 0 -5 -5 -10 -11 -10 -6 0 -8 8 -4 19 4 13 -1 24 -17 35 -22 16 -22 16 10
16 18 0 31 -4 28 -9 -8 -12 21 -34 34 -26 15 9 12 25 -5 25 -8 0 -15 4 -15 9
0 14 -37 23 -60 16 -20 -6 -28 -35 -10 -35 6 0 10 -7 10 -15 0 -22 -21 -18
-27 5 -3 11 -9 20 -14 20 -5 0 -9 18 -9 40 0 28 -4 40 -14 40 -8 0 -16 7 -20
15 -3 8 -12 12 -21 9 -17 -7 -21 11 -5 21 6 3 10 16 10 28 0 20 0 20 -14 1
-13 -17 -17 -17 -37 -5 -17 10 -24 10 -27 2 -6 -17 -23 -13 -20 5 4 24 -28 42
-49 28 -14 -9 -24 -7 -45 9 -14 11 -24 26 -21 33 6 17 55 18 71 2 9 -9 15 -9
24 0 9 9 8 12 -5 12 -23 0 -21 15 4 31 14 10 18 20 13 32 -6 17 -8 17 -25 1
-10 -9 -22 -13 -27 -10 -5 3 -7 -6 -4 -19 3 -18 0 -25 -12 -25 -9 0 -19 7 -22
15 -4 8 -15 15 -25 15 -10 0 -19 7 -19 15 0 11 -11 15 -36 15 -38 0 -74 15
-74 30 0 6 7 10 15 10 8 0 15 7 15 15 0 8 5 15 10 15 13 0 13 -17 0 -25 -20
-12 -9 -32 18 -34 60 -3 145 -1 150 3 2 3 1 18 -4 33 l-8 28 -4 -28 c-3 -22
-7 -27 -20 -22 -9 3 -30 9 -47 12 -16 3 -38 13 -48 21 -16 14 -16 16 -1 34 22
23 34 23 34 -2 0 -17 3 -18 25 -8 18 8 25 19 24 37 l-1 26 -10 -27 c-14 -41
-28 -34 -29 15 -1 23 -4 32 -6 20 -5 -25 -40 -40 -56 -24 -6 6 -15 11 -19 11
-13 0 -9 -38 5 -43 6 -3 0 -6 -15 -6 -22 -1 -28 4 -28 19 0 11 7 23 16 27 9 3
14 13 11 24 -3 12 -1 17 6 12 6 -4 8 0 4 9 -3 9 -1 20 5 26 6 6 6 12 -2 17 -7
4 -14 -1 -17 -14 -3 -12 -13 -21 -24 -21 -11 0 -19 -4 -19 -10 0 -5 -5 -10
-11 -10 -6 0 -9 8 -7 17 2 10 10 18 18 18 8 0 16 9 18 19 3 15 0 17 -14 12
-21 -8 -34 9 -34 45 0 16 -15 42 -40 69 -22 24 -40 48 -40 53 0 5 -13 7 -30 5
-16 -3 -30 0 -30 5 0 5 16 7 36 5 l36 -4 -5 54 c-6 57 -22 86 -43 78 -7 -3
-18 2 -25 10 -10 12 -8 17 7 28 18 14 18 15 -4 45 -12 17 -22 37 -22 46 0 24
-18 18 -22 -7 -2 -19 -10 -23 -43 -25 -22 0 -30 1 -19 4 12 2 25 12 28 21 7
21 28 55 40 63 4 4 3 10 -3 13 -20 13 -11 24 27 34 l37 9 -29 12 c-22 9 -32 9
-43 0 -10 -9 -17 -9 -24 -2 -6 6 -27 10 -47 8 -21 -1 -25 0 -9 2 15 2 27 9 27
16 0 8 3 8 12 -1 7 -7 19 -12 28 -12 13 1 12 3 -2 14 -22 17 -23 35 -1 51 14
11 13 13 -10 19 -15 3 -27 11 -27 16 0 6 -10 10 -22 11 -22 1 -22 1 2 9 14 4
35 5 48 3 12 -3 22 0 22 6 0 6 -9 11 -20 11 -11 0 -20 5 -20 11 0 5 -4 8 -9 5
-5 -3 -9 0 -8 7 1 43 -4 77 -13 77 -5 0 -10 -12 -10 -27 0 -16 -5 -35 -10 -43
-6 -10 -8 -2 -4 25 4 22 15 47 25 57 26 22 24 42 -5 57 -19 11 -25 23 -29 65
-3 28 -3 53 -1 55 9 10 17 -12 22 -59 2 -27 8 -50 13 -50 14 0 10 94 -5 115
-17 25 -10 125 9 125 8 0 15 -5 17 -12 2 -6 12 -9 21 -5 16 6 16 8 -3 27 -11
11 -20 33 -20 50 0 31 -16 41 -26 15 -4 -8 -11 -15 -16 -15 -6 0 -8 7 -4 15 3
9 0 15 -10 15 -9 0 -18 -9 -21 -20 -3 -11 -9 -18 -13 -15 -14 9 14 54 35 57
14 2 19 11 19 33 0 25 6 33 39 48 49 23 37 42 -26 40 -23 0 -34 2 -24 4 13 3
17 15 17 49 0 47 15 59 29 22 6 -18 9 -19 14 -5 4 10 2 17 -3 17 -6 0 -10 23
-10 50 l0 50 -42 1 -43 2 38 10 c20 6 37 14 37 17 0 10 -48 30 -73 30 -21 1
-21 2 6 23 15 13 27 30 27 38 0 8 -12 20 -27 26 -23 9 -3 11 107 14 104 3 76
5 -123 9 l-258 5 0 260 c1 143 -3 266 -8 274 -16 24 -23 -23 -15 -99 5 -49 3
-70 -5 -70 -7 0 -11 28 -12 83 -1 56 -4 74 -9 57 -8 -24 -8 -24 -9 -2 -1 25
-11 28 -29 10 -9 -9 -12 -9 -12 0 0 6 12 14 28 18 15 3 32 7 37 9 6 2 -68 4
-162 4 l-173 1 0 -1775z m357 1693 c-2 -13 -4 -3 -4 22 0 25 2 35 4 23 2 -13
2 -33 0 -45z m-107 32 c0 -5 -2 -10 -4 -10 -3 0 -8 5 -11 10 -3 6 -1 10 4 10
6 0 11 -4 11 -10z m51 -31 c11 -11 18 -23 15 -26 -7 -7 -46 26 -46 39 0 13 8
10 31 -13z m339 -509 c0 -5 -2 -10 -4 -10 -3 0 -8 5 -11 10 -3 6 -1 10 4 10 6
0 11 -4 11 -10z m-80 -80 c0 -5 -2 -10 -4 -10 -3 0 -8 5 -11 10 -3 6 -1 10 4
10 6 0 11 -4 11 -10z m110 -120 c0 -5 -4 -10 -10 -10 -5 0 -10 5 -10 10 0 6 5
10 10 10 6 0 10 -4 10 -10z m40 0 c0 -5 -4 -10 -10 -10 -5 0 -10 5 -10 10 0 6
5 10 10 10 6 0 10 -4 10 -10z m-135 -38 c-3 -3 -11 0 -18 7 -9 10 -8 11 6 5
10 -3 15 -9 12 -12z m145 -102 c0 -5 -18 -10 -40 -10 -22 0 -40 5 -40 10 0 6
18 10 40 10 22 0 40 -4 40 -10z m-70 -60 c0 -5 -4 -10 -9 -10 -6 0 -13 5 -16
10 -3 6 1 10 9 10 9 0 16 -4 16 -10z m-23 -156 c-3 -3 -12 -4 -19 -1 -8 3 -5
6 6 6 11 1 17 -2 13 -5z m23 -86 c0 -5 -5 -8 -11 -8 -5 0 -7 5 -4 10 3 6 1 10
-5 10 -6 0 -8 5 -4 11 6 11 23 -6 24 -23z m-45 -48 c8 -13 -15 -13 -35 0 -12
8 -11 10 7 10 12 0 25 -4 28 -10z m41 -96 c-3 -8 -11 -14 -18 -13 -10 0 -10 2
0 6 26 10 10 23 -30 25 l-43 1 43 4 c38 4 42 7 44 31 1 23 2 22 5 -6 3 -19 2
-40 -1 -48z m-54 -56 c-9 -9 -12 -7 -12 12 0 19 3 21 12 12 9 -9 9 -15 0 -24z
m74 21 c10 -17 -13 -36 -27 -22 -12 12 -4 33 11 33 5 0 12 -5 16 -11z m22
-146 c-10 -2 -26 -2 -35 0 -10 3 -2 5 17 5 19 0 27 -2 18 -5z m41 -62 c9 -6
10 -11 2 -15 -6 -4 -11 -3 -11 3 0 5 -10 12 -22 14 -20 4 -20 4 -3 5 11 1 26
-2 34 -7z m-19 -31 c11 -7 3 -10 -30 -10 -33 0 -41 3 -30 10 8 5 22 10 30 10
8 0 22 -5 30 -10z m-70 -35 c0 -8 -4 -15 -10 -15 -5 0 -7 7 -4 15 4 8 8 15 10
15 2 0 4 -7 4 -15z m58 -2 c-10 -2 -26 -2 -35 0 -10 3 -2 5 17 5 19 0 27 -2
18 -5z m-13 -43 c3 -5 -3 -10 -15 -10 -12 0 -18 5 -15 10 3 6 10 10 15 10 5 0
12 -4 15 -10z m51 -10 c20 0 17 -14 -8 -36 -12 -10 -18 -13 -14 -6 4 7 2 12
-6 12 -10 0 -11 2 0 8 7 5 11 15 9 23 -2 8 -2 11 0 7 3 -5 11 -8 19 -8z m-176
0 c0 -5 -4 -10 -10 -10 -5 0 -10 5 -10 10 0 6 5 10 10 10 6 0 10 -4 10 -10z
m127 -26 c-3 -3 -12 -4 -19 -1 -8 3 -5 6 6 6 11 1 17 -2 13 -5z m-7 -46 c0
-16 -3 -19 -11 -11 -6 6 -8 16 -5 22 11 17 16 13 16 -11z m126 -72 c18 -19 18
-25 -3 -25 -10 0 -33 -3 -50 -7 -22 -4 -33 -2 -33 5 0 6 8 11 19 11 10 0 24 7
31 15 15 18 18 19 36 1z m-109 -52 c-3 -3 -12 -4 -19 -1 -8 3 -5 6 6 6 11 1
17 -2 13 -5z m107 -86 c-4 -6 -1 -14 6 -18 7 -4 9 -13 5 -20 -12 -19 -36 38
-28 68 l6 26 9 -23 c4 -13 5 -27 2 -33z m56 12 c0 -5 -4 -10 -10 -10 -5 0 -10
5 -10 10 0 6 5 10 10 10 6 0 10 -4 10 -10z m20 -30 c0 -21 -15 -27 -25 -10 -7
12 2 30 16 30 5 0 9 -9 9 -20z m20 -144 c0 -3 -4 -8 -10 -11 -5 -3 -10 -1 -10
4 0 6 5 11 10 11 6 0 10 -2 10 -4z m60 -123 c0 -55 -5 -54 -14 5 -4 26 -2 42
4 42 5 0 10 -21 10 -47z m-80 1 c0 -8 -4 -12 -10 -9 -5 3 -10 10 -10 16 0 5 5
9 10 9 6 0 10 -7 10 -16z m77 -126 c-3 -8 -6 -5 -6 6 -1 11 2 17 5 13 3 -3 4
-12 1 -19z m63 -8 c0 -5 -6 -10 -14 -10 -8 0 -18 5 -21 10 -3 6 3 10 14 10 12
0 21 -4 21 -10z m120 -214 c0 -3 -4 -8 -10 -11 -5 -3 -10 -1 -10 4 0 6 5 11
10 11 6 0 10 -2 10 -4z m90 -40 c0 -9 -30 -14 -35 -6 -4 6 3 10 14 10 12 0 21
-2 21 -4z m78 -24 c2 -7 -3 -12 -12 -12 -9 0 -16 7 -16 16 0 17 22 14 28 -4z
m-88 -32 c0 -5 -4 -10 -10 -10 -5 0 -10 5 -10 10 0 6 5 10 10 10 6 0 10 -4 10
-10z m140 -18 c0 -26 -2 -27 -40 -24 -47 5 -54 22 -9 22 24 0 30 4 25 15 -3 9
0 15 9 15 10 0 15 -10 15 -28z m93 -129 c-7 -2 -13 -11 -13 -19 0 -8 -4 -14
-10 -14 -5 0 -10 6 -10 14 0 14 15 24 35 24 6 0 4 -2 -2 -5z m107 -43 c0 -5
-4 -10 -10 -10 -5 0 -10 5 -10 10 0 6 5 10 10 10 6 0 10 -4 10 -10z m220 -49
c0 -6 -4 -13 -10 -16 -5 -3 -10 1 -10 9 0 9 5 16 10 16 6 0 10 -4 10 -9z m190
-31 c0 -22 -4 -40 -10 -40 -5 0 -10 18 -10 40 0 22 5 40 10 40 6 0 10 -18 10
-40z m-120 6 c0 -7 -9 -12 -20 -11 -24 2 -34 10 -26 23 8 13 46 3 46 -12z
m287 -122 c-3 -3 -12 -4 -19 -1 -8 3 -5 6 6 6 11 1 17 -2 13 -5z m233 -74 c0
-5 -4 -10 -10 -10 -5 0 -10 5 -10 10 0 6 5 10 10 10 6 0 10 -4 10 -10z m27
-52 c-3 -8 -6 -5 -6 6 -1 11 2 17 5 13 3 -3 4 -12 1 -19z m59 -35 c-11 -11
-19 6 -11 24 8 17 8 17 12 0 3 -10 2 -21 -1 -24z m499 -53 c3 -6 2 -10 -3 -10
-5 0 -14 -11 -20 -24 -5 -13 -20 -26 -31 -29 -17 -4 -21 -1 -21 18 0 18 4 22
19 18 10 -3 22 0 25 6 5 7 -3 11 -18 11 -14 0 -26 4 -26 8 0 12 68 13 75 2z
m-285 -26 c0 -2 -9 -4 -21 -4 -11 0 -18 4 -14 10 5 8 35 3 35 -6z m50 6 c0 -5
-8 -10 -17 -10 -15 0 -16 2 -3 10 19 12 20 12 20 0z m133 -17 c-7 -2 -19 -2
-25 0 -7 3 -2 5 12 5 14 0 19 -2 13 -5z m162 -13 c4 -6 -7 -10 -24 -10 -17 0
-31 5 -31 10 0 6 11 10 24 10 14 0 28 -4 31 -10z m-160 -30 c3 -5 -3 -10 -15
-10 -12 0 -18 5 -15 10 3 6 10 10 15 10 5 0 12 -4 15 -10z m-40 -20 c3 -5 1
-10 -4 -10 -6 0 -11 5 -11 10 0 6 2 10 4 10 3 0 8 -4 11 -10z m65 -12 c0 -18
-2 -20 -9 -8 -6 8 -7 18 -5 22 9 14 14 9 14 -14z"/>
<path d="M2719 3668 c-51 -64 -89 -116 -89 -122 0 -3 14 -6 30 -6 l30 0 0
-125 0 -125 618 2 617 3 3 57 3 58 -553 2 -553 3 0 60 c0 60 0 60 32 65 l32 5
-60 80 c-33 44 -64 81 -68 83 -4 1 -23 -17 -42 -40z"/>
<path d="M1011 3484 c0 -11 3 -14 6 -6 3 7 2 16 -1 19 -3 4 -6 -2 -5 -13z"/>
<path d="M5380 3470 c-43 -7 -266 -38 -585 -80 -265 -35 -250 -31 -253 -63 -4
-32 -5 -32 121 -13 90 15 142 15 155 0 4 -4 -12 -4 -35 -1 -24 3 -43 1 -43 -3
0 -8 -19 -12 -115 -26 -22 -3 -44 -10 -49 -15 -19 -18 28 -22 121 -10 53 6 98
9 101 7 2 -3 2 -12 -1 -19 -5 -13 -36 -22 -134 -43 -19 -4 -23 -11 -23 -45 l0
-41 50 4 c28 1 50 2 50 1 0 -1 -27 -44 -61 -95 -84 -130 -175 -318 -205 -424
-68 -248 15 -392 312 -541 l114 -58 0 -67 0 -67 -77 -37 c-189 -88 -342 -133
-485 -141 -86 -5 -98 -4 -98 10 0 9 -11 41 -24 70 -26 59 -49 73 -89 52 -24
-12 -26 -11 -52 37 -44 81 -105 168 -117 168 -6 0 -87 -49 -179 -110 -93 -60
-173 -110 -178 -110 -6 0 -15 -9 -21 -20 -9 -17 -3 -32 38 -93 26 -39 93 -146
147 -237 54 -91 107 -175 118 -188 20 -22 62 -30 69 -13 3 8 63 48 260 173 74
47 80 62 47 108 -35 46 -22 56 79 63 118 9 290 54 435 115 l117 50 0 -123 c0
-74 -4 -126 -10 -130 -11 -7 -117 -19 -285 -33 l-90 -7 -1 -39 c0 -34 -5 -41
-38 -58 -55 -28 -147 -125 -183 -194 -47 -88 -66 -181 -59 -279 3 -44 8 -89
12 -101 5 -19 1 -22 -39 -26 -86 -10 -217 -88 -217 -129 0 -16 8 -19 55 -19
38 0 54 -4 53 -12 -2 -7 7 -14 19 -16 15 -2 23 -11 25 -30 l3 -27 138 -3 c136
-3 138 -3 190 -36 72 -46 139 -67 232 -73 99 -6 180 8 263 47 l64 30 44 -49
c57 -63 133 -114 215 -142 96 -33 249 -31 342 4 228 88 363 314 329 551 -18
122 -65 213 -157 302 -65 63 -75 77 -75 108 0 31 3 35 33 41 51 12 64 53 27
93 l-21 22 21 62 c26 79 29 177 6 244 -10 31 -37 75 -67 109 -27 31 -47 60
-44 65 3 5 1 11 -5 15 -5 3 -10 29 -10 57 l0 51 48 -6 c26 -3 83 -1 127 5 88
11 115 29 115 77 -1 50 -19 61 -107 61 -44 0 -105 -5 -136 -10 l-56 -11 -35
38 -34 38 -95 -2 -94 -3 23 85 c12 46 25 114 29 150 7 61 16 78 30 55 3 -5 20
-10 36 -10 100 0 172 128 110 194 -14 14 -35 26 -48 26 -29 0 -29 0 3 61 22
45 27 49 42 37 15 -11 16 -11 4 3 -17 23 -4 52 20 46 15 -4 17 -3 8 8 -9 10 0
31 35 90 79 130 108 200 102 248 -2 23 -8 49 -12 59 -4 10 -1 18 7 21 7 2 1 2
-14 0 -23 -4 -30 1 -43 29 -8 19 -12 23 -9 9 6 -22 4 -23 -29 -17 -21 4 -51 1
-76 -7 l-40 -14 -6 46 c-10 77 -29 108 -72 120 -41 12 -47 12 -113 1z m55 -70
c27 -7 27 -8 5 -8 -14 0 -36 4 -50 8 -20 6 -21 8 -5 8 11 0 34 -4 50 -8z m70
-1 c11 -17 2 -18 -19 -3 -17 12 -17 14 -4 14 9 0 20 -5 23 -11z m-28 -41 c-3
-8 -6 -5 -6 6 -1 11 2 17 5 13 3 -3 4 -12 1 -19z m-387 8 c0 -2 -7 -6 -15 -10
-8 -3 -15 -1 -15 4 0 6 7 10 15 10 8 0 15 -2 15 -4z m57 -2 c-3 -3 -12 -4 -19
-1 -8 3 -5 6 6 6 11 1 17 -2 13 -5z m-199 -31 c-10 -2 -26 -2 -35 0 -10 3 -2
5 17 5 19 0 27 -2 18 -5z m515 0 c-7 -2 -21 -2 -30 0 -10 3 -4 5 12 5 17 0 24
-2 18 -5z m-148 -13 c-27 -12 -43 -12 -25 0 8 5 22 9 30 9 10 0 8 -3 -5 -9z
m168 -15 c-3 -9 -8 -14 -10 -11 -3 3 -2 9 2 15 9 16 15 13 8 -4z m-368 -5 c-3
-5 -11 -10 -16 -10 -6 0 -7 5 -4 10 3 6 11 10 16 10 6 0 7 -4 4 -10z m-147
-18 c8 -6 2 -9 -18 -9 -20 0 -26 3 -18 9 7 4 15 8 18 8 3 0 11 -4 18 -8z m502
-27 c0 -5 -4 -4 -9 4 -8 12 -14 13 -35 3 -35 -16 -33 -6 1 12 28 14 43 7 43
-19z m-625 5 c-27 -12 -43 -12 -25 0 8 5 22 9 30 9 10 0 8 -3 -5 -9z m505 6
c0 -2 -7 -7 -16 -10 -8 -3 -12 -2 -9 4 6 10 25 14 25 6z m372 -30 c7 4 8 2 4
-5 -9 -13 -26 -5 -25 12 0 9 2 8 6 -1 2 -6 10 -9 15 -6z m-348 -4 c3 -5 -1 -9
-9 -9 -8 0 -12 4 -9 9 3 4 7 8 9 8 2 0 6 -4 9 -8z m209 -9 c-3 -7 -11 -13 -18
-13 -7 0 -15 6 -18 13 -3 8 3 13 18 13 15 0 21 -5 18 -13z m-312 -23 l115 0
22 -46 c12 -25 43 -67 67 -93 25 -27 45 -57 45 -68 0 -11 -20 -92 -45 -179
-25 -87 -45 -167 -45 -176 0 -33 22 -29 58 10 41 45 84 61 107 42 30 -25 12
-91 -35 -127 -23 -19 -69 -15 -101 8 -36 25 -49 18 -49 -27 0 -94 -79 -362
-146 -496 l-34 -68 -48 -1 c-26 0 -58 -2 -71 -5 -26 -5 -32 -2 -278 117 -141
69 -170 87 -230 146 -64 62 -72 74 -88 137 -18 66 -18 73 -2 152 32 157 96
291 245 522 58 88 72 104 105 114 26 8 37 17 37 31 0 19 5 20 128 14 70 -4
179 -7 243 -7z m274 -8 c6 -4 8 -22 5 -41 l-5 -34 -32 33 c-18 19 -33 37 -33
42 0 10 51 10 65 0z m28 -177 c-3 -9 -8 -14 -10 -11 -3 3 -2 9 2 15 9 16 15
13 8 -4z m26 -934 c2 -54 -1 -70 -14 -75 -14 -5 -15 5 -13 78 4 104 24 101 27
-3z m296 48 c11 -17 -2 -23 -60 -24 -30 -1 -61 -7 -69 -14 -10 -8 -16 -9 -21
-1 -3 5 -24 10 -46 10 -21 0 -39 4 -39 9 0 9 57 18 155 24 28 2 55 4 62 5 6 1
15 -3 18 -9z m-295 -149 c0 -13 -5 -18 -15 -14 -16 7 -19 17 -8 27 12 13 23 7
23 -13z m-1644 -9 c-4 -5 -3 -11 1 -13 13 -5 57 -69 92 -132 32 -58 33 -59 17
-100 -20 -52 -20 -65 1 -88 20 -22 59 -24 71 -2 7 12 18 -1 51 -58 l42 -73
-33 -28 c-18 -15 -55 -41 -83 -57 -89 -52 -109 -65 -123 -78 -34 -31 -52 -34
-72 -10 -11 13 -17 30 -14 38 3 8 2 11 -2 7 -4 -3 -32 37 -62 91 -30 53 -68
113 -84 133 -15 20 -28 41 -28 45 0 5 -14 27 -30 48 -16 21 -27 43 -23 49 4 6
1 7 -7 2 -10 -6 -12 -4 -7 9 4 9 3 14 -2 11 -5 -3 -12 -1 -15 4 -8 13 34 42
48 34 6 -3 8 -3 4 2 -10 10 29 38 41 31 5 -4 11 -2 13 4 3 11 188 139 201 140
5 0 6 -4 3 -9z m1264 -17 c0 -14 -3 -14 -15 -4 -8 7 -15 14 -15 16 0 2 7 4 15
4 8 0 15 -7 15 -16z m-113 -46 c-3 -7 -5 -2 -5 12 0 14 2 19 5 13 2 -7 2 -19
0 -25z m100 14 c6 -10 14 -61 17 -113 11 -163 18 -232 32 -313 8 -44 12 -82 9
-84 -7 -8 -95 -15 -95 -8 0 4 16 37 35 75 19 38 32 70 31 72 -7 8 -68 315 -68
341 1 48 19 62 39 30z m-62 -11 c5 -17 -34 -180 -71 -295 l-16 -48 37 -84 c21
-47 36 -86 34 -88 -7 -6 -119 -13 -119 -7 1 12 30 188 44 261 8 41 20 110 27
152 6 43 16 75 20 72 5 -3 12 8 15 25 7 35 20 40 29 12z m545 -157 c45 -75 45
-122 0 -233 -43 -103 -66 -119 -56 -40 3 30 7 116 8 192 1 75 4 137 8 137 3 0
21 -25 40 -56z m-1514 35 c4 -7 0 -15 -8 -20 -9 -5 -19 -21 -22 -36 -14 -58
-28 -83 -48 -83 -18 0 -20 5 -14 32 3 17 18 51 32 75 24 42 46 54 60 32z
m1414 -21 c0 -10 -4 -16 -10 -13 -5 3 -10 2 -10 -4 0 -5 4 -12 9 -15 5 -4 7
-57 5 -119 -6 -161 -8 -176 -21 -181 -8 -3 -11 34 -12 137 0 90 3 135 9 122 7
-16 9 -17 9 -3 1 9 -3 20 -9 23 -11 7 -14 68 -4 78 11 11 34 -5 34 -25z
m-1390 -46 c0 -8 7 -30 16 -49 11 -22 13 -38 7 -44 -13 -13 -65 64 -58 86 16
51 16 50 25 35 6 -8 10 -21 10 -28z m74 -77 c4 -10 -1 -15 -14 -15 -11 0 -20
7 -20 15 0 8 6 15 14 15 8 0 16 -7 20 -15z m566 -254 c0 -21 -26 -31 -79 -31
-41 0 -71 -24 -71 -57 0 -16 -6 -23 -19 -23 -11 0 -26 -3 -35 -6 -14 -5 -16 3
-16 54 l0 61 43 5 c154 20 177 20 177 -3z m680 -27 c0 -36 16 -61 49 -78 25
-13 30 -13 44 1 14 14 16 13 22 -21 4 -20 4 -47 1 -61 -5 -18 2 -41 25 -81 29
-53 32 -84 9 -84 -6 0 -24 29 -40 64 -16 36 -34 67 -39 70 -14 9 -30 -17 -54
-90 -14 -45 -27 -69 -37 -69 -22 0 -16 42 14 105 45 93 31 106 -64 60 -44 -21
-74 -30 -87 -26 -17 7 -17 8 4 25 12 10 52 26 90 35 90 23 105 47 57 89 -48
41 -54 87 -13 87 14 0 19 -7 19 -26z m-954 -66 c2 -24 -3 -28 -63 -47 -70 -23
-84 -22 -62 5 19 23 101 75 113 71 5 -2 10 -15 12 -29z m1084 22 c0 -5 -4 -10
-10 -10 -5 0 -10 5 -10 10 0 6 5 10 10 10 6 0 10 -4 10 -10z m-430 -30 c8 -5
11 -12 8 -16 -4 -3 -14 1 -23 10 -18 17 -9 21 15 6z m-51 -22 c-10 -7 -8 -8 9
-5 19 5 21 3 11 -9 -10 -13 -14 -12 -30 2 -18 16 -39 12 -39 -7 0 -6 5 -7 12
-3 7 5 8 3 3 -6 -6 -10 -4 -12 11 -6 22 8 17 3 -43 -43 -24 -18 -43 -28 -43
-22 0 6 5 11 11 11 6 0 8 7 5 16 -3 8 -2 13 3 9 20 -12 43 7 37 31 -10 37 1
51 35 46 23 -3 28 -7 18 -14z m-101 5 c-10 -2 -26 -2 -35 0 -10 3 -2 5 17 5
19 0 27 -2 18 -5z m-118 -21 c0 -26 -11 -34 -27 -21 -20 17 -16 39 7 39 13 0
20 -7 20 -18z m36 -17 c-3 -8 -11 -15 -18 -14 -10 0 -10 2 0 6 6 2 12 14 13
26 0 12 3 16 6 9 3 -7 2 -19 -1 -27z m-87 8 c-3 -35 1 -43 25 -43 13 0 26 -6
28 -12 7 -19 -27 -50 -49 -46 -15 3 -18 13 -18 61 0 31 4 57 8 57 5 0 7 -8 6
-17z m181 -8 c0 -10 -9 -15 -27 -14 -24 2 -25 2 -5 6 12 2 22 9 22 14 0 5 2 9
5 9 3 0 5 -7 5 -15z m-676 -92 c-5 -54 -2 -80 15 -130 12 -34 21 -65 21 -68 0
-3 -32 -5 -71 -5 l-71 0 7 48 c4 26 14 67 22 92 16 49 63 130 76 130 4 0 4
-30 1 -67z m596 58 c0 -5 -5 -11 -11 -13 -16 -5 2 -39 20 -36 10 3 15 13 14
31 -1 22 1 24 12 14 11 -10 11 -15 0 -33 -10 -16 -11 -24 -2 -33 8 -8 8 -14 0
-22 -8 -8 -13 -7 -18 2 -5 8 -4 10 3 5 7 -4 12 -2 12 4 0 15 -30 24 -42 12 -7
-7 -7 -16 1 -29 7 -14 7 -20 -2 -20 -11 0 -15 62 -9 115 2 14 22 17 22 3z
m308 -51 c-15 -23 -18 -24 -38 -9 -13 9 -12 10 3 5 11 -3 20 0 23 9 4 8 10 15
15 15 5 0 4 -9 -3 -20z m-441 -37 c-3 -10 -5 -4 -5 12 0 17 2 24 5 18 2 -7 2
-21 0 -30z m28 -33 c-6 -20 -35 -28 -35 -10 0 6 6 9 13 8 8 -2 11 8 10 27 -2
25 0 27 8 12 6 -9 7 -26 4 -37z m49 25 c-5 -20 -1 -26 20 -35 14 -5 26 -15 26
-22 0 -9 -3 -9 -12 0 -7 7 -21 12 -32 12 -10 0 -16 3 -13 7 4 3 2 12 -4 20 -9
10 -8 17 1 28 18 21 21 19 14 -10z m326 0 c14 -18 13 -19 -1 -8 -9 7 -19 10
-23 6 -4 -4 -4 1 0 10 3 10 7 17 8 15 1 -2 8 -12 16 -23z m43 4 c-14 -14 -6
-39 13 -39 21 0 30 30 13 42 -12 8 -11 9 1 5 17 -4 23 -73 9 -97 -6 -10 -7 -6
-3 13 5 24 3 27 -19 27 -17 0 -26 7 -30 21 -5 19 12 53 22 43 3 -2 0 -9 -6
-15z m-87 -1 c5 -7 3 -8 -5 -3 -9 5 -12 2 -9 -11 2 -11 12 -19 24 -18 12 0 25
-10 32 -24 11 -24 11 -24 -8 -7 -10 9 -23 14 -28 11 -12 -7 -36 39 -28 53 9
14 13 14 22 -1z m188 -40 c7 -5 7 -8 -2 -8 -8 0 -13 -10 -12 -22 5 -57 1 -65
-26 -60 -24 4 -26 2 -22 -24 3 -16 3 -24 1 -17 -2 7 -10 10 -17 7 -13 -5 -58
41 -49 50 4 3 12 -3 20 -14 18 -25 30 -25 38 -1 4 13 12 17 25 14 22 -6 22 -4
22 67 0 25 2 38 5 30 4 -8 11 -18 17 -22z m-821 8 c3 -8 15 -14 26 -13 11 0
18 5 15 9 -3 4 -11 5 -19 1 -8 -3 -15 0 -15 7 0 8 12 10 42 5 23 -4 60 -7 82
-7 71 2 76 -3 76 -64 0 -30 -4 -54 -10 -54 -5 0 -7 6 -4 13 3 8 -3 13 -15 13
-11 0 -17 -5 -14 -10 4 -5 -9 -7 -33 -3 -21 4 -52 7 -67 7 -25 0 -27 3 -22 23
7 20 6 21 -7 4 -13 -18 -14 -18 -31 0 -20 23 -34 83 -19 83 5 0 12 -6 15 -14z
m-94 -41 c0 -5 -4 -3 -9 5 -5 8 -9 22 -9 30 0 16 17 -16 18 -35z m1100 24
c-15 -9 -32 -2 -24 11 3 5 13 6 21 3 12 -4 13 -8 3 -14z m197 -74 c25 -50 39
-94 42 -131 l5 -55 -44 3 -44 3 -7 50 c-10 74 -16 194 -10 200 13 13 23 0 58
-70z m-901 45 c-4 -12 -1 -27 5 -35 8 -9 8 -15 2 -15 -14 0 -24 29 -17 51 4
11 9 19 11 19 3 0 2 -9 -1 -20z m49 4 c8 -20 -2 -54 -15 -54 -13 0 -11 14 4
29 10 11 10 14 0 18 -15 5 -18 23 -4 23 5 0 12 -7 15 -16z m372 -22 c-4 -3
-11 0 -16 8 -15 24 -11 33 6 15 9 -9 13 -19 10 -23z m270 -16 c2 -29 0 -33
-11 -23 -8 8 -10 16 -4 23 5 6 6 20 3 30 -4 11 -4 16 1 12 4 -4 9 -23 11 -42z
m41 12 c-3 -7 -5 -2 -5 12 0 14 2 19 5 13 2 -7 2 -19 0 -25z m-654 7 c-3 -9
-8 -14 -10 -11 -3 3 -2 9 2 15 9 16 15 13 8 -4z m197 0 c0 -8 -2 -15 -4 -15
-2 0 -6 7 -10 15 -3 8 -1 15 4 15 6 0 10 -7 10 -15z m95 5 c3 -5 1 -10 -4 -10
-6 0 -11 5 -11 10 0 6 2 10 4 10 3 0 8 -4 11 -10z m-140 -102 l0 -103 -27 0
c-20 0 -28 6 -31 23 -4 21 -3 22 14 6 28 -26 36 -10 33 68 -2 63 2 108 10 108
1 0 2 -46 1 -102z m99 53 c17 -18 17 -20 -1 -30 -16 -9 -16 -12 -3 -21 19 -12
33 -13 25 -1 -3 5 0 13 6 17 8 4 9 3 5 -4 -4 -7 -2 -12 4 -12 7 0 10 -6 7 -12
-2 -7 -10 -12 -17 -10 -7 2 -20 0 -28 -3 -11 -4 -12 -8 -2 -20 10 -12 10 -18
0 -30 -6 -8 -9 -19 -5 -25 3 -5 2 -10 -3 -10 -14 0 -8 133 6 138 19 6 -6 32
-30 32 -17 0 -19 -5 -14 -27 5 -23 4 -25 -5 -10 -25 41 22 65 55 28z m-326
-57 c0 -25 -3 -43 -5 -40 -9 8 -11 96 -2 91 4 -3 8 -26 7 -51z m49 31 c-7 -13
-14 -20 -15 -14 -5 14 6 39 17 39 5 0 4 -11 -2 -25z m553 15 c0 -5 -2 -10 -4
-10 -3 0 -8 5 -11 10 -3 6 -1 10 4 10 6 0 11 -4 11 -10z m40 -4 c0 -8 4 -16 9
-18 4 -1 -1 -12 -12 -23 -19 -20 -20 -20 -9 0 7 13 7 26 1 37 -6 12 -6 18 1
18 5 0 10 -6 10 -14z m-138 -40 c1 -20 -1 -38 -4 -41 -3 -3 -6 15 -6 41 -1 54
8 55 10 0z m241 17 c-7 -3 -13 -11 -13 -19 0 -8 -5 -14 -11 -14 -5 0 -7 6 -3
13 15 26 27 37 33 31 3 -4 0 -9 -6 -11z m33 -10 c-10 -10 -19 5 -10 18 6 11 8
11 12 0 2 -7 1 -15 -2 -18z m-917 -15 c41 -67 44 -74 17 -43 -33 36 -50 65
-39 65 5 0 14 -10 22 -22z m741 -6 c-6 -2 -8 -8 -5 -13 4 -5 -2 -6 -11 -2 -11
4 -13 8 -6 11 7 2 12 11 12 20 0 15 2 15 10 2 6 -10 6 -16 0 -18z m-330 8 c0
-5 -5 -10 -11 -10 -5 0 -7 5 -4 10 3 6 8 10 11 10 2 0 4 -4 4 -10z m-233 -37
c-3 -10 -5 -4 -5 12 0 17 2 24 5 18 2 -7 2 -21 0 -30z m746 17 c-3 -12 -8 -19
-11 -16 -5 6 5 36 12 36 2 0 2 -9 -1 -20z m-1191 -44 l26 -53 -96 5 c-53 2
-98 5 -99 6 0 0 -4 22 -8 49 l-7 47 79 0 79 0 26 -54z m598 34 c0 -5 -4 -10
-10 -10 -5 0 -10 5 -10 10 0 6 5 10 10 10 6 0 10 -4 10 -10z m88 -10 c-7 -11
-16 -20 -20 -20 -11 0 -10 9 5 25 18 21 29 18 15 -5z m134 8 c7 -17 -1 -38
-14 -38 -7 0 -7 4 1 13 8 10 7 17 -1 25 -8 8 -9 12 -1 12 6 0 13 -6 15 -12z
m338 2 c0 -5 -4 -10 -10 -10 -5 0 -10 -6 -10 -14 0 -16 27 -29 41 -20 5 3 9 0
9 -5 0 -17 -42 -13 -55 6 -10 13 -10 21 -1 35 12 20 26 24 26 8z m-61 -14 c7
-8 8 -22 3 -36 -6 -17 -11 -20 -17 -11 -4 8 -2 16 4 21 9 5 8 11 -4 24 -9 9
-12 16 -7 16 5 0 15 -6 21 -14z m-319 -10 c0 -7 10 -20 22 -28 21 -14 21 -15
-10 -15 -23 0 -29 3 -20 9 10 8 10 11 1 15 -15 6 -17 33 -3 33 6 0 10 -6 10
-14z m89 -35 c-1 -13 -2 -13 -6 2 -2 9 -9 17 -14 17 -5 0 -9 5 -9 11 0 8 5 8
15 -1 8 -7 14 -20 14 -29z m131 19 c58 -58 -20 -142 -88 -94 -27 18 -30 69 -5
96 21 24 68 23 93 -2z m60 -12 c0 -12 -3 -18 -7 -14 -11 10 -12 36 -2 36 5 0
9 -10 9 -22z m-621 -13 c0 -11 -3 -14 -6 -7 -2 6 -11 12 -19 12 -16 0 -19 -26
-4 -35 8 -5 8 -11 0 -20 -6 -7 -9 -19 -7 -26 2 -8 2 -11 0 -6 -3 4 -9 4 -15 1
-6 -4 -5 3 2 16 6 12 9 29 6 37 -10 25 2 49 24 49 14 0 20 -7 19 -21z m256 5
c-3 -5 -10 -10 -16 -10 -5 0 -9 5 -9 10 0 6 7 10 16 10 8 0 12 -4 9 -10z m651
-91 c-8 -49 -46 -132 -80 -172 l-23 -28 -86 84 c-48 47 -87 87 -87 90 0 3 45
9 100 12 56 4 97 12 94 17 -14 22 6 38 47 38 l42 0 -7 -41z m-898 6 c-3 -3 -9
2 -12 12 -6 14 -5 15 5 6 7 -7 10 -15 7 -18z m142 15 c0 -5 -4 -10 -10 -10 -5
0 -10 5 -10 10 0 6 5 10 10 10 6 0 10 -4 10 -10z m55 0 c3 -5 1 -10 -4 -10 -6
0 -11 5 -11 10 0 6 2 10 4 10 3 0 8 -4 11 -10z m95 0 c0 -5 -4 -10 -10 -10 -5
0 -10 5 -10 10 0 6 5 10 10 10 6 0 10 -4 10 -10z m40 6 c0 -3 -4 -8 -10 -11
-5 -3 -10 -1 -10 4 0 6 5 11 10 11 6 0 10 -2 10 -4z m57 -2 c-3 -3 -12 -4 -19
-1 -8 3 -5 6 6 6 11 1 17 -2 13 -5z m-85 -137 c-46 -46 -79 -87 -75 -92 4 -4
2 -5 -4 -1 -7 4 -13 13 -13 20 0 8 -7 19 -16 27 -20 17 -65 105 -57 113 4 3
38 6 77 7 39 0 91 4 116 8 25 4 47 6 49 4 3 -2 -32 -41 -77 -86z m178 -63 l0
-143 -32 5 c-59 10 -100 26 -150 57 l-49 31 102 102 c60 61 107 100 115 97 11
-4 14 -37 14 -149z m180 51 c55 -55 100 -102 100 -105 0 -9 -78 -52 -119 -67
-18 -7 -53 -15 -77 -19 l-44 -6 0 145 c0 79 3 146 6 149 14 15 42 -5 134 -97z
m-646 43 c8 -13 18 -35 21 -49 6 -24 2 -28 -55 -53 -33 -15 -85 -30 -115 -33
-49 -5 -55 -4 -55 13 0 35 14 41 103 49 l88 7 -7 31 c-3 18 -11 38 -16 45 -8
8 -6 12 6 12 8 0 22 -10 30 -22z m-77 -28 c-15 -5 -112 -13 -215 -19 -103 -7
-209 -13 -237 -16 -27 -2 -98 -7 -157 -11 -95 -5 -108 -4 -108 10 0 9 8 16 18
16 9 0 51 2 92 4 41 2 158 7 260 11 102 4 186 8 187 9 1 1 44 3 95 4 66 1 85
-1 65 -8z m-234 -85 l17 -24 -52 15 c-72 21 -82 34 -27 34 35 -1 48 -6 62 -25z
m77 15 c0 -5 -11 -10 -24 -10 -14 0 -28 5 -31 10 -4 6 7 10 24 10 17 0 31 -4
31 -10z"/>
<path d="M4815 3071 c-46 -28 -65 -63 -65 -122 0 -40 6 -60 25 -85 45 -59 134
-69 192 -20 l28 24 -3 -44 c-5 -52 25 -119 64 -148 34 -24 102 -32 149 -16 21
7 62 37 95 70 114 114 132 264 39 332 -64 48 -201 9 -277 -78 l-39 -44 -7 38
c-14 88 -126 139 -201 93z m138 -42 c41 -34 47 -65 23 -123 -29 -70 -131 -83
-181 -24 -38 45 -35 100 9 144 46 46 96 47 149 3z m353 16 c46 -19 68 -70 59
-134 -9 -58 -27 -92 -78 -148 -52 -57 -88 -75 -148 -76 -52 -1 -80 16 -105 65
-46 89 28 235 146 287 55 24 80 25 126 6z"/>
<path d="M4823 3020 c-39 -16 -40 -70 -1 -91 29 -16 70 14 66 48 -4 33 -36 54
-65 43z"/>
<path d="M5071 2924 c-26 -33 -26 -45 0 -78 52 -66 152 5 102 73 -29 38 -74
40 -102 5z"/>
<path d="M4723 2768 c-65 -70 -25 -171 81 -204 63 -20 96 -14 130 23 37 40 42
76 16 119 -27 42 -33 40 -20 -7 14 -49 13 -57 -15 -84 -30 -31 -73 -32 -130
-5 -94 46 -85 174 11 156 27 -6 35 -4 32 6 -3 7 -22 14 -44 16 -31 2 -44 -2
-61 -20z"/>
<path d="M5511 2629 c-1 -9 -11 -21 -23 -28 -22 -11 -22 -11 4 -6 16 3 28 0
31 -8 4 -8 5 -7 6 3 0 22 -17 60 -18 39z"/>
<path d="M5203 2283 c3 -5 -65 -8 -151 -8 -164 0 -296 -11 -322 -27 -10 -6 2
-7 35 -4 111 13 305 18 377 12 71 -7 78 -10 87 -34 l9 -27 1 28 c1 32 -15 67
-30 67 -6 0 -8 -3 -6 -7z"/>
<path d="M3946 1739 c-21 -16 -43 -26 -49 -22 -5 3 -7 2 -4 -4 3 -5 -12 -20
-34 -32 -21 -12 -37 -26 -34 -31 7 -11 167 90 173 108 6 19 -10 13 -52 -19z"/>
<path d="M4083 1500 c-40 -28 -73 -48 -73 -45 0 3 -8 -3 -19 -14 -10 -10 -25
-21 -32 -23 -8 -3 -11 -9 -7 -13 4 -4 20 0 35 9 l28 17 -24 -21 c-24 -21 -22
-42 2 -22 8 7 18 8 22 4 5 -4 5 -2 2 4 -4 7 7 19 26 28 55 29 132 78 139 89
13 21 0 19 -39 -5 -57 -36 -71 -42 -43 -19 14 11 33 23 43 27 13 4 26 34 15
34 -2 0 -36 -23 -75 -50z"/>
<path d="M4897 1183 c-4 -3 -7 -12 -7 -20 0 -18 37 -16 44 3 9 24 7 31 -4 14
-6 -10 -10 -11 -10 -2 0 13 -13 16 -23 5z"/>
<path d="M5435 810 c-3 -5 -1 -10 4 -10 6 0 11 5 11 10 0 6 -2 10 -4 10 -3 0
-8 -4 -11 -10z"/>
<path d="M786 3165 c-4 -11 -2 -21 6 -26 14 -9 35 0 21 10 -6 3 -12 13 -15 20
-3 12 -6 11 -12 -4z"/>
<path d="M778 3093 c7 -3 16 -2 19 1 4 3 -2 6 -13 5 -11 0 -14 -3 -6 -6z"/>
<path d="M713 3075 c-8 -9 -9 -16 -3 -20 6 -3 10 -1 10 4 0 6 10 11 23 11 18
0 19 2 7 10 -19 12 -23 12 -37 -5z"/>
<path d="M715 2829 c-8 -25 2 -39 11 -15 3 9 13 16 21 16 8 0 11 5 8 10 -11
17 -33 11 -40 -11z"/>
<path d="M770 2790 c0 -5 5 -10 10 -10 6 0 10 5 10 10 0 6 -4 10 -10 10 -5 0
-10 -4 -10 -10z"/>
<path d="M865 2791 c-3 -5 -1 -12 5 -16 5 -3 10 1 10 9 0 18 -6 21 -15 7z"/>
<path d="M720 2753 c0 -13 5 -23 10 -23 13 0 13 11 0 30 -8 12 -10 11 -10 -7z"/>
<path d="M748 2703 c-35 -5 -37 -33 -3 -33 15 0 25 6 25 14 0 8 8 17 18 19 21
6 -2 6 -40 0z"/>
<path d="M830 2576 c0 -9 5 -16 10 -16 6 0 10 4 10 9 0 6 -4 13 -10 16 -5 3
-10 -1 -10 -9z"/>
<path d="M830 2520 c0 -5 5 -10 11 -10 5 0 7 5 4 10 -3 6 -8 10 -11 10 -2 0
-4 -4 -4 -10z"/>
<path d="M798 2433 c7 -3 16 -2 19 1 4 3 -2 6 -13 5 -11 0 -14 -3 -6 -6z"/>
<path d="M790 2390 c0 -6 7 -10 15 -10 8 0 15 2 15 4 0 2 -7 6 -15 10 -8 3
-15 1 -15 -4z"/>
<path d="M800 2360 c0 -6 7 -10 15 -10 8 0 15 2 15 4 0 2 -7 6 -15 10 -8 3
-15 1 -15 -4z"/>
<path d="M4351 2322 c-1 -24 47 -82 69 -82 6 0 -5 14 -24 30 -19 17 -37 41
-39 53 -4 22 -4 22 -6 -1z"/>
<path d="M850 2316 c0 -2 7 -6 15 -10 8 -3 15 -1 15 4 0 6 -7 10 -15 10 -8 0
-15 -2 -15 -4z"/>
<path d="M820 2270 c-24 -8 -24 -8 5 -9 17 0 37 4 45 9 12 8 11 10 -5 9 -11
-1 -31 -5 -45 -9z"/>
<path d="M820 2210 c0 -5 5 -10 10 -10 6 0 10 5 10 10 0 6 -4 10 -10 10 -5 0
-10 -4 -10 -10z"/>
<path d="M4368 2183 c12 -2 30 -2 40 0 9 3 -1 5 -23 4 -22 0 -30 -2 -17 -4z"/>
<path d="M865 2150 c-3 -5 -1 -10 4 -10 6 0 11 5 11 10 0 6 -2 10 -4 10 -3 0
-8 -4 -11 -10z"/>
<path d="M848 2113 c7 -3 16 -2 19 1 4 3 -2 6 -13 5 -11 0 -14 -3 -6 -6z"/>
<path d="M906 2015 c4 -8 10 -15 15 -15 5 0 9 7 9 15 0 8 -7 15 -15 15 -9 0
-12 -6 -9 -15z"/>
<path d="M952 1990 c0 -14 2 -19 5 -12 2 6 2 18 0 25 -3 6 -5 1 -5 -13z"/>
<path d="M906 1965 c-3 -9 0 -15 9 -15 8 0 15 7 15 15 0 8 -4 15 -9 15 -5 0
-11 -7 -15 -15z"/>
<path d="M960 1940 c0 -5 5 -10 10 -10 6 0 10 5 10 10 0 6 -4 10 -10 10 -5 0
-10 -4 -10 -10z"/>
<path d="M990 1910 c0 -5 5 -10 11 -10 5 0 7 5 4 10 -3 6 -8 10 -11 10 -2 0
-4 -4 -4 -10z"/>
<path d="M4180 1909 c34 -14 60 -39 77 -74 l14 -30 -6 30 c-9 41 -53 85 -84
84 l-26 0 25 -10z"/>
<path d="M1036 1867 c3 -10 9 -15 12 -12 3 3 0 11 -7 18 -10 9 -11 8 -5 -6z"/>
<path d="M1013 1820 c-31 -12 -29 -30 2 -30 18 0 25 5 25 20 0 11 -1 20 -2 19
-2 0 -13 -4 -25 -9z"/>
<path d="M1057 1810 c-3 -12 0 -20 8 -20 8 0 11 8 8 20 -3 11 -7 20 -8 20 -1
0 -5 -9 -8 -20z"/>
<path d="M1080 1770 c-12 -7 -12 -12 -3 -21 10 -10 14 -9 19 5 8 22 2 27 -16
16z"/>
<path d="M1068 1703 c7 -3 16 -2 19 1 4 3 -2 6 -13 5 -11 0 -14 -3 -6 -6z"/>
<path d="M5915 1501 c4 -8 14 -32 22 -55 l13 -41 -4 39 c-3 22 -13 47 -22 55
-12 11 -14 12 -9 2z"/>
<path d="M1280 1476 c0 -28 14 -35 23 -12 3 8 -1 20 -9 26 -12 10 -14 8 -14
-14z"/>
<path d="M1175 1440 c-3 -5 1 -10 9 -10 9 0 16 5 16 10 0 6 -4 10 -9 10 -6 0
-13 -4 -16 -10z"/>
<path d="M5991 1424 c0 -11 3 -14 6 -6 3 7 2 16 -1 19 -3 4 -6 -2 -5 -13z"/>
<path d="M1310 1421 c0 -6 5 -13 10 -16 6 -3 10 1 10 9 0 9 -4 16 -10 16 -5 0
-10 -4 -10 -9z"/>
<path d="M1426 1331 c-15 -24 33 -51 81 -47 25 2 49 8 54 13 7 7 -10 9 -50 6
-56 -4 -62 -3 -69 18 -6 16 -11 19 -16 10z"/>
<path d="M1540 1250 c0 -5 6 -10 14 -10 8 0 18 5 21 10 3 6 -3 10 -14 10 -12
0 -21 -4 -21 -10z"/>
<path d="M1700 1240 c0 -5 5 -10 11 -10 5 0 7 5 4 10 -3 6 -8 10 -11 10 -2 0
-4 -4 -4 -10z"/>
<path d="M1761 1214 c0 -11 3 -14 6 -6 3 7 2 16 -1 19 -3 4 -6 -2 -5 -13z"/>
<path d="M1800 1220 c0 -5 4 -10 9 -10 6 0 13 5 16 10 3 6 -1 10 -9 10 -9 0
-16 -4 -16 -10z"/>
<path d="M3800 1222 c0 -28 76 -51 107 -33 15 9 11 10 -22 11 -22 0 -51 7 -63
16 -12 8 -22 11 -22 6z"/>
<path d="M3980 1194 c0 -34 -50 -84 -84 -84 -14 0 -26 -4 -26 -10 0 -5 12 -10
26 -10 38 0 94 59 94 99 0 17 -2 31 -5 31 -3 0 -5 -12 -5 -26z"/>
<path d="M1840 1199 c0 -5 5 -7 10 -4 6 3 10 8 10 11 0 2 -4 4 -10 4 -5 0 -10
-5 -10 -11z"/>
<path d="M2000 1116 c0 -9 7 -16 16 -16 9 0 14 5 12 12 -6 18 -28 21 -28 4z"/>
<path d="M2124 1110 c3 -14 6 -28 6 -32 0 -5 5 -8 11 -8 12 0 2 39 -13 55 -7
7 -9 2 -4 -15z"/>
<path d="M5910 1072 c17 -21 34 -58 39 -83 8 -39 9 -40 10 -12 1 40 -14 81
-41 111 -35 37 -41 25 -8 -16z"/>
<path d="M1900 1090 c0 -5 5 -10 10 -10 6 0 10 5 10 10 0 6 -4 10 -10 10 -5 0
-10 -4 -10 -10z"/>
<path d="M2058 1093 c7 -3 16 -2 19 1 4 3 -2 6 -13 5 -11 0 -14 -3 -6 -6z"/>
<path d="M6010 1052 c0 -4 5 -13 11 -19 17 -17 15 -104 -4 -142 -9 -19 -15
-36 -12 -39 8 -8 45 81 45 111 0 28 -24 97 -34 97 -4 0 -6 -4 -6 -8z"/>
<path d="M2287 1033 c-11 -10 -8 -43 3 -43 6 0 10 11 10 25 0 26 -2 29 -13 18z"/>
<path d="M2160 1009 c0 -18 2 -19 15 -9 15 12 12 30 -6 30 -5 0 -9 -10 -9 -21z"/>
<path d="M2328 983 c7 -3 16 -2 19 1 4 3 -2 6 -13 5 -11 0 -14 -3 -6 -6z"/>
<path d="M2400 975 c0 -8 2 -15 4 -15 2 0 6 7 10 15 3 8 1 15 -4 15 -6 0 -10
-7 -10 -15z"/>
<path d="M2240 965 c0 -16 27 -20 48 -6 10 6 8 10 -10 14 -34 10 -38 9 -38 -8z"/>
<path d="M2338 953 c-41 -10 -13 -43 37 -43 13 0 25 -5 27 -12 3 -9 6 -9 12 0
4 7 -3 14 -19 18 -16 4 -25 13 -25 25 0 19 -2 20 -32 12z"/>
<path d="M2431 924 c-1 -18 26 -37 34 -24 3 5 0 10 -9 10 -8 0 -17 6 -19 13
-4 7 -6 8 -6 1z"/>
<path d="M2488 913 c6 -2 18 -2 25 0 6 3 1 5 -13 5 -14 0 -19 -2 -12 -5z"/>
<path d="M2553 903 c9 -2 23 -2 30 0 6 3 -1 5 -18 5 -16 0 -22 -2 -12 -5z"/>
<path d="M2792 873 c-2 -39 0 -43 21 -42 16 1 17 3 5 6 -11 3 -18 17 -21 41
l-4 37 -1 -42z"/>
<path d="M2478 866 c-3 -31 -2 -33 15 -25 11 6 17 19 15 31 -5 36 -25 32 -30
-6z"/>
<path d="M2640 874 c0 -8 5 -12 10 -9 6 3 10 10 10 16 0 5 -4 9 -10 9 -5 0
-10 -7 -10 -16z"/>
<path d="M2695 860 c-3 -5 1 -10 9 -10 9 0 16 5 16 10 0 6 -4 10 -9 10 -6 0
-13 -4 -16 -10z"/>
<path d="M2553 833 c9 -2 23 -2 30 0 6 3 -1 5 -18 5 -16 0 -22 -2 -12 -5z"/>
<path d="M2858 833 c7 -3 16 -2 19 1 4 3 -2 6 -13 5 -11 0 -14 -3 -6 -6z"/>
<path d="M2680 810 c0 -5 9 -10 20 -10 11 0 20 5 20 10 0 6 -9 10 -20 10 -11
0 -20 -4 -20 -10z"/>
<path d="M2640 790 c0 -5 7 -10 15 -10 8 0 15 5 15 10 0 6 -7 10 -15 10 -8 0
-15 -4 -15 -10z"/>
<path d="M2798 762 c-4 -15 -1 -18 19 -14 19 3 21 7 12 18 -16 19 -26 18 -31
-4z"/>
<path d="M3173 630 c0 -25 2 -35 4 -22 2 12 2 32 0 45 -2 12 -4 2 -4 -23z"/>
<path d="M3240 610 c0 -11 5 -20 10 -20 6 0 10 9 10 20 0 11 -4 20 -10 20 -5
0 -10 -9 -10 -20z"/>
<path d="M3085 600 c-19 -8 -19 -9 2 -9 12 -1 25 4 28 9 7 12 -2 12 -30 0z"/>
<path d="M3191 574 c0 -11 3 -14 6 -6 3 7 2 16 -1 19 -3 4 -6 -2 -5 -13z"/>
<path d="M3310 565 c0 -9 5 -15 11 -13 6 2 11 8 11 13 0 5 -5 11 -11 13 -6 2
-11 -4 -11 -13z"/>
<path d="M3223 558 c2 -7 10 -13 17 -13 7 0 15 6 18 13 2 7 -5 12 -18 12 -13
0 -20 -5 -17 -12z"/>
<path d="M3378 503 c12 -2 32 -2 45 0 12 2 2 4 -23 4 -25 0 -35 -2 -22 -4z"/>
</g>
</svg>
