<svg id="Layer_5" enable-background="new 0 0 64 64" height="512" viewBox="0 0 64 64" width="512" xmlns="http://www.w3.org/2000/svg"><g><g><g><path d="m43 60c0 .55-.22 1.05-.59 1.41-.36.37-.86.59-1.41.59h-26c-1.1 0-2-.9-2-2s.45-2.1 1.17-2.83c.73-.72 1.73-1.17 2.83-1.17h1 20 1c2.21 0 4 1.79 4 4z" fill="#969faa"/></g><g><path d="m38 56h-20c1.87-1.25 3-3.35 3-5.61v-.39h14v.39c0 2.26 1.13 4.36 3 5.61z" fill="#aab2bd"/></g><g><path d="m2 42h45.53c-.95 1.06-1.53 2.46-1.53 4v4h-11-14-15c-2.21 0-4-1.79-4-4z" fill="#ccd1d9"/></g><g><path d="m6.17 16h-.17c-2.21 0-4 1.79-4 4v22h45.53c.15-.17.3-.32.47-.47v-25.53z" fill="#69d6f4"/></g><g><circle cx="18" cy="14" fill="#4fc1e9" r="12"/></g><g><path d="m14 34v-2h6v6h-8v-4z" fill="#ff826e"/></g><g><path d="m14 32v2h-2-6v-6h8z" fill="#fcd770"/></g><g><path d="m55.41 2.91 4.59 10.09h-6-6l4.59-10.09c.25-.55.8-.91 1.41-.91s1.16.36 1.41.91z" fill="#aab2bd"/></g><g><path d="m60 13v28.53c-1.06-.95-2.46-1.53-4-1.53h-2v-27z" fill="#ff826e"/></g><g><path d="m54 13v27h-2c-1.54 0-2.94.58-4 1.53v-25.53-3z" fill="#b4dd7f"/></g><g><path d="m62 52v2c0 4.42-3.58 8-8 8s-8-3.58-8-8v-2z" fill="#969faa"/></g><g><path d="m60 41.53c-1.06-.95-2.46-1.53-4-1.53h-4c-1.54 0-2.94.58-4 1.53-.17.15-.32.3-.47.47-.95 1.06-1.53 2.46-1.53 4v4 2h16v-6c0-1.77-.77-3.37-2-4.47z" fill="#aab2bd"/></g><g><path d="m56 40v6c0 1.1-.9 2-2 2-.55 0-1.05-.22-1.41-.59-.37-.36-.59-.86-.59-1.41v-6h2z" fill="#fcd770"/></g></g><g><path d="m61 41.111v-28.328l-4.676-10.287c-.413-.909-1.325-1.496-2.324-1.496s-1.911.587-2.324 1.497l-4.676 10.286v2.217h-16.051c.026-.331.051-.662.051-1 0-7.168-5.832-13-13-13s-13 5.832-13 13c0 .37.025.733.056 1.096-2.306.443-4.056 2.471-4.056 4.904v26c0 2.757 2.243 5 5 5h13.963c-.168 1.595-.997 3.041-2.296 4h-.667c-2.757 0-5 2.243-5 5 0 1.654 1.346 3 3 3h26c1.654 0 3-1.346 3-3 0-2.757-2.243-5-5-5h-.666c-1.299-.959-2.128-2.405-2.296-4h8.962v3c0 4.963 4.038 9 9 9s9-4.037 9-9v-8c0-1.902-.765-3.627-2-4.889zm-8-27.111v25h-1c-1.075 0-2.089.251-3 .685v-25.685zm6 25.685c-.911-.434-1.925-.685-3-.685h-1v-25h4zm-6 1.315h2v5c0 .552-.449 1-1 1s-1-.448-1-1zm-6 5c0-2.414 1.721-4.434 4-4.899v4.899c0 1.654 1.346 3 3 3s3-1.346 3-3v-4.899c2.279.465 4 2.484 4 4.899v5h-14zm6.497-42.676c.18-.395.827-.394 1.007 0l3.943 8.676h-8.894zm-35.497-.324c1.075 0 2.22 1.527 3.009 4h-6.018c.789-2.473 1.934-4 3.009-4zm3.519 6c.244 1.209.408 2.553.46 4h-7.958c.052-1.447.217-2.791.46-4zm7.43 4h-4.971c-.046-1.419-.184-2.763-.409-4h4.217c.626 1.221 1.034 2.57 1.163 4zm-6.97 2c-.052 1.447-.217 2.791-.46 4h-7.038c-.244-1.209-.408-2.553-.46-4zm-9.957-2h-4.971c.13-1.43.537-2.779 1.164-4h4.217c-.226 1.237-.365 2.581-.41 4zm0 2c.046 1.419.184 2.763.409 4h-4.217c-.626-1.221-1.034-2.57-1.164-4zm.873 6c.368 1.295.838 2.422 1.391 3.341-1.874-.675-3.518-1.834-4.764-3.341zm2.096 0h6.018c-.789 2.473-1.935 4-3.009 4s-2.22-1.527-3.009-4zm8.114 0h3.374c-1.246 1.507-2.891 2.666-4.764 3.341.552-.919 1.022-2.046 1.39-3.341zm4.681-2h-4.217c.225-1.237.364-2.581.409-4h4.971c-.129 1.43-.537 2.779-1.163 4zm-1.307-12h-3.374c-.368-1.295-.838-2.422-1.391-3.341 1.874.675 3.518 1.834 4.765 3.341zm-12.193-3.341c-.553.919-1.023 2.046-1.391 3.341h-3.374c1.247-1.507 2.891-2.666 4.765-3.341zm-8.906 13.407c1.384 5.691 6.509 9.934 12.62 9.934 6.134 0 11.277-4.276 12.637-10h16.363v24h-44v-21c0-1.442 1.023-2.648 2.38-2.934zm36.62 42.934c0 .552-.449 1-1 1h-26c-.551 0-1-.448-1-1 0-1.654 1.346-3 3-3h22c1.654 0 3 1.346 3 3zm-6.471-5h-15.058c.858-1.155 1.378-2.536 1.492-4h12.075c.114 1.464.634 2.845 1.491 4zm-29.529-6c-1.654 0-3-1.346-3-3v-3h42.685c-.434.911-.685 1.926-.685 3v3zm48 12c-3.86 0-7-3.141-7-7v-1h14v1c0 3.859-3.14 7-7 7z"/><path d="m11 45h2v2h-2z"/><path d="m15 45h2v2h-2z"/><path d="m7 45h2v2h-2z"/><path d="m32 19h13v2h-13z"/><path d="m32 23h13v2h-13z"/><path d="m32 27h13v2h-13z"/><path d="m32 31h13v2h-13z"/><path d="m32 35h13v2h-13z"/><path d="m11 39h10v-8h-6v-4h-10v8h6zm8-6v4h-6v-2h2v-2zm-12-4h6v4h-6z"/></g></g></svg>