<svg id="Layer_5" enable-background="new 0 0 64 64" height="512" viewBox="0 0 64 64" width="512" xmlns="http://www.w3.org/2000/svg"><path d="m62 22v32h-8v8h-34v-6h10 6v-9c0-7.02-4.25-13.04-10.31-15.63-.68-.29-1.37-.54-2.09-.74-1.46-.41-3-.63-4.6-.63 2.48 0 4.74-1.01 6.36-2.64.42-.41.79-.87 1.12-1.36h21.52c2.21 0 4-1.79 4-4z" fill="#e6e9ed"/><path d="m62 54-8 8v-8z" fill="#b4dd7f"/><path d="m54.56 41.44c.91 1.29 1.44 2.86 1.44 4.56 0 4.42-3.58 8-8 8s-8-3.58-8-8 3.58-8 8-8c2.72 0 5.13 1.36 6.56 3.44z" fill="#ff826e"/><path d="m24.25 12-.25 14h24c2.21 0 4-1.79 4-4v-10z" fill="#fcd770"/><path d="m52 8v4h-27.75l-1.25-2 1-2h19 2 2 2z" fill="#aab2bd"/><path d="m52 8h-3-2-2-2-19l2-4h22c2.21 0 4 1.79 4 4z" fill="#fcd770"/><path d="m45 16c1.66 0 3 1.34 3 3s-1.34 3-3 3c-.77 0-1.47-.29-2-.78-.62-.53-1-1.33-1-2.22s.38-1.69 1-2.22c.53-.49 1.23-.78 2-.78z" fill="#ff826e"/><g fill="#b4dd7f"><path d="m43 16.78c-.62.53-1 1.33-1 2.22s.38 1.69 1 2.22c-.53.48-1.23.78-2 .78-1.66 0-3-1.34-3-3s1.34-3 3-3c.77 0 1.47.3 2 .78z"/><path d="m30 56h-10-4v-9l.33-.28c.95-.83 1.84-1.72 2.67-2.66 1.18-1.33 2.24-2.76 3.16-4.27 1.59-2.6 2.79-5.43 3.53-8.42 6.06 2.59 10.31 8.61 10.31 15.63v9z"/><path d="m32 17v4c0 .55-.45 1-1 1h-3.06c.04-.33.06-.66.06-1v-.42c0-1.62-.43-3.2-1.26-4.58h4.26c.55 0 1 .45 1 1z"/></g><path d="m28 20.58v.42c0 .34-.02.67-.06 1-.16 1.47-.68 2.83-1.46 4-.33.49-.7.95-1.12 1.36-1.62 1.63-3.88 2.64-6.36 2.64-4.97 0-9-4.03-9-9v-.42c0-1.69.47-3.34 1.37-4.77l3.63-5.81h8l1.25 2 2.38 3.81c.04.06.08.12.11.19.83 1.38 1.26 2.96 1.26 4.58z" fill="#cf9e76"/><path d="m27 2-1 2-2 4-1 2h-8l-4-8h2c1.5 0 1.5 2 3 2s1.5-2 2.99-2c1.51 0 1.51 2 3.01 2s1.5-2 3-2z" fill="#d3a06c"/><path d="m23.6 30.63c.72.2 1.41.45 2.09.74-.74 2.99-1.94 5.82-3.53 8.42l-3.16-3.79z" fill="#ff826e"/><path d="m23.6 30.63-4.6 5.37-4.6-5.37c1.46-.41 3-.63 4.6-.63s3.14.22 4.6.63z" fill="#ccd1d9"/><path d="m19 36 3.16 3.79c-.92 1.51-1.98 2.94-3.16 4.27-1.18-1.33-2.24-2.76-3.16-4.27z" fill="#ff826e"/><path d="m14.4 30.63 4.6 5.37-3.16 3.79c-1.6-2.6-2.79-5.44-3.53-8.42.68-.29 1.37-.54 2.09-.74z" fill="#ff826e"/><path d="m8 56h-6v-9c0-4.7 1.9-8.94 4.98-12.02 1.52-1.52 3.33-2.76 5.33-3.61.74 2.98 1.93 5.82 3.53 8.42.92 1.51 1.98 2.94 3.16 4.27-.83.94-1.72 1.83-2.67 2.66l-.33.28v9z" fill="#b4dd7f"/><path d="m20 17c.552 0 1 .449 1 1h2c0-1.654-1.346-3-3-3v-2h-2v2h-3v3c0 1.654 1.346 3 3 3h2c.552 0 1 .449 1 1v1h-3c-.552 0-1-.449-1-1h-2c0 1.654 1.346 3 3 3v2h2v-2h3v-3c0-1.654-1.346-3-3-3h-2c-.552 0-1-.449-1-1v-1z"/><path d="m19 51h2v2h-2z"/><path d="m19 47h2v2h-2z"/><path d="m45 15c-.731 0-1.407.211-1.997.555-.608-.357-1.296-.555-2.003-.555-2.206 0-4 1.794-4 4s1.794 4 4 4c.707 0 1.395-.198 2.003-.555.59.344 1.266.555 1.997.555 2.206 0 4-1.794 4-4s-1.794-4-4-4zm-6 4c0-1.103.897-2 2-2 .175 0 .346.032.514.079-.318.572-.514 1.221-.514 1.921s.196 1.349.514 1.921c-.168.047-.339.079-.514.079-1.103 0-2-.897-2-2zm6 2c-1.103 0-2-.897-2-2s.897-2 2-2 2 .897 2 2-.897 2-2 2z"/><path d="m45 7h2v2h-2z"/><path d="m53 25h2v2h-2z"/><path d="m57 25h2v2h-2z"/><path d="m31 29h2v2h-2z"/><path d="m35 29h24v2h-24z"/><path d="m35 33h24v2h-24z"/><path d="m49 57h2v2h-2z"/><path d="m45 57h2v2h-2z"/><path d="m41 57h2v2h-2z"/><path d="m53 21v-13c0-2.757-2.243-5-5-5h-20.382l1-2h-3.618c-1.25 0-1.882.842-2.301 1.399-.379.506-.49.601-.702.601-.211 0-.322-.095-.701-.6-.418-.558-1.051-1.4-2.301-1.4s-1.881.843-2.299 1.4c-.379.505-.489.6-.699.6s-.32-.095-.699-.6c-.417-.557-1.049-1.4-2.298-1.4h-3.618l4.473 8.945-3.334 5.335c-.996 1.592-1.521 3.424-1.521 5.301v.419c0 3.728 2.054 6.98 5.086 8.699-7.541 2.146-13.086 9.081-13.086 17.301v10h18v6h35.414l8.586-8.586v-33.414zm-24.687-4h2.687v4h-2v-.419c0-1.234-.249-2.442-.687-3.581zm.485 6h2.202c1.103 0 2-.897 2-2v-4c0-1.103-.897-2-2-2h-3.696l-1.25-2h24.946v9c0 1.654-1.346 3-3 3h-19.841c.279-.636.497-1.304.639-2zm19.202-18c1.302 0 2.402.839 2.816 2h-1.816v2h2v2h-26.196l-.659-1.055.473-.945h18.382v-2h-17.382l1-2zm-35-2c.209 0 .32.095.697.6.418.558 1.05 1.4 2.3 1.4s1.881-.843 2.299-1.4c.379-.505.489-.6.699-.6.211 0 .322.095.701.6.418.558 1.051 1.4 2.301 1.4 1.251 0 1.883-.842 2.302-1.4.379-.505.49-.6.701-.6h.382l-3 6h-6.764l-3-6zm-2 18v-.419c0-1.501.421-2.967 1.216-4.24l3.339-5.341h6.891l3.339 5.341c.794 1.273 1.215 2.739 1.215 4.24v.419c0 4.411-3.589 8-8 8s-8-3.589-8-8zm18 21v13h-12v-7.546c4.475-3.921 7.666-8.976 9.322-14.664 5.146 2.663 8.678 8.027 8.678 14.21v8h-4v-13zm-10-11c.94 0 1.856.098 2.752.254l-2.752 3.21-2.752-3.21c.896-.156 1.812-.254 2.752-.254zm-1.31 5.009-1.696 2.036c-1.049-1.918-1.88-3.952-2.474-6.057.184-.067.364-.141.551-.202zm1.31 1.554 1.92 2.305c-.59.912-1.226 1.795-1.918 2.638-.69-.843-1.33-1.725-1.921-2.64zm3.006.481-1.696-2.035 3.62-4.223c.185.06.363.133.545.2-.599 2.123-1.426 4.15-2.469 6.058zm-19.006 8.956c0-6.18 3.528-11.542 8.67-14.206 1.199 4.104 3.25 7.945 5.994 11.225-.636.673-1.293 1.328-1.997 1.944l-.667.583v8.454h-6v-13h-2v13h-4zm18 10h16v-10c0-8.22-5.545-15.155-13.086-17.301 1.2-.68 2.241-1.603 3.067-2.699h21.019c2.414 0 4.434-1.721 4.899-4h8.101v30h-7.355c2.043-1.651 3.355-4.174 3.355-7 0-1.606-.428-3.112-1.168-4.418l3.875-3.875-1.414-1.414-3.653 3.653c-1.647-1.805-4.01-2.946-6.64-2.946-4.963 0-9 4.037-9 9s4.037 9 9 9c1.849 0 3.569-.562 5-1.522v7.522h-32zm26-6.586 7.347-7.347c.415.894.653 1.885.653 2.933 0 3.859-3.141 7-7 7s-7-3.141-7-7 3.141-7 7-7c2.079 0 3.943.916 5.226 2.36l-6.226 6.226-2.293-2.293-1.414 1.414zm12.586 4.586-4.586 4.586v-4.586z"/></svg>